<?xml version="1.0" encoding="utf-8" standalone="no"?>
<!DOCTYPE svg PUBLIC "-//W3C//DTD SVG 1.1//EN"
  "http://www.w3.org/Graphics/SVG/1.1/DTD/svg11.dtd">
<svg xmlns:xlink="http://www.w3.org/1999/xlink" width="1440pt" height="1440pt" viewBox="0 0 1440 1440" xmlns="http://www.w3.org/2000/svg" version="1.1">
 <metadata>
  <rdf:RDF xmlns:dc="http://purl.org/dc/elements/1.1/" xmlns:cc="http://creativecommons.org/ns#" xmlns:rdf="http://www.w3.org/1999/02/22-rdf-syntax-ns#">
   <cc:Work>
    <dc:type rdf:resource="http://purl.org/dc/dcmitype/StillImage"/>
    <dc:date>2024-02-11T15:15:59.546455</dc:date>
    <dc:format>image/svg+xml</dc:format>
    <dc:creator>
     <cc:Agent>
      <dc:title>Matplotlib v3.8.0, https://matplotlib.org/</dc:title>
     </cc:Agent>
    </dc:creator>
   </cc:Work>
  </rdf:RDF>
 </metadata>
 <defs>
  <style type="text/css">*{stroke-linejoin: round; stroke-linecap: butt}</style>
 </defs>
 <g id="figure_1">
  <g id="patch_1">
   <path d="M 0 1440 
L 1440 1440 
L 1440 0 
L 0 0 
z
" style="fill: #ffffff"/>
  </g>
  <g id="axes_1">
   <g id="patch_2">
    <path d="M 110.6025 695.121875 
L 697.211293 695.121875 
L 697.211293 101.16375 
L 110.6025 101.16375 
z
" style="fill: #eaeaf2"/>
   </g>
   <g id="matplotlib.axis_1">
    <g id="xtick_1">
     <g id="line2d_1">
      <path d="M 110.6025 695.121875 
L 110.6025 101.16375 
" clip-path="url(#pcc7200dfb9)" style="fill: none; stroke: #ffffff; stroke-width: 2; stroke-linecap: round"/>
     </g>
     <g id="text_1">
      <!-- 0 -->
      <g style="fill: #262626" transform="translate(104.485469 726.369062) scale(0.22 -0.22)">
       <defs>
        <path id="ArialMT-30" d="M 266 2259 
Q 266 3072 433 3567 
Q 600 4063 929 4331 
Q 1259 4600 1759 4600 
Q 2128 4600 2406 4451 
Q 2684 4303 2865 4023 
Q 3047 3744 3150 3342 
Q 3253 2941 3253 2259 
Q 3253 1453 3087 958 
Q 2922 463 2592 192 
Q 2263 -78 1759 -78 
Q 1097 -78 719 397 
Q 266 969 266 2259 
z
M 844 2259 
Q 844 1131 1108 757 
Q 1372 384 1759 384 
Q 2147 384 2411 759 
Q 2675 1134 2675 2259 
Q 2675 3391 2411 3762 
Q 2147 4134 1753 4134 
Q 1366 4134 1134 3806 
Q 844 3388 844 2259 
z
" transform="scale(0.015625)"/>
       </defs>
       <use xlink:href="#ArialMT-30"/>
      </g>
     </g>
    </g>
    <g id="xtick_2">
     <g id="line2d_2">
      <path d="M 172.84216 695.121875 
L 172.84216 101.16375 
" clip-path="url(#pcc7200dfb9)" style="fill: none; stroke: #ffffff; stroke-width: 2; stroke-linecap: round"/>
     </g>
     <g id="text_2">
      <!-- 2 -->
      <g style="fill: #262626" transform="translate(166.725129 726.369062) scale(0.22 -0.22)">
       <defs>
        <path id="ArialMT-32" d="M 3222 541 
L 3222 0 
L 194 0 
Q 188 203 259 391 
Q 375 700 629 1000 
Q 884 1300 1366 1694 
Q 2113 2306 2375 2664 
Q 2638 3022 2638 3341 
Q 2638 3675 2398 3904 
Q 2159 4134 1775 4134 
Q 1369 4134 1125 3890 
Q 881 3647 878 3216 
L 300 3275 
Q 359 3922 746 4261 
Q 1134 4600 1788 4600 
Q 2447 4600 2831 4234 
Q 3216 3869 3216 3328 
Q 3216 3053 3103 2787 
Q 2991 2522 2730 2228 
Q 2469 1934 1863 1422 
Q 1356 997 1212 845 
Q 1069 694 975 541 
L 3222 541 
z
" transform="scale(0.015625)"/>
       </defs>
       <use xlink:href="#ArialMT-32"/>
      </g>
     </g>
    </g>
    <g id="xtick_3">
     <g id="line2d_3">
      <path d="M 235.08182 695.121875 
L 235.08182 101.16375 
" clip-path="url(#pcc7200dfb9)" style="fill: none; stroke: #ffffff; stroke-width: 2; stroke-linecap: round"/>
     </g>
     <g id="text_3">
      <!-- 4 -->
      <g style="fill: #262626" transform="translate(228.964788 726.369062) scale(0.22 -0.22)">
       <defs>
        <path id="ArialMT-34" d="M 2069 0 
L 2069 1097 
L 81 1097 
L 81 1613 
L 2172 4581 
L 2631 4581 
L 2631 1613 
L 3250 1613 
L 3250 1097 
L 2631 1097 
L 2631 0 
L 2069 0 
z
M 2069 1613 
L 2069 3678 
L 634 1613 
L 2069 1613 
z
" transform="scale(0.015625)"/>
       </defs>
       <use xlink:href="#ArialMT-34"/>
      </g>
     </g>
    </g>
    <g id="xtick_4">
     <g id="line2d_4">
      <path d="M 297.321479 695.121875 
L 297.321479 101.16375 
" clip-path="url(#pcc7200dfb9)" style="fill: none; stroke: #ffffff; stroke-width: 2; stroke-linecap: round"/>
     </g>
     <g id="text_4">
      <!-- 6 -->
      <g style="fill: #262626" transform="translate(291.204448 726.369062) scale(0.22 -0.22)">
       <defs>
        <path id="ArialMT-36" d="M 3184 3459 
L 2625 3416 
Q 2550 3747 2413 3897 
Q 2184 4138 1850 4138 
Q 1581 4138 1378 3988 
Q 1113 3794 959 3422 
Q 806 3050 800 2363 
Q 1003 2672 1297 2822 
Q 1591 2972 1913 2972 
Q 2475 2972 2870 2558 
Q 3266 2144 3266 1488 
Q 3266 1056 3080 686 
Q 2894 316 2569 119 
Q 2244 -78 1831 -78 
Q 1128 -78 684 439 
Q 241 956 241 2144 
Q 241 3472 731 4075 
Q 1159 4600 1884 4600 
Q 2425 4600 2770 4297 
Q 3116 3994 3184 3459 
z
M 888 1484 
Q 888 1194 1011 928 
Q 1134 663 1356 523 
Q 1578 384 1822 384 
Q 2178 384 2434 671 
Q 2691 959 2691 1453 
Q 2691 1928 2437 2201 
Q 2184 2475 1800 2475 
Q 1419 2475 1153 2201 
Q 888 1928 888 1484 
z
" transform="scale(0.015625)"/>
       </defs>
       <use xlink:href="#ArialMT-36"/>
      </g>
     </g>
    </g>
    <g id="xtick_5">
     <g id="line2d_5">
      <path d="M 359.561139 695.121875 
L 359.561139 101.16375 
" clip-path="url(#pcc7200dfb9)" style="fill: none; stroke: #ffffff; stroke-width: 2; stroke-linecap: round"/>
     </g>
     <g id="text_5">
      <!-- 8 -->
      <g style="fill: #262626" transform="translate(353.444108 726.369062) scale(0.22 -0.22)">
       <defs>
        <path id="ArialMT-38" d="M 1131 2484 
Q 781 2613 612 2850 
Q 444 3088 444 3419 
Q 444 3919 803 4259 
Q 1163 4600 1759 4600 
Q 2359 4600 2725 4251 
Q 3091 3903 3091 3403 
Q 3091 3084 2923 2848 
Q 2756 2613 2416 2484 
Q 2838 2347 3058 2040 
Q 3278 1734 3278 1309 
Q 3278 722 2862 322 
Q 2447 -78 1769 -78 
Q 1091 -78 675 323 
Q 259 725 259 1325 
Q 259 1772 486 2073 
Q 713 2375 1131 2484 
z
M 1019 3438 
Q 1019 3113 1228 2906 
Q 1438 2700 1772 2700 
Q 2097 2700 2305 2904 
Q 2513 3109 2513 3406 
Q 2513 3716 2298 3927 
Q 2084 4138 1766 4138 
Q 1444 4138 1231 3931 
Q 1019 3725 1019 3438 
z
M 838 1322 
Q 838 1081 952 856 
Q 1066 631 1291 507 
Q 1516 384 1775 384 
Q 2178 384 2440 643 
Q 2703 903 2703 1303 
Q 2703 1709 2433 1975 
Q 2163 2241 1756 2241 
Q 1359 2241 1098 1978 
Q 838 1716 838 1322 
z
" transform="scale(0.015625)"/>
       </defs>
       <use xlink:href="#ArialMT-38"/>
      </g>
     </g>
    </g>
    <g id="xtick_6">
     <g id="line2d_6">
      <path d="M 421.800799 695.121875 
L 421.800799 101.16375 
" clip-path="url(#pcc7200dfb9)" style="fill: none; stroke: #ffffff; stroke-width: 2; stroke-linecap: round"/>
     </g>
     <g id="text_6">
      <!-- 10 -->
      <g style="fill: #262626" transform="translate(409.566736 726.369062) scale(0.22 -0.22)">
       <defs>
        <path id="ArialMT-31" d="M 2384 0 
L 1822 0 
L 1822 3584 
Q 1619 3391 1289 3197 
Q 959 3003 697 2906 
L 697 3450 
Q 1169 3672 1522 3987 
Q 1875 4303 2022 4600 
L 2384 4600 
L 2384 0 
z
" transform="scale(0.015625)"/>
       </defs>
       <use xlink:href="#ArialMT-31"/>
       <use xlink:href="#ArialMT-30" x="55.615234"/>
      </g>
     </g>
    </g>
    <g id="xtick_7">
     <g id="line2d_7">
      <path d="M 484.040459 695.121875 
L 484.040459 101.16375 
" clip-path="url(#pcc7200dfb9)" style="fill: none; stroke: #ffffff; stroke-width: 2; stroke-linecap: round"/>
     </g>
     <g id="text_7">
      <!-- 12 -->
      <g style="fill: #262626" transform="translate(471.806396 726.369062) scale(0.22 -0.22)">
       <use xlink:href="#ArialMT-31"/>
       <use xlink:href="#ArialMT-32" x="55.615234"/>
      </g>
     </g>
    </g>
    <g id="xtick_8">
     <g id="line2d_8">
      <path d="M 546.280118 695.121875 
L 546.280118 101.16375 
" clip-path="url(#pcc7200dfb9)" style="fill: none; stroke: #ffffff; stroke-width: 2; stroke-linecap: round"/>
     </g>
     <g id="text_8">
      <!-- 14 -->
      <g style="fill: #262626" transform="translate(534.046056 726.369062) scale(0.22 -0.22)">
       <use xlink:href="#ArialMT-31"/>
       <use xlink:href="#ArialMT-34" x="55.615234"/>
      </g>
     </g>
    </g>
    <g id="xtick_9">
     <g id="line2d_9">
      <path d="M 608.519778 695.121875 
L 608.519778 101.16375 
" clip-path="url(#pcc7200dfb9)" style="fill: none; stroke: #ffffff; stroke-width: 2; stroke-linecap: round"/>
     </g>
     <g id="text_9">
      <!-- 16 -->
      <g style="fill: #262626" transform="translate(596.285716 726.369062) scale(0.22 -0.22)">
       <use xlink:href="#ArialMT-31"/>
       <use xlink:href="#ArialMT-36" x="55.615234"/>
      </g>
     </g>
    </g>
    <g id="xtick_10">
     <g id="line2d_10">
      <path d="M 670.759438 695.121875 
L 670.759438 101.16375 
" clip-path="url(#pcc7200dfb9)" style="fill: none; stroke: #ffffff; stroke-width: 2; stroke-linecap: round"/>
     </g>
     <g id="text_10">
      <!-- 18 -->
      <g style="fill: #262626" transform="translate(658.525375 726.369062) scale(0.22 -0.22)">
       <use xlink:href="#ArialMT-31"/>
       <use xlink:href="#ArialMT-38" x="55.615234"/>
      </g>
     </g>
    </g>
   </g>
   <g id="matplotlib.axis_2">
    <g id="ytick_1">
     <g id="line2d_11">
      <path d="M 110.6025 623.966925 
L 697.211293 623.966925 
" clip-path="url(#pcc7200dfb9)" style="fill: none; stroke: #ffffff; stroke-width: 2; stroke-linecap: round"/>
     </g>
     <g id="text_11">
      <!-- 0.70 -->
      <g style="fill: #262626" transform="translate(52.288437 631.840518) scale(0.22 -0.22)">
       <defs>
        <path id="ArialMT-2e" d="M 581 0 
L 581 641 
L 1222 641 
L 1222 0 
L 581 0 
z
" transform="scale(0.015625)"/>
        <path id="ArialMT-37" d="M 303 3981 
L 303 4522 
L 3269 4522 
L 3269 4084 
Q 2831 3619 2401 2847 
Q 1972 2075 1738 1259 
Q 1569 684 1522 0 
L 944 0 
Q 953 541 1156 1306 
Q 1359 2072 1739 2783 
Q 2119 3494 2547 3981 
L 303 3981 
z
" transform="scale(0.015625)"/>
       </defs>
       <use xlink:href="#ArialMT-30"/>
       <use xlink:href="#ArialMT-2e" x="55.615234"/>
       <use xlink:href="#ArialMT-37" x="83.398438"/>
       <use xlink:href="#ArialMT-30" x="139.013672"/>
      </g>
     </g>
    </g>
    <g id="ytick_2">
     <g id="line2d_12">
      <path d="M 110.6025 496.060558 
L 697.211293 496.060558 
" clip-path="url(#pcc7200dfb9)" style="fill: none; stroke: #ffffff; stroke-width: 2; stroke-linecap: round"/>
     </g>
     <g id="text_12">
      <!-- 0.75 -->
      <g style="fill: #262626" transform="translate(52.288437 503.934152) scale(0.22 -0.22)">
       <defs>
        <path id="ArialMT-35" d="M 266 1200 
L 856 1250 
Q 922 819 1161 601 
Q 1400 384 1738 384 
Q 2144 384 2425 690 
Q 2706 997 2706 1503 
Q 2706 1984 2436 2262 
Q 2166 2541 1728 2541 
Q 1456 2541 1237 2417 
Q 1019 2294 894 2097 
L 366 2166 
L 809 4519 
L 3088 4519 
L 3088 3981 
L 1259 3981 
L 1013 2750 
Q 1425 3038 1878 3038 
Q 2478 3038 2890 2622 
Q 3303 2206 3303 1553 
Q 3303 931 2941 478 
Q 2500 -78 1738 -78 
Q 1113 -78 717 272 
Q 322 622 266 1200 
z
" transform="scale(0.015625)"/>
       </defs>
       <use xlink:href="#ArialMT-30"/>
       <use xlink:href="#ArialMT-2e" x="55.615234"/>
       <use xlink:href="#ArialMT-37" x="83.398438"/>
       <use xlink:href="#ArialMT-35" x="139.013672"/>
      </g>
     </g>
    </g>
    <g id="ytick_3">
     <g id="line2d_13">
      <path d="M 110.6025 368.154191 
L 697.211293 368.154191 
" clip-path="url(#pcc7200dfb9)" style="fill: none; stroke: #ffffff; stroke-width: 2; stroke-linecap: round"/>
     </g>
     <g id="text_13">
      <!-- 0.80 -->
      <g style="fill: #262626" transform="translate(52.288437 376.027785) scale(0.22 -0.22)">
       <use xlink:href="#ArialMT-30"/>
       <use xlink:href="#ArialMT-2e" x="55.615234"/>
       <use xlink:href="#ArialMT-38" x="83.398438"/>
       <use xlink:href="#ArialMT-30" x="139.013672"/>
      </g>
     </g>
    </g>
    <g id="ytick_4">
     <g id="line2d_14">
      <path d="M 110.6025 240.247824 
L 697.211293 240.247824 
" clip-path="url(#pcc7200dfb9)" style="fill: none; stroke: #ffffff; stroke-width: 2; stroke-linecap: round"/>
     </g>
     <g id="text_14">
      <!-- 0.85 -->
      <g style="fill: #262626" transform="translate(52.288437 248.121418) scale(0.22 -0.22)">
       <use xlink:href="#ArialMT-30"/>
       <use xlink:href="#ArialMT-2e" x="55.615234"/>
       <use xlink:href="#ArialMT-38" x="83.398438"/>
       <use xlink:href="#ArialMT-35" x="139.013672"/>
      </g>
     </g>
    </g>
    <g id="ytick_5">
     <g id="line2d_15">
      <path d="M 110.6025 112.341458 
L 697.211293 112.341458 
" clip-path="url(#pcc7200dfb9)" style="fill: none; stroke: #ffffff; stroke-width: 2; stroke-linecap: round"/>
     </g>
     <g id="text_15">
      <!-- 0.90 -->
      <g style="fill: #262626" transform="translate(52.288437 120.215051) scale(0.22 -0.22)">
       <defs>
        <path id="ArialMT-39" d="M 350 1059 
L 891 1109 
Q 959 728 1153 556 
Q 1347 384 1650 384 
Q 1909 384 2104 503 
Q 2300 622 2425 820 
Q 2550 1019 2634 1356 
Q 2719 1694 2719 2044 
Q 2719 2081 2716 2156 
Q 2547 1888 2255 1720 
Q 1963 1553 1622 1553 
Q 1053 1553 659 1965 
Q 266 2378 266 3053 
Q 266 3750 677 4175 
Q 1088 4600 1706 4600 
Q 2153 4600 2523 4359 
Q 2894 4119 3086 3673 
Q 3278 3228 3278 2384 
Q 3278 1506 3087 986 
Q 2897 466 2520 194 
Q 2144 -78 1638 -78 
Q 1100 -78 759 220 
Q 419 519 350 1059 
z
M 2653 3081 
Q 2653 3566 2395 3850 
Q 2138 4134 1775 4134 
Q 1400 4134 1122 3828 
Q 844 3522 844 3034 
Q 844 2597 1108 2323 
Q 1372 2050 1759 2050 
Q 2150 2050 2401 2323 
Q 2653 2597 2653 3081 
z
" transform="scale(0.015625)"/>
       </defs>
       <use xlink:href="#ArialMT-30"/>
       <use xlink:href="#ArialMT-2e" x="55.615234"/>
       <use xlink:href="#ArialMT-39" x="83.398438"/>
       <use xlink:href="#ArialMT-30" x="139.013672"/>
      </g>
     </g>
    </g>
    <g id="text_16">
     <!-- Improvement -->
     <g style="fill: #262626" transform="translate(43.518437 468.162812) rotate(-90) scale(0.24 -0.24)">
      <defs>
       <path id="ArialMT-49" d="M 597 0 
L 597 4581 
L 1203 4581 
L 1203 0 
L 597 0 
z
" transform="scale(0.015625)"/>
       <path id="ArialMT-6d" d="M 422 0 
L 422 3319 
L 925 3319 
L 925 2853 
Q 1081 3097 1340 3245 
Q 1600 3394 1931 3394 
Q 2300 3394 2536 3241 
Q 2772 3088 2869 2813 
Q 3263 3394 3894 3394 
Q 4388 3394 4653 3120 
Q 4919 2847 4919 2278 
L 4919 0 
L 4359 0 
L 4359 2091 
Q 4359 2428 4304 2576 
Q 4250 2725 4106 2815 
Q 3963 2906 3769 2906 
Q 3419 2906 3187 2673 
Q 2956 2441 2956 1928 
L 2956 0 
L 2394 0 
L 2394 2156 
Q 2394 2531 2256 2718 
Q 2119 2906 1806 2906 
Q 1569 2906 1367 2781 
Q 1166 2656 1075 2415 
Q 984 2175 984 1722 
L 984 0 
L 422 0 
z
" transform="scale(0.015625)"/>
       <path id="ArialMT-70" d="M 422 -1272 
L 422 3319 
L 934 3319 
L 934 2888 
Q 1116 3141 1344 3267 
Q 1572 3394 1897 3394 
Q 2322 3394 2647 3175 
Q 2972 2956 3137 2557 
Q 3303 2159 3303 1684 
Q 3303 1175 3120 767 
Q 2938 359 2589 142 
Q 2241 -75 1856 -75 
Q 1575 -75 1351 44 
Q 1128 163 984 344 
L 984 -1272 
L 422 -1272 
z
M 931 1641 
Q 931 1000 1190 694 
Q 1450 388 1819 388 
Q 2194 388 2461 705 
Q 2728 1022 2728 1688 
Q 2728 2322 2467 2637 
Q 2206 2953 1844 2953 
Q 1484 2953 1207 2617 
Q 931 2281 931 1641 
z
" transform="scale(0.015625)"/>
       <path id="ArialMT-72" d="M 416 0 
L 416 3319 
L 922 3319 
L 922 2816 
Q 1116 3169 1280 3281 
Q 1444 3394 1641 3394 
Q 1925 3394 2219 3213 
L 2025 2691 
Q 1819 2813 1613 2813 
Q 1428 2813 1281 2702 
Q 1134 2591 1072 2394 
Q 978 2094 978 1738 
L 978 0 
L 416 0 
z
" transform="scale(0.015625)"/>
       <path id="ArialMT-6f" d="M 213 1659 
Q 213 2581 725 3025 
Q 1153 3394 1769 3394 
Q 2453 3394 2887 2945 
Q 3322 2497 3322 1706 
Q 3322 1066 3130 698 
Q 2938 331 2570 128 
Q 2203 -75 1769 -75 
Q 1072 -75 642 372 
Q 213 819 213 1659 
z
M 791 1659 
Q 791 1022 1069 705 
Q 1347 388 1769 388 
Q 2188 388 2466 706 
Q 2744 1025 2744 1678 
Q 2744 2294 2464 2611 
Q 2184 2928 1769 2928 
Q 1347 2928 1069 2612 
Q 791 2297 791 1659 
z
" transform="scale(0.015625)"/>
       <path id="ArialMT-76" d="M 1344 0 
L 81 3319 
L 675 3319 
L 1388 1331 
Q 1503 1009 1600 663 
Q 1675 925 1809 1294 
L 2547 3319 
L 3125 3319 
L 1869 0 
L 1344 0 
z
" transform="scale(0.015625)"/>
       <path id="ArialMT-65" d="M 2694 1069 
L 3275 997 
Q 3138 488 2766 206 
Q 2394 -75 1816 -75 
Q 1088 -75 661 373 
Q 234 822 234 1631 
Q 234 2469 665 2931 
Q 1097 3394 1784 3394 
Q 2450 3394 2872 2941 
Q 3294 2488 3294 1666 
Q 3294 1616 3291 1516 
L 816 1516 
Q 847 969 1125 678 
Q 1403 388 1819 388 
Q 2128 388 2347 550 
Q 2566 713 2694 1069 
z
M 847 1978 
L 2700 1978 
Q 2663 2397 2488 2606 
Q 2219 2931 1791 2931 
Q 1403 2931 1139 2672 
Q 875 2413 847 1978 
z
" transform="scale(0.015625)"/>
       <path id="ArialMT-6e" d="M 422 0 
L 422 3319 
L 928 3319 
L 928 2847 
Q 1294 3394 1984 3394 
Q 2284 3394 2536 3286 
Q 2788 3178 2913 3003 
Q 3038 2828 3088 2588 
Q 3119 2431 3119 2041 
L 3119 0 
L 2556 0 
L 2556 2019 
Q 2556 2363 2490 2533 
Q 2425 2703 2258 2804 
Q 2091 2906 1866 2906 
Q 1506 2906 1245 2678 
Q 984 2450 984 1813 
L 984 0 
L 422 0 
z
" transform="scale(0.015625)"/>
       <path id="ArialMT-74" d="M 1650 503 
L 1731 6 
Q 1494 -44 1306 -44 
Q 1000 -44 831 53 
Q 663 150 594 308 
Q 525 466 525 972 
L 525 2881 
L 113 2881 
L 113 3319 
L 525 3319 
L 525 4141 
L 1084 4478 
L 1084 3319 
L 1650 3319 
L 1650 2881 
L 1084 2881 
L 1084 941 
Q 1084 700 1114 631 
Q 1144 563 1211 522 
Q 1278 481 1403 481 
Q 1497 481 1650 503 
z
" transform="scale(0.015625)"/>
      </defs>
      <use xlink:href="#ArialMT-49"/>
      <use xlink:href="#ArialMT-6d" x="27.783203"/>
      <use xlink:href="#ArialMT-70" x="111.083984"/>
      <use xlink:href="#ArialMT-72" x="166.699219"/>
      <use xlink:href="#ArialMT-6f" x="200"/>
      <use xlink:href="#ArialMT-76" x="255.615234"/>
      <use xlink:href="#ArialMT-65" x="305.615234"/>
      <use xlink:href="#ArialMT-6d" x="361.230469"/>
      <use xlink:href="#ArialMT-65" x="444.53125"/>
      <use xlink:href="#ArialMT-6e" x="500.146484"/>
      <use xlink:href="#ArialMT-74" x="555.761719"/>
     </g>
    </g>
   </g>
   <g id="line2d_16">
    <path d="M 141.72233 623.222109 
L 172.84216 459.23083 
L 203.96199 427.801506 
L 235.08182 407.790977 
L 266.201649 392.482512 
L 297.321479 381.307526 
L 328.441309 374.196185 
L 359.561139 367.833656 
L 390.680969 363.044376 
L 421.800799 359.538032 
L 452.920629 356.275497 
L 484.040459 353.912877 
L 515.160289 350.894152 
L 546.280118 350.290346 
L 577.399948 348.705507 
L 608.519778 348.630032 
L 639.639608 345.599718 
L 670.759438 345.355909 
" clip-path="url(#pcc7200dfb9)" style="fill: none; stroke-dasharray: 11.1,4.8; stroke-dashoffset: 0; stroke: #00ffff; stroke-width: 3"/>
   </g>
   <g id="line2d_17">
    <path d="M 141.72233 483.363249 
L 172.84216 267.825842 
L 203.96199 220.774409 
L 235.08182 195.157328 
L 266.201649 177.888933 
L 297.321479 166.66546 
L 328.441309 158.48343 
L 359.561139 153.067931 
L 390.680969 147.25828 
L 421.800799 143.199666 
L 452.920629 139.995073 
L 484.040459 136.329238 
L 515.160289 135.606348 
L 546.280118 133.098418 
L 577.399948 132.07576 
L 608.519778 130.346222 
L 639.639608 129.158736 
L 670.759438 128.161847 
" clip-path="url(#pcc7200dfb9)" style="fill: none; stroke-dasharray: 11.1,4.8; stroke-dashoffset: 0; stroke: #ffa500; stroke-width: 3"/>
   </g>
   <g id="line2d_18">
    <path d="M 141.72233 668.123778 
L 172.84216 500.28903 
L 203.96199 461.949634 
L 235.08182 440.684988 
L 266.201649 425.663636 
L 297.321479 411.737978 
L 328.441309 405.341751 
L 359.561139 399.913596 
L 390.680969 394.012154 
L 421.800799 388.493428 
L 452.920629 386.593116 
L 484.040459 382.928196 
L 515.160289 380.620316 
L 546.280118 380.202531 
L 577.399948 378.139374 
L 608.519778 377.630256 
L 639.639608 374.454328 
L 670.759438 374.220124 
" clip-path="url(#pcc7200dfb9)" style="fill: none; stroke-dasharray: 11.1,4.8; stroke-dashoffset: 0; stroke: #0000ff; stroke-width: 3"/>
   </g>
   <g id="line2d_19">
    <path d="M 141.72233 654.673999 
L 172.84216 474.403133 
L 203.96199 452.170568 
L 235.08182 431.602129 
L 266.201649 413.59087 
L 297.321479 405.759993 
L 328.441309 396.375079 
L 359.561139 387.491811 
L 390.680969 383.98013 
L 421.800799 383.453935 
L 452.920629 377.39712 
L 484.040459 376.93222 
L 515.160289 372.282608 
L 546.280118 371.279314 
L 577.399948 370.288219 
L 608.519778 370.9367 
L 639.639608 367.730887 
L 670.759438 367.437217 
" clip-path="url(#pcc7200dfb9)" style="fill: none; stroke-dasharray: 11.1,4.8; stroke-dashoffset: 0; stroke: #228b22; stroke-width: 3"/>
   </g>
   <g id="line2d_20">
    <path d="M 141.72233 484.749106 
L 172.84216 437.726491 
L 203.96199 426.754604 
L 235.08182 415.67827 
L 266.201649 404.288292 
L 297.321479 387.308077 
L 328.441309 385.636175 
L 359.561139 378.216985 
L 390.680969 372.626595 
L 421.800799 370.275411 
L 452.920629 366.670414 
L 484.040459 367.401843 
L 515.160289 363.535502 
L 546.280118 361.759153 
L 577.399948 362.438283 
L 608.519778 359.77376 
L 639.639608 360.452889 
L 670.759438 360.609635 
" clip-path="url(#pcc7200dfb9)" style="fill: none; stroke: #00ffff; stroke-width: 3; stroke-linecap: round"/>
   </g>
   <g id="line2d_21">
    <path d="M 141.72233 319.952447 
L 172.84216 268.059435 
L 203.96199 247.590868 
L 235.08182 208.063377 
L 266.201649 191.838225 
L 297.321479 183.441204 
L 328.441309 178.324405 
L 359.561139 169.860447 
L 390.680969 162.270483 
L 421.800799 160.936621 
L 452.920629 158.161858 
L 484.040459 157.787681 
L 515.160289 156.528227 
L 546.280118 153.598548 
L 577.399948 153.399567 
L 608.519778 153.670212 
L 639.639608 151.279384 
L 670.759438 153.07403 
" clip-path="url(#pcc7200dfb9)" style="fill: none; stroke: #ffa500; stroke-width: 3; stroke-linecap: round"/>
   </g>
   <g id="line2d_22">
    <path d="M 141.72233 544.986229 
L 172.84216 452.009706 
L 203.96199 480.775117 
L 235.08182 504.566142 
L 266.201649 429.775463 
L 297.321479 441.264855 
L 328.441309 445.775104 
L 359.561139 387.053594 
L 390.680969 350.113168 
L 421.800799 420.819922 
L 452.920629 378.034928 
L 484.040459 411.222456 
L 515.160289 402.941774 
L 546.280118 389.987543 
L 577.399948 374.499003 
L 608.519778 393.019991 
L 639.639608 392.745381 
L 670.759438 360.516929 
" clip-path="url(#pcc7200dfb9)" style="fill: none; stroke: #0000ff; stroke-width: 3; stroke-linecap: round"/>
   </g>
   <g id="line2d_23">
    <path d="M 141.72233 467.184144 
L 172.84216 505.722827 
L 203.96199 416.829923 
L 235.08182 331.58105 
L 266.201649 445.540595 
L 297.321479 373.542977 
L 328.441309 359.85015 
L 359.561139 443.332129 
L 390.680969 486.287896 
L 421.800799 361.175322 
L 452.920629 425.332762 
L 484.040459 370.230125 
L 515.160289 373.763763 
L 546.280118 391.211165 
L 577.399948 419.148935 
L 608.519778 380.278921 
L 639.639608 382.708326 
L 670.759438 436.596185 
" clip-path="url(#pcc7200dfb9)" style="fill: none; stroke: #228b22; stroke-width: 3; stroke-linecap: round"/>
   </g>
   <g id="patch_3">
    <path d="M 110.6025 695.121875 
L 110.6025 101.16375 
" style="fill: none; stroke: #ffffff; stroke-width: 2.5; stroke-linejoin: miter; stroke-linecap: square"/>
   </g>
   <g id="patch_4">
    <path d="M 697.211293 695.121875 
L 697.211293 101.16375 
" style="fill: none; stroke: #ffffff; stroke-width: 2.5; stroke-linejoin: miter; stroke-linecap: square"/>
   </g>
   <g id="patch_5">
    <path d="M 110.6025 695.121875 
L 697.211293 695.121875 
" style="fill: none; stroke: #ffffff; stroke-width: 2.5; stroke-linejoin: miter; stroke-linecap: square"/>
   </g>
   <g id="patch_6">
    <path d="M 110.6025 101.16375 
L 697.211293 101.16375 
" style="fill: none; stroke: #ffffff; stroke-width: 2.5; stroke-linejoin: miter; stroke-linecap: square"/>
   </g>
   <g id="text_17">
    <!-- Metrics -->
    <g style="fill: #262626" transform="translate(365.242522 95.16375) scale(0.24 -0.24)">
     <defs>
      <path id="ArialMT-4d" d="M 475 0 
L 475 4581 
L 1388 4581 
L 2472 1338 
Q 2622 884 2691 659 
Q 2769 909 2934 1394 
L 4031 4581 
L 4847 4581 
L 4847 0 
L 4263 0 
L 4263 3834 
L 2931 0 
L 2384 0 
L 1059 3900 
L 1059 0 
L 475 0 
z
" transform="scale(0.015625)"/>
      <path id="ArialMT-69" d="M 425 3934 
L 425 4581 
L 988 4581 
L 988 3934 
L 425 3934 
z
M 425 0 
L 425 3319 
L 988 3319 
L 988 0 
L 425 0 
z
" transform="scale(0.015625)"/>
      <path id="ArialMT-63" d="M 2588 1216 
L 3141 1144 
Q 3050 572 2676 248 
Q 2303 -75 1759 -75 
Q 1078 -75 664 370 
Q 250 816 250 1647 
Q 250 2184 428 2587 
Q 606 2991 970 3192 
Q 1334 3394 1763 3394 
Q 2303 3394 2647 3120 
Q 2991 2847 3088 2344 
L 2541 2259 
Q 2463 2594 2264 2762 
Q 2066 2931 1784 2931 
Q 1359 2931 1093 2626 
Q 828 2322 828 1663 
Q 828 994 1084 691 
Q 1341 388 1753 388 
Q 2084 388 2306 591 
Q 2528 794 2588 1216 
z
" transform="scale(0.015625)"/>
      <path id="ArialMT-73" d="M 197 991 
L 753 1078 
Q 800 744 1014 566 
Q 1228 388 1613 388 
Q 2000 388 2187 545 
Q 2375 703 2375 916 
Q 2375 1106 2209 1216 
Q 2094 1291 1634 1406 
Q 1016 1563 777 1677 
Q 538 1791 414 1992 
Q 291 2194 291 2438 
Q 291 2659 392 2848 
Q 494 3038 669 3163 
Q 800 3259 1026 3326 
Q 1253 3394 1513 3394 
Q 1903 3394 2198 3281 
Q 2494 3169 2634 2976 
Q 2775 2784 2828 2463 
L 2278 2388 
Q 2241 2644 2061 2787 
Q 1881 2931 1553 2931 
Q 1166 2931 1000 2803 
Q 834 2675 834 2503 
Q 834 2394 903 2306 
Q 972 2216 1119 2156 
Q 1203 2125 1616 2013 
Q 2213 1853 2448 1751 
Q 2684 1650 2818 1456 
Q 2953 1263 2953 975 
Q 2953 694 2789 445 
Q 2625 197 2315 61 
Q 2006 -75 1616 -75 
Q 969 -75 630 194 
Q 291 463 197 991 
z
" transform="scale(0.015625)"/>
     </defs>
     <use xlink:href="#ArialMT-4d"/>
     <use xlink:href="#ArialMT-65" x="83.300781"/>
     <use xlink:href="#ArialMT-74" x="138.916016"/>
     <use xlink:href="#ArialMT-72" x="166.699219"/>
     <use xlink:href="#ArialMT-69" x="200"/>
     <use xlink:href="#ArialMT-63" x="222.216797"/>
     <use xlink:href="#ArialMT-73" x="272.216797"/>
    </g>
   </g>
   <g id="legend_1">
    <g id="patch_7">
     <path d="M 527.460668 684.121875 
L 681.811293 684.121875 
Q 686.211293 684.121875 686.211293 679.721875 
L 686.211293 432.964375 
Q 686.211293 428.564375 681.811293 428.564375 
L 527.460668 428.564375 
Q 523.060668 428.564375 523.060668 432.964375 
L 523.060668 679.721875 
Q 523.060668 684.121875 527.460668 684.121875 
z
" style="fill: #eaeaf2; opacity: 0.8; stroke: #cccccc; stroke-width: 2; stroke-linejoin: miter"/>
    </g>
    <g id="line2d_24">
     <path d="M 531.860668 445.411562 
L 553.860668 445.411562 
L 575.860668 445.411562 
" style="fill: none; stroke-dasharray: 11.1,4.8; stroke-dashoffset: 0; stroke: #00ffff; stroke-width: 3"/>
    </g>
    <g id="text_18">
     <!-- ACC -->
     <g style="fill: #262626" transform="translate(593.460668 453.111562) scale(0.22 -0.22)">
      <defs>
       <path id="ArialMT-41" d="M -9 0 
L 1750 4581 
L 2403 4581 
L 4278 0 
L 3588 0 
L 3053 1388 
L 1138 1388 
L 634 0 
L -9 0 
z
M 1313 1881 
L 2866 1881 
L 2388 3150 
Q 2169 3728 2063 4100 
Q 1975 3659 1816 3225 
L 1313 1881 
z
" transform="scale(0.015625)"/>
       <path id="ArialMT-43" d="M 3763 1606 
L 4369 1453 
Q 4178 706 3683 314 
Q 3188 -78 2472 -78 
Q 1731 -78 1267 223 
Q 803 525 561 1097 
Q 319 1669 319 2325 
Q 319 3041 592 3573 
Q 866 4106 1370 4382 
Q 1875 4659 2481 4659 
Q 3169 4659 3637 4309 
Q 4106 3959 4291 3325 
L 3694 3184 
Q 3534 3684 3231 3912 
Q 2928 4141 2469 4141 
Q 1941 4141 1586 3887 
Q 1231 3634 1087 3207 
Q 944 2781 944 2328 
Q 944 1744 1114 1308 
Q 1284 872 1643 656 
Q 2003 441 2422 441 
Q 2931 441 3284 734 
Q 3638 1028 3763 1606 
z
" transform="scale(0.015625)"/>
      </defs>
      <use xlink:href="#ArialMT-41"/>
      <use xlink:href="#ArialMT-43" x="66.699219"/>
      <use xlink:href="#ArialMT-43" x="138.916016"/>
     </g>
    </g>
    <g id="line2d_25">
     <path d="M 531.860668 476.53125 
L 553.860668 476.53125 
L 575.860668 476.53125 
" style="fill: none; stroke-dasharray: 11.1,4.8; stroke-dashoffset: 0; stroke: #ffa500; stroke-width: 3"/>
    </g>
    <g id="text_19">
     <!-- AUC -->
     <g style="fill: #262626" transform="translate(593.460668 484.23125) scale(0.22 -0.22)">
      <defs>
       <path id="ArialMT-55" d="M 3500 4581 
L 4106 4581 
L 4106 1934 
Q 4106 1244 3950 837 
Q 3794 431 3386 176 
Q 2978 -78 2316 -78 
Q 1672 -78 1262 144 
Q 853 366 678 786 
Q 503 1206 503 1934 
L 503 4581 
L 1109 4581 
L 1109 1938 
Q 1109 1341 1220 1058 
Q 1331 775 1601 622 
Q 1872 469 2263 469 
Q 2931 469 3215 772 
Q 3500 1075 3500 1938 
L 3500 4581 
z
" transform="scale(0.015625)"/>
      </defs>
      <use xlink:href="#ArialMT-41"/>
      <use xlink:href="#ArialMT-55" x="66.699219"/>
      <use xlink:href="#ArialMT-43" x="138.916016"/>
     </g>
    </g>
    <g id="line2d_26">
     <path d="M 531.860668 507.650937 
L 553.860668 507.650937 
L 575.860668 507.650937 
" style="fill: none; stroke-dasharray: 11.1,4.8; stroke-dashoffset: 0; stroke: #0000ff; stroke-width: 3"/>
    </g>
    <g id="text_20">
     <!-- PRC -->
     <g style="fill: #262626" transform="translate(593.460668 515.350937) scale(0.22 -0.22)">
      <defs>
       <path id="ArialMT-50" d="M 494 0 
L 494 4581 
L 2222 4581 
Q 2678 4581 2919 4538 
Q 3256 4481 3484 4323 
Q 3713 4166 3852 3881 
Q 3991 3597 3991 3256 
Q 3991 2672 3619 2267 
Q 3247 1863 2275 1863 
L 1100 1863 
L 1100 0 
L 494 0 
z
M 1100 2403 
L 2284 2403 
Q 2872 2403 3119 2622 
Q 3366 2841 3366 3238 
Q 3366 3525 3220 3729 
Q 3075 3934 2838 4000 
Q 2684 4041 2272 4041 
L 1100 4041 
L 1100 2403 
z
" transform="scale(0.015625)"/>
       <path id="ArialMT-52" d="M 503 0 
L 503 4581 
L 2534 4581 
Q 3147 4581 3465 4457 
Q 3784 4334 3975 4021 
Q 4166 3709 4166 3331 
Q 4166 2844 3850 2509 
Q 3534 2175 2875 2084 
Q 3116 1969 3241 1856 
Q 3506 1613 3744 1247 
L 4541 0 
L 3778 0 
L 3172 953 
Q 2906 1366 2734 1584 
Q 2563 1803 2427 1890 
Q 2291 1978 2150 2013 
Q 2047 2034 1813 2034 
L 1109 2034 
L 1109 0 
L 503 0 
z
M 1109 2559 
L 2413 2559 
Q 2828 2559 3062 2645 
Q 3297 2731 3419 2920 
Q 3541 3109 3541 3331 
Q 3541 3656 3305 3865 
Q 3069 4075 2559 4075 
L 1109 4075 
L 1109 2559 
z
" transform="scale(0.015625)"/>
      </defs>
      <use xlink:href="#ArialMT-50"/>
      <use xlink:href="#ArialMT-52" x="66.699219"/>
      <use xlink:href="#ArialMT-43" x="138.916016"/>
     </g>
    </g>
    <g id="line2d_27">
     <path d="M 531.860668 538.770625 
L 553.860668 538.770625 
L 575.860668 538.770625 
" style="fill: none; stroke-dasharray: 11.1,4.8; stroke-dashoffset: 0; stroke: #228b22; stroke-width: 3"/>
    </g>
    <g id="text_21">
     <!-- SNS -->
     <g style="fill: #262626" transform="translate(593.460668 546.470625) scale(0.22 -0.22)">
      <defs>
       <path id="ArialMT-53" d="M 288 1472 
L 859 1522 
Q 900 1178 1048 958 
Q 1197 738 1509 602 
Q 1822 466 2213 466 
Q 2559 466 2825 569 
Q 3091 672 3220 851 
Q 3350 1031 3350 1244 
Q 3350 1459 3225 1620 
Q 3100 1781 2813 1891 
Q 2628 1963 1997 2114 
Q 1366 2266 1113 2400 
Q 784 2572 623 2826 
Q 463 3081 463 3397 
Q 463 3744 659 4045 
Q 856 4347 1234 4503 
Q 1613 4659 2075 4659 
Q 2584 4659 2973 4495 
Q 3363 4331 3572 4012 
Q 3781 3694 3797 3291 
L 3216 3247 
Q 3169 3681 2898 3903 
Q 2628 4125 2100 4125 
Q 1550 4125 1298 3923 
Q 1047 3722 1047 3438 
Q 1047 3191 1225 3031 
Q 1400 2872 2139 2705 
Q 2878 2538 3153 2413 
Q 3553 2228 3743 1945 
Q 3934 1663 3934 1294 
Q 3934 928 3725 604 
Q 3516 281 3123 101 
Q 2731 -78 2241 -78 
Q 1619 -78 1198 103 
Q 778 284 539 648 
Q 300 1013 288 1472 
z
" transform="scale(0.015625)"/>
       <path id="ArialMT-4e" d="M 488 0 
L 488 4581 
L 1109 4581 
L 3516 984 
L 3516 4581 
L 4097 4581 
L 4097 0 
L 3475 0 
L 1069 3600 
L 1069 0 
L 488 0 
z
" transform="scale(0.015625)"/>
      </defs>
      <use xlink:href="#ArialMT-53"/>
      <use xlink:href="#ArialMT-4e" x="66.699219"/>
      <use xlink:href="#ArialMT-53" x="138.916016"/>
     </g>
    </g>
    <g id="line2d_28">
     <path d="M 531.860668 569.890312 
L 553.860668 569.890312 
L 575.860668 569.890312 
" style="fill: none; stroke: #00ffff; stroke-width: 3; stroke-linecap: round"/>
    </g>
    <g id="text_22">
     <!-- Val-ACC -->
     <g style="fill: #262626" transform="translate(593.460668 577.590312) scale(0.22 -0.22)">
      <defs>
       <path id="ArialMT-56" d="M 1803 0 
L 28 4581 
L 684 4581 
L 1875 1253 
Q 2019 853 2116 503 
Q 2222 878 2363 1253 
L 3600 4581 
L 4219 4581 
L 2425 0 
L 1803 0 
z
" transform="scale(0.015625)"/>
       <path id="ArialMT-61" d="M 2588 409 
Q 2275 144 1986 34 
Q 1697 -75 1366 -75 
Q 819 -75 525 192 
Q 231 459 231 875 
Q 231 1119 342 1320 
Q 453 1522 633 1644 
Q 813 1766 1038 1828 
Q 1203 1872 1538 1913 
Q 2219 1994 2541 2106 
Q 2544 2222 2544 2253 
Q 2544 2597 2384 2738 
Q 2169 2928 1744 2928 
Q 1347 2928 1158 2789 
Q 969 2650 878 2297 
L 328 2372 
Q 403 2725 575 2942 
Q 747 3159 1072 3276 
Q 1397 3394 1825 3394 
Q 2250 3394 2515 3294 
Q 2781 3194 2906 3042 
Q 3031 2891 3081 2659 
Q 3109 2516 3109 2141 
L 3109 1391 
Q 3109 606 3145 398 
Q 3181 191 3288 0 
L 2700 0 
Q 2613 175 2588 409 
z
M 2541 1666 
Q 2234 1541 1622 1453 
Q 1275 1403 1131 1340 
Q 988 1278 909 1158 
Q 831 1038 831 891 
Q 831 666 1001 516 
Q 1172 366 1500 366 
Q 1825 366 2078 508 
Q 2331 650 2450 897 
Q 2541 1088 2541 1459 
L 2541 1666 
z
" transform="scale(0.015625)"/>
       <path id="ArialMT-6c" d="M 409 0 
L 409 4581 
L 972 4581 
L 972 0 
L 409 0 
z
" transform="scale(0.015625)"/>
       <path id="ArialMT-2d" d="M 203 1375 
L 203 1941 
L 1931 1941 
L 1931 1375 
L 203 1375 
z
" transform="scale(0.015625)"/>
      </defs>
      <use xlink:href="#ArialMT-56"/>
      <use xlink:href="#ArialMT-61" x="59.324219"/>
      <use xlink:href="#ArialMT-6c" x="114.939453"/>
      <use xlink:href="#ArialMT-2d" x="137.15625"/>
      <use xlink:href="#ArialMT-41" x="170.457031"/>
      <use xlink:href="#ArialMT-43" x="237.15625"/>
      <use xlink:href="#ArialMT-43" x="309.373047"/>
     </g>
    </g>
    <g id="line2d_29">
     <path d="M 531.860668 601.01 
L 553.860668 601.01 
L 575.860668 601.01 
" style="fill: none; stroke: #ffa500; stroke-width: 3; stroke-linecap: round"/>
    </g>
    <g id="text_23">
     <!-- Val-AUC -->
     <g style="fill: #262626" transform="translate(593.460668 608.71) scale(0.22 -0.22)">
      <use xlink:href="#ArialMT-56"/>
      <use xlink:href="#ArialMT-61" x="59.324219"/>
      <use xlink:href="#ArialMT-6c" x="114.939453"/>
      <use xlink:href="#ArialMT-2d" x="137.15625"/>
      <use xlink:href="#ArialMT-41" x="170.457031"/>
      <use xlink:href="#ArialMT-55" x="237.15625"/>
      <use xlink:href="#ArialMT-43" x="309.373047"/>
     </g>
    </g>
    <g id="line2d_30">
     <path d="M 531.860668 632.129687 
L 553.860668 632.129687 
L 575.860668 632.129687 
" style="fill: none; stroke: #0000ff; stroke-width: 3; stroke-linecap: round"/>
    </g>
    <g id="text_24">
     <!-- Val-PRC -->
     <g style="fill: #262626" transform="translate(593.460668 639.829687) scale(0.22 -0.22)">
      <use xlink:href="#ArialMT-56"/>
      <use xlink:href="#ArialMT-61" x="59.324219"/>
      <use xlink:href="#ArialMT-6c" x="114.939453"/>
      <use xlink:href="#ArialMT-2d" x="137.15625"/>
      <use xlink:href="#ArialMT-50" x="170.457031"/>
      <use xlink:href="#ArialMT-52" x="237.15625"/>
      <use xlink:href="#ArialMT-43" x="309.373047"/>
     </g>
    </g>
    <g id="line2d_31">
     <path d="M 531.860668 663.249375 
L 553.860668 663.249375 
L 575.860668 663.249375 
" style="fill: none; stroke: #228b22; stroke-width: 3; stroke-linecap: round"/>
    </g>
    <g id="text_25">
     <!-- Val-SNS -->
     <g style="fill: #262626" transform="translate(593.460668 670.949375) scale(0.22 -0.22)">
      <use xlink:href="#ArialMT-56"/>
      <use xlink:href="#ArialMT-61" x="59.324219"/>
      <use xlink:href="#ArialMT-6c" x="114.939453"/>
      <use xlink:href="#ArialMT-2d" x="137.15625"/>
      <use xlink:href="#ArialMT-53" x="170.457031"/>
      <use xlink:href="#ArialMT-4e" x="237.15625"/>
      <use xlink:href="#ArialMT-53" x="309.373047"/>
     </g>
    </g>
   </g>
  </g>
  <g id="axes_2">
   <g id="patch_8">
    <path d="M 827.471207 695.121875 
L 1414.08 695.121875 
L 1414.08 101.16375 
L 827.471207 101.16375 
z
" style="fill: #eaeaf2"/>
   </g>
   <g id="matplotlib.axis_3">
    <g id="xtick_11">
     <g id="line2d_32">
      <path d="M 827.471207 695.121875 
L 827.471207 101.16375 
" clip-path="url(#pe30f1f5474)" style="fill: none; stroke: #ffffff; stroke-width: 2; stroke-linecap: round"/>
     </g>
     <g id="text_26">
      <!-- 0 -->
      <g style="fill: #262626" transform="translate(821.354175 726.369062) scale(0.22 -0.22)">
       <use xlink:href="#ArialMT-30"/>
      </g>
     </g>
    </g>
    <g id="xtick_12">
     <g id="line2d_33">
      <path d="M 889.710866 695.121875 
L 889.710866 101.16375 
" clip-path="url(#pe30f1f5474)" style="fill: none; stroke: #ffffff; stroke-width: 2; stroke-linecap: round"/>
     </g>
     <g id="text_27">
      <!-- 2 -->
      <g style="fill: #262626" transform="translate(883.593835 726.369062) scale(0.22 -0.22)">
       <use xlink:href="#ArialMT-32"/>
      </g>
     </g>
    </g>
    <g id="xtick_13">
     <g id="line2d_34">
      <path d="M 951.950526 695.121875 
L 951.950526 101.16375 
" clip-path="url(#pe30f1f5474)" style="fill: none; stroke: #ffffff; stroke-width: 2; stroke-linecap: round"/>
     </g>
     <g id="text_28">
      <!-- 4 -->
      <g style="fill: #262626" transform="translate(945.833495 726.369062) scale(0.22 -0.22)">
       <use xlink:href="#ArialMT-34"/>
      </g>
     </g>
    </g>
    <g id="xtick_14">
     <g id="line2d_35">
      <path d="M 1014.190186 695.121875 
L 1014.190186 101.16375 
" clip-path="url(#pe30f1f5474)" style="fill: none; stroke: #ffffff; stroke-width: 2; stroke-linecap: round"/>
     </g>
     <g id="text_29">
      <!-- 6 -->
      <g style="fill: #262626" transform="translate(1008.073155 726.369062) scale(0.22 -0.22)">
       <use xlink:href="#ArialMT-36"/>
      </g>
     </g>
    </g>
    <g id="xtick_15">
     <g id="line2d_36">
      <path d="M 1076.429846 695.121875 
L 1076.429846 101.16375 
" clip-path="url(#pe30f1f5474)" style="fill: none; stroke: #ffffff; stroke-width: 2; stroke-linecap: round"/>
     </g>
     <g id="text_30">
      <!-- 8 -->
      <g style="fill: #262626" transform="translate(1070.312814 726.369062) scale(0.22 -0.22)">
       <use xlink:href="#ArialMT-38"/>
      </g>
     </g>
    </g>
    <g id="xtick_16">
     <g id="line2d_37">
      <path d="M 1138.669506 695.121875 
L 1138.669506 101.16375 
" clip-path="url(#pe30f1f5474)" style="fill: none; stroke: #ffffff; stroke-width: 2; stroke-linecap: round"/>
     </g>
     <g id="text_31">
      <!-- 10 -->
      <g style="fill: #262626" transform="translate(1126.435443 726.369062) scale(0.22 -0.22)">
       <use xlink:href="#ArialMT-31"/>
       <use xlink:href="#ArialMT-30" x="55.615234"/>
      </g>
     </g>
    </g>
    <g id="xtick_17">
     <g id="line2d_38">
      <path d="M 1200.909165 695.121875 
L 1200.909165 101.16375 
" clip-path="url(#pe30f1f5474)" style="fill: none; stroke: #ffffff; stroke-width: 2; stroke-linecap: round"/>
     </g>
     <g id="text_32">
      <!-- 12 -->
      <g style="fill: #262626" transform="translate(1188.675103 726.369062) scale(0.22 -0.22)">
       <use xlink:href="#ArialMT-31"/>
       <use xlink:href="#ArialMT-32" x="55.615234"/>
      </g>
     </g>
    </g>
    <g id="xtick_18">
     <g id="line2d_39">
      <path d="M 1263.148825 695.121875 
L 1263.148825 101.16375 
" clip-path="url(#pe30f1f5474)" style="fill: none; stroke: #ffffff; stroke-width: 2; stroke-linecap: round"/>
     </g>
     <g id="text_33">
      <!-- 14 -->
      <g style="fill: #262626" transform="translate(1250.914763 726.369062) scale(0.22 -0.22)">
       <use xlink:href="#ArialMT-31"/>
       <use xlink:href="#ArialMT-34" x="55.615234"/>
      </g>
     </g>
    </g>
    <g id="xtick_19">
     <g id="line2d_40">
      <path d="M 1325.388485 695.121875 
L 1325.388485 101.16375 
" clip-path="url(#pe30f1f5474)" style="fill: none; stroke: #ffffff; stroke-width: 2; stroke-linecap: round"/>
     </g>
     <g id="text_34">
      <!-- 16 -->
      <g style="fill: #262626" transform="translate(1313.154422 726.369062) scale(0.22 -0.22)">
       <use xlink:href="#ArialMT-31"/>
       <use xlink:href="#ArialMT-36" x="55.615234"/>
      </g>
     </g>
    </g>
    <g id="xtick_20">
     <g id="line2d_41">
      <path d="M 1387.628145 695.121875 
L 1387.628145 101.16375 
" clip-path="url(#pe30f1f5474)" style="fill: none; stroke: #ffffff; stroke-width: 2; stroke-linecap: round"/>
     </g>
     <g id="text_35">
      <!-- 18 -->
      <g style="fill: #262626" transform="translate(1375.394082 726.369062) scale(0.22 -0.22)">
       <use xlink:href="#ArialMT-31"/>
       <use xlink:href="#ArialMT-38" x="55.615234"/>
      </g>
     </g>
    </g>
   </g>
   <g id="matplotlib.axis_4">
    <g id="ytick_6">
     <g id="text_36">
      <!-- $\mathdefault{1.4\times10^{-1}}$ -->
      <g style="fill: #262626" transform="translate(720.371207 674.910301) scale(0.22 -0.22)">
       <defs>
        <path id="ArialMT-d7" d="M 503 1278 
L 1488 2263 
L 506 3244 
L 888 3625 
L 1869 2644 
L 2847 3622 
L 3222 3244 
L 2247 2266 
L 3228 1284 
L 2847 903 
L 1866 1884 
L 881 900 
L 503 1278 
z
" transform="scale(0.015625)"/>
        <path id="ArialMT-2212" d="M 3381 1997 
L 356 1997 
L 356 2522 
L 3381 2522 
L 3381 1997 
z
" transform="scale(0.015625)"/>
       </defs>
       <use xlink:href="#ArialMT-31" transform="translate(0 0.99375)"/>
       <use xlink:href="#ArialMT-2e" transform="translate(55.615234 0.99375)"/>
       <use xlink:href="#ArialMT-34" transform="translate(83.398438 0.99375)"/>
       <use xlink:href="#ArialMT-d7" transform="translate(158.496094 0.99375)"/>
       <use xlink:href="#ArialMT-31" transform="translate(236.376953 0.99375)"/>
       <use xlink:href="#ArialMT-30" transform="translate(291.992188 0.99375)"/>
       <use xlink:href="#ArialMT-2212" transform="translate(349.349766 70.6875) scale(0.7)"/>
       <use xlink:href="#ArialMT-31" transform="translate(390.228672 70.6875) scale(0.7)"/>
      </g>
     </g>
    </g>
    <g id="ytick_7">
     <g id="text_37">
      <!-- $\mathdefault{1.5\times10^{-1}}$ -->
      <g style="fill: #262626" transform="translate(720.371207 569.438593) scale(0.22 -0.22)">
       <use xlink:href="#ArialMT-31" transform="translate(0 0.99375)"/>
       <use xlink:href="#ArialMT-2e" transform="translate(55.615234 0.99375)"/>
       <use xlink:href="#ArialMT-35" transform="translate(83.398438 0.99375)"/>
       <use xlink:href="#ArialMT-d7" transform="translate(158.496094 0.99375)"/>
       <use xlink:href="#ArialMT-31" transform="translate(236.376953 0.99375)"/>
       <use xlink:href="#ArialMT-30" transform="translate(291.992188 0.99375)"/>
       <use xlink:href="#ArialMT-2212" transform="translate(349.349766 70.6875) scale(0.7)"/>
       <use xlink:href="#ArialMT-31" transform="translate(390.228672 70.6875) scale(0.7)"/>
      </g>
     </g>
    </g>
    <g id="ytick_8">
     <g id="text_38">
      <!-- $\mathdefault{1.6\times10^{-1}}$ -->
      <g style="fill: #262626" transform="translate(720.371207 470.7764) scale(0.22 -0.22)">
       <use xlink:href="#ArialMT-31" transform="translate(0 0.99375)"/>
       <use xlink:href="#ArialMT-2e" transform="translate(55.615234 0.99375)"/>
       <use xlink:href="#ArialMT-36" transform="translate(83.398438 0.99375)"/>
       <use xlink:href="#ArialMT-d7" transform="translate(158.496094 0.99375)"/>
       <use xlink:href="#ArialMT-31" transform="translate(236.376953 0.99375)"/>
       <use xlink:href="#ArialMT-30" transform="translate(291.992188 0.99375)"/>
       <use xlink:href="#ArialMT-2212" transform="translate(349.349766 70.6875) scale(0.7)"/>
       <use xlink:href="#ArialMT-31" transform="translate(390.228672 70.6875) scale(0.7)"/>
      </g>
     </g>
    </g>
    <g id="ytick_9">
     <g id="text_39">
      <!-- $\mathdefault{1.7\times10^{-1}}$ -->
      <g style="fill: #262626" transform="translate(720.371207 378.097515) scale(0.22 -0.22)">
       <use xlink:href="#ArialMT-31" transform="translate(0 0.99375)"/>
       <use xlink:href="#ArialMT-2e" transform="translate(55.615234 0.99375)"/>
       <use xlink:href="#ArialMT-37" transform="translate(83.398438 0.99375)"/>
       <use xlink:href="#ArialMT-d7" transform="translate(158.496094 0.99375)"/>
       <use xlink:href="#ArialMT-31" transform="translate(236.376953 0.99375)"/>
       <use xlink:href="#ArialMT-30" transform="translate(291.992188 0.99375)"/>
       <use xlink:href="#ArialMT-2212" transform="translate(349.349766 70.6875) scale(0.7)"/>
       <use xlink:href="#ArialMT-31" transform="translate(390.228672 70.6875) scale(0.7)"/>
      </g>
     </g>
    </g>
    <g id="ytick_10">
     <g id="text_40">
      <!-- $\mathdefault{1.8\times10^{-1}}$ -->
      <g style="fill: #262626" transform="translate(720.371207 290.717538) scale(0.22 -0.22)">
       <use xlink:href="#ArialMT-31" transform="translate(0 0.99375)"/>
       <use xlink:href="#ArialMT-2e" transform="translate(55.615234 0.99375)"/>
       <use xlink:href="#ArialMT-38" transform="translate(83.398438 0.99375)"/>
       <use xlink:href="#ArialMT-d7" transform="translate(158.496094 0.99375)"/>
       <use xlink:href="#ArialMT-31" transform="translate(236.376953 0.99375)"/>
       <use xlink:href="#ArialMT-30" transform="translate(291.992188 0.99375)"/>
       <use xlink:href="#ArialMT-2212" transform="translate(349.349766 70.6875) scale(0.7)"/>
       <use xlink:href="#ArialMT-31" transform="translate(390.228672 70.6875) scale(0.7)"/>
      </g>
     </g>
    </g>
    <g id="ytick_11">
     <g id="text_41">
      <!-- $\mathdefault{1.9\times10^{-1}}$ -->
      <g style="fill: #262626" transform="translate(720.371207 208.063171) scale(0.22 -0.22)">
       <use xlink:href="#ArialMT-31" transform="translate(0 0.99375)"/>
       <use xlink:href="#ArialMT-2e" transform="translate(55.615234 0.99375)"/>
       <use xlink:href="#ArialMT-39" transform="translate(83.398438 0.99375)"/>
       <use xlink:href="#ArialMT-d7" transform="translate(158.496094 0.99375)"/>
       <use xlink:href="#ArialMT-31" transform="translate(236.376953 0.99375)"/>
       <use xlink:href="#ArialMT-30" transform="translate(291.992188 0.99375)"/>
       <use xlink:href="#ArialMT-2212" transform="translate(349.349766 70.6875) scale(0.7)"/>
       <use xlink:href="#ArialMT-31" transform="translate(390.228672 70.6875) scale(0.7)"/>
      </g>
     </g>
    </g>
    <g id="ytick_12">
     <g id="text_42">
      <!-- $\mathdefault{2\times10^{-1}}$ -->
      <g style="fill: #262626" transform="translate(738.851207 129.649398) scale(0.22 -0.22)">
       <use xlink:href="#ArialMT-32" transform="translate(0 0.99375)"/>
       <use xlink:href="#ArialMT-d7" transform="translate(75.097656 0.99375)"/>
       <use xlink:href="#ArialMT-31" transform="translate(152.978516 0.99375)"/>
       <use xlink:href="#ArialMT-30" transform="translate(208.59375 0.99375)"/>
       <use xlink:href="#ArialMT-2212" transform="translate(265.951328 70.6875) scale(0.7)"/>
       <use xlink:href="#ArialMT-31" transform="translate(306.830234 70.6875) scale(0.7)"/>
      </g>
     </g>
    </g>
   </g>
   <g id="line2d_42">
    <path d="M 858.591037 128.161847 
L 889.710866 391.505906 
L 920.830696 464.882512 
L 951.950526 514.473588 
L 983.070356 550.107637 
L 1014.190186 574.171883 
L 1045.310016 593.927381 
L 1076.429846 606.793309 
L 1107.549676 620.584543 
L 1138.669506 630.114718 
L 1169.789335 638.473445 
L 1200.909165 646.393753 
L 1232.028995 649.285052 
L 1263.148825 655.785241 
L 1294.268655 658.442179 
L 1325.388485 662.71774 
L 1356.508315 664.890467 
L 1387.628145 668.123778 
" clip-path="url(#pe30f1f5474)" style="fill: none; stroke-dasharray: 11.1,4.8; stroke-dashoffset: 0; stroke: #ff0000; stroke-width: 3"/>
   </g>
   <g id="line2d_43">
    <path d="M 858.591037 323.757993 
L 889.710866 400.169138 
L 920.830696 397.893861 
L 951.950526 471.161087 
L 983.070356 498.101313 
L 1014.190186 536.829957 
L 1045.310016 508.298352 
L 1076.429846 555.890367 
L 1107.549676 552.275735 
L 1138.669506 563.233138 
L 1169.789335 564.762552 
L 1200.909165 569.828522 
L 1232.028995 574.595063 
L 1263.148825 585.235839 
L 1294.268655 576.982227 
L 1325.388485 587.14803 
L 1356.508315 589.546831 
L 1387.628145 574.438487 
" clip-path="url(#pe30f1f5474)" style="fill: none; stroke: #ff0000; stroke-width: 3; stroke-linecap: round"/>
   </g>
   <g id="patch_9">
    <path d="M 827.471207 695.121875 
L 827.471207 101.16375 
" style="fill: none; stroke: #ffffff; stroke-width: 2.5; stroke-linejoin: miter; stroke-linecap: square"/>
   </g>
   <g id="patch_10">
    <path d="M 1414.08 695.121875 
L 1414.08 101.16375 
" style="fill: none; stroke: #ffffff; stroke-width: 2.5; stroke-linejoin: miter; stroke-linecap: square"/>
   </g>
   <g id="patch_11">
    <path d="M 827.471207 695.121875 
L 1414.08 695.121875 
" style="fill: none; stroke: #ffffff; stroke-width: 2.5; stroke-linejoin: miter; stroke-linecap: square"/>
   </g>
   <g id="patch_12">
    <path d="M 827.471207 101.16375 
L 1414.08 101.16375 
" style="fill: none; stroke: #ffffff; stroke-width: 2.5; stroke-linejoin: miter; stroke-linecap: square"/>
   </g>
   <g id="text_43">
    <!-- Loss -->
    <g style="fill: #262626" transform="translate(1095.429353 95.16375) scale(0.24 -0.24)">
     <defs>
      <path id="ArialMT-4c" d="M 469 0 
L 469 4581 
L 1075 4581 
L 1075 541 
L 3331 541 
L 3331 0 
L 469 0 
z
" transform="scale(0.015625)"/>
     </defs>
     <use xlink:href="#ArialMT-4c"/>
     <use xlink:href="#ArialMT-6f" x="55.615234"/>
     <use xlink:href="#ArialMT-73" x="111.230469"/>
     <use xlink:href="#ArialMT-73" x="161.230469"/>
    </g>
   </g>
   <g id="legend_2">
    <g id="patch_13">
     <path d="M 1244.312187 181.003125 
L 1398.68 181.003125 
Q 1403.08 181.003125 1403.08 176.603125 
L 1403.08 116.56375 
Q 1403.08 112.16375 1398.68 112.16375 
L 1244.312187 112.16375 
Q 1239.912187 112.16375 1239.912187 116.56375 
L 1239.912187 176.603125 
Q 1239.912187 181.003125 1244.312187 181.003125 
z
" style="fill: #eaeaf2; opacity: 0.8; stroke: #cccccc; stroke-width: 2; stroke-linejoin: miter"/>
    </g>
    <g id="line2d_44">
     <path d="M 1248.712187 129.010938 
L 1270.712187 129.010938 
L 1292.712187 129.010938 
" style="fill: none; stroke-dasharray: 11.1,4.8; stroke-dashoffset: 0; stroke: #ff0000; stroke-width: 3"/>
    </g>
    <g id="text_44">
     <!-- Loss -->
     <g style="fill: #262626" transform="translate(1310.312187 136.710938) scale(0.22 -0.22)">
      <use xlink:href="#ArialMT-4c"/>
      <use xlink:href="#ArialMT-6f" x="55.615234"/>
      <use xlink:href="#ArialMT-73" x="111.230469"/>
      <use xlink:href="#ArialMT-73" x="161.230469"/>
     </g>
    </g>
    <g id="line2d_45">
     <path d="M 1248.712187 160.130625 
L 1270.712187 160.130625 
L 1292.712187 160.130625 
" style="fill: none; stroke: #ff0000; stroke-width: 3; stroke-linecap: round"/>
    </g>
    <g id="text_45">
     <!-- Val-Loss -->
     <g style="fill: #262626" transform="translate(1310.312187 167.830625) scale(0.22 -0.22)">
      <use xlink:href="#ArialMT-56"/>
      <use xlink:href="#ArialMT-61" x="59.324219"/>
      <use xlink:href="#ArialMT-6c" x="114.939453"/>
      <use xlink:href="#ArialMT-2d" x="137.15625"/>
      <use xlink:href="#ArialMT-4c" x="170.457031"/>
      <use xlink:href="#ArialMT-6f" x="226.072266"/>
      <use xlink:href="#ArialMT-73" x="281.6875"/>
      <use xlink:href="#ArialMT-73" x="331.6875"/>
     </g>
    </g>
   </g>
  </g>
  <g id="axes_3">
   <g id="patch_14">
    <path d="M 110.6025 1351.38 
L 697.211293 1351.38 
L 697.211293 757.421875 
L 110.6025 757.421875 
z
" style="fill: #eaeaf2"/>
   </g>
   <g id="matplotlib.axis_5">
    <g id="xtick_21">
     <g id="line2d_46">
      <path d="M 110.6025 1351.38 
L 110.6025 757.421875 
" clip-path="url(#pb69c969ab7)" style="fill: none; stroke: #ffffff; stroke-width: 2; stroke-linecap: round"/>
     </g>
     <g id="text_46">
      <!-- 0 -->
      <g style="fill: #262626" transform="translate(104.485469 1382.627187) scale(0.22 -0.22)">
       <use xlink:href="#ArialMT-30"/>
      </g>
     </g>
    </g>
    <g id="xtick_22">
     <g id="line2d_47">
      <path d="M 172.84216 1351.38 
L 172.84216 757.421875 
" clip-path="url(#pb69c969ab7)" style="fill: none; stroke: #ffffff; stroke-width: 2; stroke-linecap: round"/>
     </g>
     <g id="text_47">
      <!-- 2 -->
      <g style="fill: #262626" transform="translate(166.725129 1382.627187) scale(0.22 -0.22)">
       <use xlink:href="#ArialMT-32"/>
      </g>
     </g>
    </g>
    <g id="xtick_23">
     <g id="line2d_48">
      <path d="M 235.08182 1351.38 
L 235.08182 757.421875 
" clip-path="url(#pb69c969ab7)" style="fill: none; stroke: #ffffff; stroke-width: 2; stroke-linecap: round"/>
     </g>
     <g id="text_48">
      <!-- 4 -->
      <g style="fill: #262626" transform="translate(228.964788 1382.627187) scale(0.22 -0.22)">
       <use xlink:href="#ArialMT-34"/>
      </g>
     </g>
    </g>
    <g id="xtick_24">
     <g id="line2d_49">
      <path d="M 297.321479 1351.38 
L 297.321479 757.421875 
" clip-path="url(#pb69c969ab7)" style="fill: none; stroke: #ffffff; stroke-width: 2; stroke-linecap: round"/>
     </g>
     <g id="text_49">
      <!-- 6 -->
      <g style="fill: #262626" transform="translate(291.204448 1382.627187) scale(0.22 -0.22)">
       <use xlink:href="#ArialMT-36"/>
      </g>
     </g>
    </g>
    <g id="xtick_25">
     <g id="line2d_50">
      <path d="M 359.561139 1351.38 
L 359.561139 757.421875 
" clip-path="url(#pb69c969ab7)" style="fill: none; stroke: #ffffff; stroke-width: 2; stroke-linecap: round"/>
     </g>
     <g id="text_50">
      <!-- 8 -->
      <g style="fill: #262626" transform="translate(353.444108 1382.627187) scale(0.22 -0.22)">
       <use xlink:href="#ArialMT-38"/>
      </g>
     </g>
    </g>
    <g id="xtick_26">
     <g id="line2d_51">
      <path d="M 421.800799 1351.38 
L 421.800799 757.421875 
" clip-path="url(#pb69c969ab7)" style="fill: none; stroke: #ffffff; stroke-width: 2; stroke-linecap: round"/>
     </g>
     <g id="text_51">
      <!-- 10 -->
      <g style="fill: #262626" transform="translate(409.566736 1382.627187) scale(0.22 -0.22)">
       <use xlink:href="#ArialMT-31"/>
       <use xlink:href="#ArialMT-30" x="55.615234"/>
      </g>
     </g>
    </g>
    <g id="xtick_27">
     <g id="line2d_52">
      <path d="M 484.040459 1351.38 
L 484.040459 757.421875 
" clip-path="url(#pb69c969ab7)" style="fill: none; stroke: #ffffff; stroke-width: 2; stroke-linecap: round"/>
     </g>
     <g id="text_52">
      <!-- 12 -->
      <g style="fill: #262626" transform="translate(471.806396 1382.627187) scale(0.22 -0.22)">
       <use xlink:href="#ArialMT-31"/>
       <use xlink:href="#ArialMT-32" x="55.615234"/>
      </g>
     </g>
    </g>
    <g id="xtick_28">
     <g id="line2d_53">
      <path d="M 546.280118 1351.38 
L 546.280118 757.421875 
" clip-path="url(#pb69c969ab7)" style="fill: none; stroke: #ffffff; stroke-width: 2; stroke-linecap: round"/>
     </g>
     <g id="text_53">
      <!-- 14 -->
      <g style="fill: #262626" transform="translate(534.046056 1382.627187) scale(0.22 -0.22)">
       <use xlink:href="#ArialMT-31"/>
       <use xlink:href="#ArialMT-34" x="55.615234"/>
      </g>
     </g>
    </g>
    <g id="xtick_29">
     <g id="line2d_54">
      <path d="M 608.519778 1351.38 
L 608.519778 757.421875 
" clip-path="url(#pb69c969ab7)" style="fill: none; stroke: #ffffff; stroke-width: 2; stroke-linecap: round"/>
     </g>
     <g id="text_54">
      <!-- 16 -->
      <g style="fill: #262626" transform="translate(596.285716 1382.627187) scale(0.22 -0.22)">
       <use xlink:href="#ArialMT-31"/>
       <use xlink:href="#ArialMT-36" x="55.615234"/>
      </g>
     </g>
    </g>
    <g id="xtick_30">
     <g id="line2d_55">
      <path d="M 670.759438 1351.38 
L 670.759438 757.421875 
" clip-path="url(#pb69c969ab7)" style="fill: none; stroke: #ffffff; stroke-width: 2; stroke-linecap: round"/>
     </g>
     <g id="text_55">
      <!-- 18 -->
      <g style="fill: #262626" transform="translate(658.525375 1382.627187) scale(0.22 -0.22)">
       <use xlink:href="#ArialMT-31"/>
       <use xlink:href="#ArialMT-38" x="55.615234"/>
      </g>
     </g>
    </g>
    <g id="text_56">
     <!-- Epoch -->
     <g style="fill: #262626" transform="translate(369.883147 1408.178437) scale(0.24 -0.24)">
      <defs>
       <path id="ArialMT-45" d="M 506 0 
L 506 4581 
L 3819 4581 
L 3819 4041 
L 1113 4041 
L 1113 2638 
L 3647 2638 
L 3647 2100 
L 1113 2100 
L 1113 541 
L 3925 541 
L 3925 0 
L 506 0 
z
" transform="scale(0.015625)"/>
       <path id="ArialMT-68" d="M 422 0 
L 422 4581 
L 984 4581 
L 984 2938 
Q 1378 3394 1978 3394 
Q 2347 3394 2619 3248 
Q 2891 3103 3008 2847 
Q 3125 2591 3125 2103 
L 3125 0 
L 2563 0 
L 2563 2103 
Q 2563 2525 2380 2717 
Q 2197 2909 1863 2909 
Q 1613 2909 1392 2779 
Q 1172 2650 1078 2428 
Q 984 2206 984 1816 
L 984 0 
L 422 0 
z
" transform="scale(0.015625)"/>
      </defs>
      <use xlink:href="#ArialMT-45"/>
      <use xlink:href="#ArialMT-70" x="66.699219"/>
      <use xlink:href="#ArialMT-6f" x="122.314453"/>
      <use xlink:href="#ArialMT-63" x="177.929688"/>
      <use xlink:href="#ArialMT-68" x="227.929688"/>
     </g>
    </g>
   </g>
   <g id="matplotlib.axis_6">
    <g id="ytick_13">
     <g id="line2d_56">
      <path d="M 110.6025 1294.92092 
L 697.211293 1294.92092 
" clip-path="url(#pb69c969ab7)" style="fill: none; stroke: #ffffff; stroke-width: 2; stroke-linecap: round"/>
     </g>
     <g id="text_57">
      <!-- 0.60 -->
      <g style="fill: #262626" transform="translate(52.288437 1302.794513) scale(0.22 -0.22)">
       <use xlink:href="#ArialMT-30"/>
       <use xlink:href="#ArialMT-2e" x="55.615234"/>
       <use xlink:href="#ArialMT-36" x="83.398438"/>
       <use xlink:href="#ArialMT-30" x="139.013672"/>
      </g>
     </g>
    </g>
    <g id="ytick_14">
     <g id="line2d_57">
      <path d="M 110.6025 1215.84443 
L 697.211293 1215.84443 
" clip-path="url(#pb69c969ab7)" style="fill: none; stroke: #ffffff; stroke-width: 2; stroke-linecap: round"/>
     </g>
     <g id="text_58">
      <!-- 0.65 -->
      <g style="fill: #262626" transform="translate(52.288437 1223.718024) scale(0.22 -0.22)">
       <use xlink:href="#ArialMT-30"/>
       <use xlink:href="#ArialMT-2e" x="55.615234"/>
       <use xlink:href="#ArialMT-36" x="83.398438"/>
       <use xlink:href="#ArialMT-35" x="139.013672"/>
      </g>
     </g>
    </g>
    <g id="ytick_15">
     <g id="line2d_58">
      <path d="M 110.6025 1136.767941 
L 697.211293 1136.767941 
" clip-path="url(#pb69c969ab7)" style="fill: none; stroke: #ffffff; stroke-width: 2; stroke-linecap: round"/>
     </g>
     <g id="text_59">
      <!-- 0.70 -->
      <g style="fill: #262626" transform="translate(52.288437 1144.641535) scale(0.22 -0.22)">
       <use xlink:href="#ArialMT-30"/>
       <use xlink:href="#ArialMT-2e" x="55.615234"/>
       <use xlink:href="#ArialMT-37" x="83.398438"/>
       <use xlink:href="#ArialMT-30" x="139.013672"/>
      </g>
     </g>
    </g>
    <g id="ytick_16">
     <g id="line2d_59">
      <path d="M 110.6025 1057.691452 
L 697.211293 1057.691452 
" clip-path="url(#pb69c969ab7)" style="fill: none; stroke: #ffffff; stroke-width: 2; stroke-linecap: round"/>
     </g>
     <g id="text_60">
      <!-- 0.75 -->
      <g style="fill: #262626" transform="translate(52.288437 1065.565046) scale(0.22 -0.22)">
       <use xlink:href="#ArialMT-30"/>
       <use xlink:href="#ArialMT-2e" x="55.615234"/>
       <use xlink:href="#ArialMT-37" x="83.398438"/>
       <use xlink:href="#ArialMT-35" x="139.013672"/>
      </g>
     </g>
    </g>
    <g id="ytick_17">
     <g id="line2d_60">
      <path d="M 110.6025 978.614963 
L 697.211293 978.614963 
" clip-path="url(#pb69c969ab7)" style="fill: none; stroke: #ffffff; stroke-width: 2; stroke-linecap: round"/>
     </g>
     <g id="text_61">
      <!-- 0.80 -->
      <g style="fill: #262626" transform="translate(52.288437 986.488556) scale(0.22 -0.22)">
       <use xlink:href="#ArialMT-30"/>
       <use xlink:href="#ArialMT-2e" x="55.615234"/>
       <use xlink:href="#ArialMT-38" x="83.398438"/>
       <use xlink:href="#ArialMT-30" x="139.013672"/>
      </g>
     </g>
    </g>
    <g id="ytick_18">
     <g id="line2d_61">
      <path d="M 110.6025 899.538473 
L 697.211293 899.538473 
" clip-path="url(#pb69c969ab7)" style="fill: none; stroke: #ffffff; stroke-width: 2; stroke-linecap: round"/>
     </g>
     <g id="text_62">
      <!-- 0.85 -->
      <g style="fill: #262626" transform="translate(52.288437 907.412067) scale(0.22 -0.22)">
       <use xlink:href="#ArialMT-30"/>
       <use xlink:href="#ArialMT-2e" x="55.615234"/>
       <use xlink:href="#ArialMT-38" x="83.398438"/>
       <use xlink:href="#ArialMT-35" x="139.013672"/>
      </g>
     </g>
    </g>
    <g id="ytick_19">
     <g id="line2d_62">
      <path d="M 110.6025 820.461984 
L 697.211293 820.461984 
" clip-path="url(#pb69c969ab7)" style="fill: none; stroke: #ffffff; stroke-width: 2; stroke-linecap: round"/>
     </g>
     <g id="text_63">
      <!-- 0.90 -->
      <g style="fill: #262626" transform="translate(52.288437 828.335578) scale(0.22 -0.22)">
       <use xlink:href="#ArialMT-30"/>
       <use xlink:href="#ArialMT-2e" x="55.615234"/>
       <use xlink:href="#ArialMT-39" x="83.398438"/>
       <use xlink:href="#ArialMT-30" x="139.013672"/>
      </g>
     </g>
    </g>
    <g id="text_64">
     <!-- Solved -->
     <g style="fill: #262626" transform="translate(43.518437 1091.090938) rotate(-90) scale(0.24 -0.24)">
      <defs>
       <path id="ArialMT-64" d="M 2575 0 
L 2575 419 
Q 2259 -75 1647 -75 
Q 1250 -75 917 144 
Q 584 363 401 755 
Q 219 1147 219 1656 
Q 219 2153 384 2558 
Q 550 2963 881 3178 
Q 1213 3394 1622 3394 
Q 1922 3394 2156 3267 
Q 2391 3141 2538 2938 
L 2538 4581 
L 3097 4581 
L 3097 0 
L 2575 0 
z
M 797 1656 
Q 797 1019 1065 703 
Q 1334 388 1700 388 
Q 2069 388 2326 689 
Q 2584 991 2584 1609 
Q 2584 2291 2321 2609 
Q 2059 2928 1675 2928 
Q 1300 2928 1048 2622 
Q 797 2316 797 1656 
z
" transform="scale(0.015625)"/>
      </defs>
      <use xlink:href="#ArialMT-53"/>
      <use xlink:href="#ArialMT-6f" x="66.699219"/>
      <use xlink:href="#ArialMT-6c" x="122.314453"/>
      <use xlink:href="#ArialMT-76" x="144.53125"/>
      <use xlink:href="#ArialMT-65" x="194.53125"/>
      <use xlink:href="#ArialMT-64" x="250.146484"/>
     </g>
    </g>
   </g>
   <g id="line2d_63">
    <path d="M 141.72233 996.742207 
L 172.84216 930.78364 
L 203.96199 911.876886 
L 235.08182 899.860921 
L 266.201649 892.786973 
L 297.321479 887.837792 
L 328.441309 884.596909 
L 359.561139 881.804641 
L 390.680969 879.486156 
L 421.800799 878.147477 
L 452.920629 875.366049 
L 484.040459 874.289336 
L 515.160289 873.869379 
L 546.280118 872.067757 
L 577.399948 871.285345 
L 608.519778 871.339171 
L 639.639608 870.642919 
L 670.759438 870.276788 
" clip-path="url(#pb69c969ab7)" style="fill: none; stroke-dasharray: 11.1,4.8; stroke-dashoffset: 0; stroke: #00ffff; stroke-width: 3"/>
   </g>
   <g id="line2d_64">
    <path d="M 141.72233 946.859569 
L 172.84216 855.105345 
L 203.96199 832.926695 
L 235.08182 818.489589 
L 266.201649 810.494186 
L 297.321479 804.503737 
L 328.441309 800.543883 
L 359.561139 797.221177 
L 390.680969 794.24999 
L 421.800799 792.597592 
L 452.920629 789.997722 
L 484.040459 788.482482 
L 515.160289 787.961376 
L 546.280118 786.381846 
L 577.399948 785.697471 
L 608.519778 785.076444 
L 639.639608 784.618968 
L 670.759438 784.419972 
" clip-path="url(#pb69c969ab7)" style="fill: none; stroke-dasharray: 11.1,4.8; stroke-dashoffset: 0; stroke: #ffa500; stroke-width: 3"/>
   </g>
   <g id="line2d_65">
    <path d="M 141.72233 939.370754 
L 172.84216 895.616194 
L 203.96199 885.121785 
L 235.08182 877.267499 
L 266.201649 869.66924 
L 297.321479 866.956438 
L 328.441309 863.533526 
L 359.561139 861.072133 
L 390.680969 859.064256 
L 421.800799 856.982475 
L 452.920629 854.757502 
L 484.040459 854.426344 
L 515.160289 854.5405 
L 546.280118 852.966061 
L 577.399948 851.482777 
L 608.519778 853.220486 
L 639.639608 852.861519 
L 670.759438 850.854114 
" clip-path="url(#pb69c969ab7)" style="fill: none; stroke-dasharray: 11.1,4.8; stroke-dashoffset: 0; stroke: #0000ff; stroke-width: 3"/>
   </g>
   <g id="line2d_66">
    <path d="M 141.72233 1324.381903 
L 172.84216 1163.652677 
L 203.96199 1117.381767 
L 235.08182 1089.770066 
L 266.201649 1077.10979 
L 297.321479 1065.314314 
L 328.441309 1059.517771 
L 359.561139 1053.978859 
L 390.680969 1049.350844 
L 421.800799 1047.740678 
L 452.920629 1041.999375 
L 484.040459 1039.174773 
L 515.160289 1037.794617 
L 546.280118 1034.243126 
L 577.399948 1033.617479 
L 608.519778 1031.786541 
L 639.639608 1030.130372 
L 670.759438 1031.344808 
" clip-path="url(#pb69c969ab7)" style="fill: none; stroke-dasharray: 11.1,4.8; stroke-dashoffset: 0; stroke: #228b22; stroke-width: 3"/>
   </g>
   <g id="line2d_67">
    <path d="M 141.72233 944.911929 
L 172.84216 925.789588 
L 203.96199 913.353666 
L 235.08182 900.756265 
L 266.201649 905.569136 
L 297.321479 895.394197 
L 328.441309 895.975632 
L 359.561139 886.963659 
L 390.680969 884.928633 
L 421.800799 886.188411 
L 452.920629 879.049796 
L 484.040459 878.339215 
L 515.160289 879.179035 
L 546.280118 876.401189 
L 577.399948 878.339215 
L 608.519778 877.951591 
L 639.639608 875.690514 
L 670.759438 876.659574 
" clip-path="url(#pb69c969ab7)" style="fill: none; stroke: #00ffff; stroke-width: 3; stroke-linecap: round"/>
   </g>
   <g id="line2d_68">
    <path d="M 141.72233 868.196797 
L 172.84216 839.702384 
L 203.96199 831.226504 
L 235.08182 817.754499 
L 266.201649 818.147025 
L 297.321479 806.57185 
L 328.441309 801.158312 
L 359.561139 802.542805 
L 390.680969 799.361781 
L 421.800799 796.393045 
L 452.920629 793.983687 
L 484.040459 793.820606 
L 515.160289 792.942985 
L 546.280118 791.341774 
L 577.399948 791.617598 
L 608.519778 791.392395 
L 639.639608 789.77299 
L 670.759438 790.43493 
" clip-path="url(#pb69c969ab7)" style="fill: none; stroke: #ffa500; stroke-width: 3; stroke-linecap: round"/>
   </g>
   <g id="line2d_69">
    <path d="M 141.72233 962.152521 
L 172.84216 964.191695 
L 203.96199 913.629301 
L 235.08182 918.622221 
L 266.201649 808.846784 
L 297.321479 927.151739 
L 328.441309 945.95659 
L 359.561139 876.995446 
L 390.680969 871.590297 
L 421.800799 919.726931 
L 452.920629 873.851751 
L 484.040459 870.038105 
L 515.160289 880.334271 
L 546.280118 866.284318 
L 577.399948 872.834333 
L 608.519778 875.857837 
L 639.639608 870.473051 
L 670.759438 859.811884 
" clip-path="url(#pb69c969ab7)" style="fill: none; stroke: #0000ff; stroke-width: 3; stroke-linecap: round"/>
   </g>
   <g id="line2d_70">
    <path d="M 141.72233 1118.415211 
L 172.84216 1051.812332 
L 203.96199 1081.824718 
L 235.08182 1035.613856 
L 266.201649 1172.108573 
L 297.321479 1006.834852 
L 328.441309 981.180407 
L 359.561139 1046.056512 
L 390.680969 1046.385408 
L 421.800799 988.087409 
L 452.920629 1025.993486 
L 484.040459 1028.460252 
L 515.160289 1018.428692 
L 546.280118 1027.144574 
L 577.399948 1025.088998 
L 608.519778 1020.237666 
L 639.639608 1019.990971 
L 670.759438 1035.531655 
" clip-path="url(#pb69c969ab7)" style="fill: none; stroke: #228b22; stroke-width: 3; stroke-linecap: round"/>
   </g>
   <g id="patch_15">
    <path d="M 110.6025 1351.38 
L 110.6025 757.421875 
" style="fill: none; stroke: #ffffff; stroke-width: 2.5; stroke-linejoin: miter; stroke-linecap: square"/>
   </g>
   <g id="patch_16">
    <path d="M 697.211293 1351.38 
L 697.211293 757.421875 
" style="fill: none; stroke: #ffffff; stroke-width: 2.5; stroke-linejoin: miter; stroke-linecap: square"/>
   </g>
   <g id="patch_17">
    <path d="M 110.6025 1351.38 
L 697.211293 1351.38 
" style="fill: none; stroke: #ffffff; stroke-width: 2.5; stroke-linejoin: miter; stroke-linecap: square"/>
   </g>
   <g id="patch_18">
    <path d="M 110.6025 757.421875 
L 697.211293 757.421875 
" style="fill: none; stroke: #ffffff; stroke-width: 2.5; stroke-linejoin: miter; stroke-linecap: square"/>
   </g>
   <g id="legend_3">
    <g id="patch_19">
     <path d="M 527.460668 1340.38 
L 681.811293 1340.38 
Q 686.211293 1340.38 686.211293 1335.98 
L 686.211293 1089.2225 
Q 686.211293 1084.8225 681.811293 1084.8225 
L 527.460668 1084.8225 
Q 523.060668 1084.8225 523.060668 1089.2225 
L 523.060668 1335.98 
Q 523.060668 1340.38 527.460668 1340.38 
z
" style="fill: #eaeaf2; opacity: 0.8; stroke: #cccccc; stroke-width: 2; stroke-linejoin: miter"/>
    </g>
    <g id="line2d_71">
     <path d="M 531.860668 1101.669688 
L 553.860668 1101.669688 
L 575.860668 1101.669688 
" style="fill: none; stroke-dasharray: 11.1,4.8; stroke-dashoffset: 0; stroke: #00ffff; stroke-width: 3"/>
    </g>
    <g id="text_65">
     <!-- ACC -->
     <g style="fill: #262626" transform="translate(593.460668 1109.369688) scale(0.22 -0.22)">
      <use xlink:href="#ArialMT-41"/>
      <use xlink:href="#ArialMT-43" x="66.699219"/>
      <use xlink:href="#ArialMT-43" x="138.916016"/>
     </g>
    </g>
    <g id="line2d_72">
     <path d="M 531.860668 1132.789375 
L 553.860668 1132.789375 
L 575.860668 1132.789375 
" style="fill: none; stroke-dasharray: 11.1,4.8; stroke-dashoffset: 0; stroke: #ffa500; stroke-width: 3"/>
    </g>
    <g id="text_66">
     <!-- AUC -->
     <g style="fill: #262626" transform="translate(593.460668 1140.489375) scale(0.22 -0.22)">
      <use xlink:href="#ArialMT-41"/>
      <use xlink:href="#ArialMT-55" x="66.699219"/>
      <use xlink:href="#ArialMT-43" x="138.916016"/>
     </g>
    </g>
    <g id="line2d_73">
     <path d="M 531.860668 1163.909063 
L 553.860668 1163.909063 
L 575.860668 1163.909063 
" style="fill: none; stroke-dasharray: 11.1,4.8; stroke-dashoffset: 0; stroke: #0000ff; stroke-width: 3"/>
    </g>
    <g id="text_67">
     <!-- PRC -->
     <g style="fill: #262626" transform="translate(593.460668 1171.609063) scale(0.22 -0.22)">
      <use xlink:href="#ArialMT-50"/>
      <use xlink:href="#ArialMT-52" x="66.699219"/>
      <use xlink:href="#ArialMT-43" x="138.916016"/>
     </g>
    </g>
    <g id="line2d_74">
     <path d="M 531.860668 1195.02875 
L 553.860668 1195.02875 
L 575.860668 1195.02875 
" style="fill: none; stroke-dasharray: 11.1,4.8; stroke-dashoffset: 0; stroke: #228b22; stroke-width: 3"/>
    </g>
    <g id="text_68">
     <!-- SNS -->
     <g style="fill: #262626" transform="translate(593.460668 1202.72875) scale(0.22 -0.22)">
      <use xlink:href="#ArialMT-53"/>
      <use xlink:href="#ArialMT-4e" x="66.699219"/>
      <use xlink:href="#ArialMT-53" x="138.916016"/>
     </g>
    </g>
    <g id="line2d_75">
     <path d="M 531.860668 1226.148438 
L 553.860668 1226.148438 
L 575.860668 1226.148438 
" style="fill: none; stroke: #00ffff; stroke-width: 3; stroke-linecap: round"/>
    </g>
    <g id="text_69">
     <!-- Val-ACC -->
     <g style="fill: #262626" transform="translate(593.460668 1233.848438) scale(0.22 -0.22)">
      <use xlink:href="#ArialMT-56"/>
      <use xlink:href="#ArialMT-61" x="59.324219"/>
      <use xlink:href="#ArialMT-6c" x="114.939453"/>
      <use xlink:href="#ArialMT-2d" x="137.15625"/>
      <use xlink:href="#ArialMT-41" x="170.457031"/>
      <use xlink:href="#ArialMT-43" x="237.15625"/>
      <use xlink:href="#ArialMT-43" x="309.373047"/>
     </g>
    </g>
    <g id="line2d_76">
     <path d="M 531.860668 1257.268125 
L 553.860668 1257.268125 
L 575.860668 1257.268125 
" style="fill: none; stroke: #ffa500; stroke-width: 3; stroke-linecap: round"/>
    </g>
    <g id="text_70">
     <!-- Val-AUC -->
     <g style="fill: #262626" transform="translate(593.460668 1264.968125) scale(0.22 -0.22)">
      <use xlink:href="#ArialMT-56"/>
      <use xlink:href="#ArialMT-61" x="59.324219"/>
      <use xlink:href="#ArialMT-6c" x="114.939453"/>
      <use xlink:href="#ArialMT-2d" x="137.15625"/>
      <use xlink:href="#ArialMT-41" x="170.457031"/>
      <use xlink:href="#ArialMT-55" x="237.15625"/>
      <use xlink:href="#ArialMT-43" x="309.373047"/>
     </g>
    </g>
    <g id="line2d_77">
     <path d="M 531.860668 1288.387813 
L 553.860668 1288.387813 
L 575.860668 1288.387813 
" style="fill: none; stroke: #0000ff; stroke-width: 3; stroke-linecap: round"/>
    </g>
    <g id="text_71">
     <!-- Val-PRC -->
     <g style="fill: #262626" transform="translate(593.460668 1296.087813) scale(0.22 -0.22)">
      <use xlink:href="#ArialMT-56"/>
      <use xlink:href="#ArialMT-61" x="59.324219"/>
      <use xlink:href="#ArialMT-6c" x="114.939453"/>
      <use xlink:href="#ArialMT-2d" x="137.15625"/>
      <use xlink:href="#ArialMT-50" x="170.457031"/>
      <use xlink:href="#ArialMT-52" x="237.15625"/>
      <use xlink:href="#ArialMT-43" x="309.373047"/>
     </g>
    </g>
    <g id="line2d_78">
     <path d="M 531.860668 1319.5075 
L 553.860668 1319.5075 
L 575.860668 1319.5075 
" style="fill: none; stroke: #228b22; stroke-width: 3; stroke-linecap: round"/>
    </g>
    <g id="text_72">
     <!-- Val-SNS -->
     <g style="fill: #262626" transform="translate(593.460668 1327.2075) scale(0.22 -0.22)">
      <use xlink:href="#ArialMT-56"/>
      <use xlink:href="#ArialMT-61" x="59.324219"/>
      <use xlink:href="#ArialMT-6c" x="114.939453"/>
      <use xlink:href="#ArialMT-2d" x="137.15625"/>
      <use xlink:href="#ArialMT-53" x="170.457031"/>
      <use xlink:href="#ArialMT-4e" x="237.15625"/>
      <use xlink:href="#ArialMT-53" x="309.373047"/>
     </g>
    </g>
   </g>
  </g>
  <g id="axes_4">
   <g id="patch_20">
    <path d="M 827.471207 1351.38 
L 1414.08 1351.38 
L 1414.08 757.421875 
L 827.471207 757.421875 
z
" style="fill: #eaeaf2"/>
   </g>
   <g id="matplotlib.axis_7">
    <g id="xtick_31">
     <g id="line2d_79">
      <path d="M 827.471207 1351.38 
L 827.471207 757.421875 
" clip-path="url(#pb752071f80)" style="fill: none; stroke: #ffffff; stroke-width: 2; stroke-linecap: round"/>
     </g>
     <g id="text_73">
      <!-- 0 -->
      <g style="fill: #262626" transform="translate(821.354175 1382.627187) scale(0.22 -0.22)">
       <use xlink:href="#ArialMT-30"/>
      </g>
     </g>
    </g>
    <g id="xtick_32">
     <g id="line2d_80">
      <path d="M 889.710866 1351.38 
L 889.710866 757.421875 
" clip-path="url(#pb752071f80)" style="fill: none; stroke: #ffffff; stroke-width: 2; stroke-linecap: round"/>
     </g>
     <g id="text_74">
      <!-- 2 -->
      <g style="fill: #262626" transform="translate(883.593835 1382.627187) scale(0.22 -0.22)">
       <use xlink:href="#ArialMT-32"/>
      </g>
     </g>
    </g>
    <g id="xtick_33">
     <g id="line2d_81">
      <path d="M 951.950526 1351.38 
L 951.950526 757.421875 
" clip-path="url(#pb752071f80)" style="fill: none; stroke: #ffffff; stroke-width: 2; stroke-linecap: round"/>
     </g>
     <g id="text_75">
      <!-- 4 -->
      <g style="fill: #262626" transform="translate(945.833495 1382.627187) scale(0.22 -0.22)">
       <use xlink:href="#ArialMT-34"/>
      </g>
     </g>
    </g>
    <g id="xtick_34">
     <g id="line2d_82">
      <path d="M 1014.190186 1351.38 
L 1014.190186 757.421875 
" clip-path="url(#pb752071f80)" style="fill: none; stroke: #ffffff; stroke-width: 2; stroke-linecap: round"/>
     </g>
     <g id="text_76">
      <!-- 6 -->
      <g style="fill: #262626" transform="translate(1008.073155 1382.627187) scale(0.22 -0.22)">
       <use xlink:href="#ArialMT-36"/>
      </g>
     </g>
    </g>
    <g id="xtick_35">
     <g id="line2d_83">
      <path d="M 1076.429846 1351.38 
L 1076.429846 757.421875 
" clip-path="url(#pb752071f80)" style="fill: none; stroke: #ffffff; stroke-width: 2; stroke-linecap: round"/>
     </g>
     <g id="text_77">
      <!-- 8 -->
      <g style="fill: #262626" transform="translate(1070.312814 1382.627187) scale(0.22 -0.22)">
       <use xlink:href="#ArialMT-38"/>
      </g>
     </g>
    </g>
    <g id="xtick_36">
     <g id="line2d_84">
      <path d="M 1138.669506 1351.38 
L 1138.669506 757.421875 
" clip-path="url(#pb752071f80)" style="fill: none; stroke: #ffffff; stroke-width: 2; stroke-linecap: round"/>
     </g>
     <g id="text_78">
      <!-- 10 -->
      <g style="fill: #262626" transform="translate(1126.435443 1382.627187) scale(0.22 -0.22)">
       <use xlink:href="#ArialMT-31"/>
       <use xlink:href="#ArialMT-30" x="55.615234"/>
      </g>
     </g>
    </g>
    <g id="xtick_37">
     <g id="line2d_85">
      <path d="M 1200.909165 1351.38 
L 1200.909165 757.421875 
" clip-path="url(#pb752071f80)" style="fill: none; stroke: #ffffff; stroke-width: 2; stroke-linecap: round"/>
     </g>
     <g id="text_79">
      <!-- 12 -->
      <g style="fill: #262626" transform="translate(1188.675103 1382.627187) scale(0.22 -0.22)">
       <use xlink:href="#ArialMT-31"/>
       <use xlink:href="#ArialMT-32" x="55.615234"/>
      </g>
     </g>
    </g>
    <g id="xtick_38">
     <g id="line2d_86">
      <path d="M 1263.148825 1351.38 
L 1263.148825 757.421875 
" clip-path="url(#pb752071f80)" style="fill: none; stroke: #ffffff; stroke-width: 2; stroke-linecap: round"/>
     </g>
     <g id="text_80">
      <!-- 14 -->
      <g style="fill: #262626" transform="translate(1250.914763 1382.627187) scale(0.22 -0.22)">
       <use xlink:href="#ArialMT-31"/>
       <use xlink:href="#ArialMT-34" x="55.615234"/>
      </g>
     </g>
    </g>
    <g id="xtick_39">
     <g id="line2d_87">
      <path d="M 1325.388485 1351.38 
L 1325.388485 757.421875 
" clip-path="url(#pb752071f80)" style="fill: none; stroke: #ffffff; stroke-width: 2; stroke-linecap: round"/>
     </g>
     <g id="text_81">
      <!-- 16 -->
      <g style="fill: #262626" transform="translate(1313.154422 1382.627187) scale(0.22 -0.22)">
       <use xlink:href="#ArialMT-31"/>
       <use xlink:href="#ArialMT-36" x="55.615234"/>
      </g>
     </g>
    </g>
    <g id="xtick_40">
     <g id="line2d_88">
      <path d="M 1387.628145 1351.38 
L 1387.628145 757.421875 
" clip-path="url(#pb752071f80)" style="fill: none; stroke: #ffffff; stroke-width: 2; stroke-linecap: round"/>
     </g>
     <g id="text_82">
      <!-- 18 -->
      <g style="fill: #262626" transform="translate(1375.394082 1382.627187) scale(0.22 -0.22)">
       <use xlink:href="#ArialMT-31"/>
       <use xlink:href="#ArialMT-38" x="55.615234"/>
      </g>
     </g>
    </g>
    <g id="text_83">
     <!-- Epoch -->
     <g style="fill: #262626" transform="translate(1086.751853 1408.178437) scale(0.24 -0.24)">
      <use xlink:href="#ArialMT-45"/>
      <use xlink:href="#ArialMT-70" x="66.699219"/>
      <use xlink:href="#ArialMT-6f" x="122.314453"/>
      <use xlink:href="#ArialMT-63" x="177.929688"/>
      <use xlink:href="#ArialMT-68" x="227.929688"/>
     </g>
    </g>
   </g>
   <g id="matplotlib.axis_8">
    <g id="ytick_20">
     <g id="line2d_89">
      <path d="M 827.471207 987.060079 
L 1414.08 987.060079 
" clip-path="url(#pb752071f80)" style="fill: none; stroke: #ffffff; stroke-width: 2; stroke-linecap: round"/>
     </g>
     <g id="text_84">
      <!-- $\mathdefault{10^{-1}}$ -->
      <g style="fill: #262626" transform="translate(768.411207 998.403829) scale(0.22 -0.22)">
       <use xlink:href="#ArialMT-31" transform="translate(0 0.99375)"/>
       <use xlink:href="#ArialMT-30" transform="translate(55.615234 0.99375)"/>
       <use xlink:href="#ArialMT-2212" transform="translate(112.972813 70.6875) scale(0.7)"/>
       <use xlink:href="#ArialMT-31" transform="translate(153.851719 70.6875) scale(0.7)"/>
      </g>
     </g>
    </g>
    <g id="ytick_21">
     <g id="text_85">
      <!-- $\mathdefault{8\times10^{-2}}$ -->
      <g style="fill: #262626" transform="translate(738.851207 1298.453482) scale(0.22 -0.22)">
       <use xlink:href="#ArialMT-38" transform="translate(0 0.99375)"/>
       <use xlink:href="#ArialMT-d7" transform="translate(75.097656 0.99375)"/>
       <use xlink:href="#ArialMT-31" transform="translate(152.978516 0.99375)"/>
       <use xlink:href="#ArialMT-30" transform="translate(208.59375 0.99375)"/>
       <use xlink:href="#ArialMT-2212" transform="translate(265.951328 70.6875) scale(0.7)"/>
       <use xlink:href="#ArialMT-32" transform="translate(306.830234 70.6875) scale(0.7)"/>
      </g>
     </g>
    </g>
    <g id="ytick_22">
     <g id="text_86">
      <!-- $\mathdefault{9\times10^{-2}}$ -->
      <g style="fill: #262626" transform="translate(738.851207 1140.076693) scale(0.22 -0.22)">
       <use xlink:href="#ArialMT-39" transform="translate(0 0.99375)"/>
       <use xlink:href="#ArialMT-d7" transform="translate(75.097656 0.99375)"/>
       <use xlink:href="#ArialMT-31" transform="translate(152.978516 0.99375)"/>
       <use xlink:href="#ArialMT-30" transform="translate(208.59375 0.99375)"/>
       <use xlink:href="#ArialMT-2212" transform="translate(265.951328 70.6875) scale(0.7)"/>
       <use xlink:href="#ArialMT-32" transform="translate(306.830234 70.6875) scale(0.7)"/>
      </g>
     </g>
    </g>
   </g>
   <g id="line2d_90">
    <path d="M 858.591037 784.419972 
L 889.710866 1019.665704 
L 920.830696 1097.876293 
L 951.950526 1156.788465 
L 983.070356 1191.941909 
L 1014.190186 1218.532064 
L 1045.310016 1239.428769 
L 1076.429846 1255.130222 
L 1107.549676 1270.798558 
L 1138.669506 1279.034547 
L 1169.789335 1292.646299 
L 1200.909165 1301.075825 
L 1232.028995 1305.222523 
L 1263.148825 1312.431549 
L 1294.268655 1317.251486 
L 1325.388485 1320.259091 
L 1356.508315 1322.779278 
L 1387.628145 1324.381903 
" clip-path="url(#pb752071f80)" style="fill: none; stroke-dasharray: 11.1,4.8; stroke-dashoffset: 0; stroke: #ff0000; stroke-width: 3"/>
   </g>
   <g id="line2d_91">
    <path d="M 858.591037 924.847287 
L 889.710866 1020.098004 
L 920.830696 1058.051724 
L 951.950526 1128.569155 
L 983.070356 1092.219146 
L 1014.190186 1181.483602 
L 1045.310016 1191.806575 
L 1076.429846 1206.830934 
L 1107.549676 1224.374123 
L 1138.669506 1225.161881 
L 1169.789335 1253.521399 
L 1200.909165 1250.10909 
L 1232.028995 1254.729792 
L 1263.148825 1266.914533 
L 1294.268655 1262.926932 
L 1325.388485 1264.034371 
L 1356.508315 1275.624131 
L 1387.628145 1266.871233 
" clip-path="url(#pb752071f80)" style="fill: none; stroke: #ff0000; stroke-width: 3; stroke-linecap: round"/>
   </g>
   <g id="patch_21">
    <path d="M 827.471207 1351.38 
L 827.471207 757.421875 
" style="fill: none; stroke: #ffffff; stroke-width: 2.5; stroke-linejoin: miter; stroke-linecap: square"/>
   </g>
   <g id="patch_22">
    <path d="M 1414.08 1351.38 
L 1414.08 757.421875 
" style="fill: none; stroke: #ffffff; stroke-width: 2.5; stroke-linejoin: miter; stroke-linecap: square"/>
   </g>
   <g id="patch_23">
    <path d="M 827.471207 1351.38 
L 1414.08 1351.38 
" style="fill: none; stroke: #ffffff; stroke-width: 2.5; stroke-linejoin: miter; stroke-linecap: square"/>
   </g>
   <g id="patch_24">
    <path d="M 827.471207 757.421875 
L 1414.08 757.421875 
" style="fill: none; stroke: #ffffff; stroke-width: 2.5; stroke-linejoin: miter; stroke-linecap: square"/>
   </g>
   <g id="legend_4">
    <g id="patch_25">
     <path d="M 1244.312187 837.26125 
L 1398.68 837.26125 
Q 1403.08 837.26125 1403.08 832.86125 
L 1403.08 772.821875 
Q 1403.08 768.421875 1398.68 768.421875 
L 1244.312187 768.421875 
Q 1239.912187 768.421875 1239.912187 772.821875 
L 1239.912187 832.86125 
Q 1239.912187 837.26125 1244.312187 837.26125 
z
" style="fill: #eaeaf2; opacity: 0.8; stroke: #cccccc; stroke-width: 2; stroke-linejoin: miter"/>
    </g>
    <g id="line2d_92">
     <path d="M 1248.712187 785.269063 
L 1270.712187 785.269063 
L 1292.712187 785.269063 
" style="fill: none; stroke-dasharray: 11.1,4.8; stroke-dashoffset: 0; stroke: #ff0000; stroke-width: 3"/>
    </g>
    <g id="text_87">
     <!-- Loss -->
     <g style="fill: #262626" transform="translate(1310.312187 792.969063) scale(0.22 -0.22)">
      <use xlink:href="#ArialMT-4c"/>
      <use xlink:href="#ArialMT-6f" x="55.615234"/>
      <use xlink:href="#ArialMT-73" x="111.230469"/>
      <use xlink:href="#ArialMT-73" x="161.230469"/>
     </g>
    </g>
    <g id="line2d_93">
     <path d="M 1248.712187 816.38875 
L 1270.712187 816.38875 
L 1292.712187 816.38875 
" style="fill: none; stroke: #ff0000; stroke-width: 3; stroke-linecap: round"/>
    </g>
    <g id="text_88">
     <!-- Val-Loss -->
     <g style="fill: #262626" transform="translate(1310.312187 824.08875) scale(0.22 -0.22)">
      <use xlink:href="#ArialMT-56"/>
      <use xlink:href="#ArialMT-61" x="59.324219"/>
      <use xlink:href="#ArialMT-6c" x="114.939453"/>
      <use xlink:href="#ArialMT-2d" x="137.15625"/>
      <use xlink:href="#ArialMT-4c" x="170.457031"/>
      <use xlink:href="#ArialMT-6f" x="226.072266"/>
      <use xlink:href="#ArialMT-73" x="281.6875"/>
      <use xlink:href="#ArialMT-73" x="331.6875"/>
     </g>
    </g>
   </g>
  </g>
  <g id="text_89">
   <!-- Training Process of Metrics and Losses -->
   <g style="fill: #262626" transform="translate(468.45 49.7655) scale(0.288 -0.288)">
    <defs>
     <path id="ArialMT-54" d="M 1659 0 
L 1659 4041 
L 150 4041 
L 150 4581 
L 3781 4581 
L 3781 4041 
L 2266 4041 
L 2266 0 
L 1659 0 
z
" transform="scale(0.015625)"/>
     <path id="ArialMT-67" d="M 319 -275 
L 866 -356 
Q 900 -609 1056 -725 
Q 1266 -881 1628 -881 
Q 2019 -881 2231 -725 
Q 2444 -569 2519 -288 
Q 2563 -116 2559 434 
Q 2191 0 1641 0 
Q 956 0 581 494 
Q 206 988 206 1678 
Q 206 2153 378 2554 
Q 550 2956 876 3175 
Q 1203 3394 1644 3394 
Q 2231 3394 2613 2919 
L 2613 3319 
L 3131 3319 
L 3131 450 
Q 3131 -325 2973 -648 
Q 2816 -972 2473 -1159 
Q 2131 -1347 1631 -1347 
Q 1038 -1347 672 -1080 
Q 306 -813 319 -275 
z
M 784 1719 
Q 784 1066 1043 766 
Q 1303 466 1694 466 
Q 2081 466 2343 764 
Q 2606 1063 2606 1700 
Q 2606 2309 2336 2618 
Q 2066 2928 1684 2928 
Q 1309 2928 1046 2623 
Q 784 2319 784 1719 
z
" transform="scale(0.015625)"/>
     <path id="ArialMT-20" transform="scale(0.015625)"/>
     <path id="ArialMT-66" d="M 556 0 
L 556 2881 
L 59 2881 
L 59 3319 
L 556 3319 
L 556 3672 
Q 556 4006 616 4169 
Q 697 4388 901 4523 
Q 1106 4659 1475 4659 
Q 1713 4659 2000 4603 
L 1916 4113 
Q 1741 4144 1584 4144 
Q 1328 4144 1222 4034 
Q 1116 3925 1116 3625 
L 1116 3319 
L 1763 3319 
L 1763 2881 
L 1116 2881 
L 1116 0 
L 556 0 
z
" transform="scale(0.015625)"/>
    </defs>
    <use xlink:href="#ArialMT-54"/>
    <use xlink:href="#ArialMT-72" x="57.333984"/>
    <use xlink:href="#ArialMT-61" x="90.634766"/>
    <use xlink:href="#ArialMT-69" x="146.25"/>
    <use xlink:href="#ArialMT-6e" x="168.466797"/>
    <use xlink:href="#ArialMT-69" x="224.082031"/>
    <use xlink:href="#ArialMT-6e" x="246.298828"/>
    <use xlink:href="#ArialMT-67" x="301.914062"/>
    <use xlink:href="#ArialMT-20" x="357.529297"/>
    <use xlink:href="#ArialMT-50" x="385.3125"/>
    <use xlink:href="#ArialMT-72" x="452.011719"/>
    <use xlink:href="#ArialMT-6f" x="485.3125"/>
    <use xlink:href="#ArialMT-63" x="540.927734"/>
    <use xlink:href="#ArialMT-65" x="590.927734"/>
    <use xlink:href="#ArialMT-73" x="646.542969"/>
    <use xlink:href="#ArialMT-73" x="696.542969"/>
    <use xlink:href="#ArialMT-20" x="746.542969"/>
    <use xlink:href="#ArialMT-6f" x="774.326172"/>
    <use xlink:href="#ArialMT-66" x="829.941406"/>
    <use xlink:href="#ArialMT-20" x="857.724609"/>
    <use xlink:href="#ArialMT-4d" x="885.507812"/>
    <use xlink:href="#ArialMT-65" x="968.808594"/>
    <use xlink:href="#ArialMT-74" x="1024.423828"/>
    <use xlink:href="#ArialMT-72" x="1052.207031"/>
    <use xlink:href="#ArialMT-69" x="1085.507812"/>
    <use xlink:href="#ArialMT-63" x="1107.724609"/>
    <use xlink:href="#ArialMT-73" x="1157.724609"/>
    <use xlink:href="#ArialMT-20" x="1207.724609"/>
    <use xlink:href="#ArialMT-61" x="1235.507812"/>
    <use xlink:href="#ArialMT-6e" x="1291.123047"/>
    <use xlink:href="#ArialMT-64" x="1346.738281"/>
    <use xlink:href="#ArialMT-20" x="1402.353516"/>
    <use xlink:href="#ArialMT-4c" x="1430.136719"/>
    <use xlink:href="#ArialMT-6f" x="1485.751953"/>
    <use xlink:href="#ArialMT-73" x="1541.367188"/>
    <use xlink:href="#ArialMT-73" x="1591.367188"/>
    <use xlink:href="#ArialMT-65" x="1641.367188"/>
    <use xlink:href="#ArialMT-73" x="1696.982422"/>
   </g>
  </g>
 </g>
 <defs>
  <clipPath id="pcc7200dfb9">
   <rect x="110.6025" y="101.16375" width="586.608793" height="593.958125"/>
  </clipPath>
  <clipPath id="pe30f1f5474">
   <rect x="827.471207" y="101.16375" width="586.608793" height="593.958125"/>
  </clipPath>
  <clipPath id="pb69c969ab7">
   <rect x="110.6025" y="757.421875" width="586.608793" height="593.958125"/>
  </clipPath>
  <clipPath id="pb752071f80">
   <rect x="827.471207" y="757.421875" width="586.608793" height="593.958125"/>
  </clipPath>
 </defs>
</svg>
