<?xml version="1.0" encoding="utf-8" standalone="no"?>
<!DOCTYPE svg PUBLIC "-//W3C//DTD SVG 1.1//EN"
  "http://www.w3.org/Graphics/SVG/1.1/DTD/svg11.dtd">
<svg xmlns:xlink="http://www.w3.org/1999/xlink" width="936pt" height="576pt" viewBox="0 0 936 576" xmlns="http://www.w3.org/2000/svg" version="1.1">
 <metadata>
  <rdf:RDF xmlns:dc="http://purl.org/dc/elements/1.1/" xmlns:cc="http://creativecommons.org/ns#" xmlns:rdf="http://www.w3.org/1999/02/22-rdf-syntax-ns#">
   <cc:Work>
    <dc:type rdf:resource="http://purl.org/dc/dcmitype/StillImage"/>
    <dc:date>2024-04-12T11:14:32.814816</dc:date>
    <dc:format>image/svg+xml</dc:format>
    <dc:creator>
     <cc:Agent>
      <dc:title>Matplotlib v3.8.0, https://matplotlib.org/</dc:title>
     </cc:Agent>
    </dc:creator>
   </cc:Work>
  </rdf:RDF>
 </metadata>
 <defs>
  <style type="text/css">*{stroke-linejoin: round; stroke-linecap: butt}</style>
 </defs>
 <g id="figure_1">
  <g id="patch_1">
   <path d="M 0 576 
L 936 576 
L 936 0 
L 0 0 
z
" style="fill: #ffffff"/>
  </g>
  <g id="axes_1">
   <g id="patch_2">
    <path d="M 93.81 488.689133 
L 913.026476 488.689133 
L 913.026476 38.4 
L 93.81 38.4 
z
" style="fill: #eaeaf2"/>
   </g>
   <g id="matplotlib.axis_1">
    <g id="xtick_1">
     <g id="text_1">
      <!-- AS4 -->
      <g style="fill: #262626" transform="translate(99.453303 531.593288) rotate(-45) scale(0.165 -0.165)">
       <defs>
        <path id="ArialMT-41" d="M -9 0 
L 1750 4581 
L 2403 4581 
L 4278 0 
L 3588 0 
L 3053 1388 
L 1138 1388 
L 634 0 
L -9 0 
z
M 1313 1881 
L 2866 1881 
L 2388 3150 
Q 2169 3728 2063 4100 
Q 1975 3659 1816 3225 
L 1313 1881 
z
" transform="scale(0.015625)"/>
        <path id="ArialMT-53" d="M 288 1472 
L 859 1522 
Q 900 1178 1048 958 
Q 1197 738 1509 602 
Q 1822 466 2213 466 
Q 2559 466 2825 569 
Q 3091 672 3220 851 
Q 3350 1031 3350 1244 
Q 3350 1459 3225 1620 
Q 3100 1781 2813 1891 
Q 2628 1963 1997 2114 
Q 1366 2266 1113 2400 
Q 784 2572 623 2826 
Q 463 3081 463 3397 
Q 463 3744 659 4045 
Q 856 4347 1234 4503 
Q 1613 4659 2075 4659 
Q 2584 4659 2973 4495 
Q 3363 4331 3572 4012 
Q 3781 3694 3797 3291 
L 3216 3247 
Q 3169 3681 2898 3903 
Q 2628 4125 2100 4125 
Q 1550 4125 1298 3923 
Q 1047 3722 1047 3438 
Q 1047 3191 1225 3031 
Q 1400 2872 2139 2705 
Q 2878 2538 3153 2413 
Q 3553 2228 3743 1945 
Q 3934 1663 3934 1294 
Q 3934 928 3725 604 
Q 3516 281 3123 101 
Q 2731 -78 2241 -78 
Q 1619 -78 1198 103 
Q 778 284 539 648 
Q 300 1013 288 1472 
z
" transform="scale(0.015625)"/>
        <path id="ArialMT-34" d="M 2069 0 
L 2069 1097 
L 81 1097 
L 81 1613 
L 2172 4581 
L 2631 4581 
L 2631 1613 
L 3250 1613 
L 3250 1097 
L 2631 1097 
L 2631 0 
L 2069 0 
z
M 2069 1613 
L 2069 3678 
L 634 1613 
L 2069 1613 
z
" transform="scale(0.015625)"/>
       </defs>
       <use xlink:href="#ArialMT-41"/>
       <use xlink:href="#ArialMT-53" x="66.699219"/>
       <use xlink:href="#ArialMT-34" x="133.398438"/>
      </g>
     </g>
    </g>
    <g id="xtick_2">
     <g id="text_2">
      <!-- AS5 -->
      <g style="fill: #262626" transform="translate(126.760519 531.593288) rotate(-45) scale(0.165 -0.165)">
       <defs>
        <path id="ArialMT-35" d="M 266 1200 
L 856 1250 
Q 922 819 1161 601 
Q 1400 384 1738 384 
Q 2144 384 2425 690 
Q 2706 997 2706 1503 
Q 2706 1984 2436 2262 
Q 2166 2541 1728 2541 
Q 1456 2541 1237 2417 
Q 1019 2294 894 2097 
L 366 2166 
L 809 4519 
L 3088 4519 
L 3088 3981 
L 1259 3981 
L 1013 2750 
Q 1425 3038 1878 3038 
Q 2478 3038 2890 2622 
Q 3303 2206 3303 1553 
Q 3303 931 2941 478 
Q 2500 -78 1738 -78 
Q 1113 -78 717 272 
Q 322 622 266 1200 
z
" transform="scale(0.015625)"/>
       </defs>
       <use xlink:href="#ArialMT-41"/>
       <use xlink:href="#ArialMT-53" x="66.699219"/>
       <use xlink:href="#ArialMT-35" x="133.398438"/>
      </g>
     </g>
    </g>
    <g id="xtick_3">
     <g id="text_3">
      <!-- BY4 -->
      <g style="fill: #262626" transform="translate(154.067735 531.593288) rotate(-45) scale(0.165 -0.165)">
       <defs>
        <path id="ArialMT-42" d="M 469 0 
L 469 4581 
L 2188 4581 
Q 2713 4581 3030 4442 
Q 3347 4303 3526 4014 
Q 3706 3725 3706 3409 
Q 3706 3116 3547 2856 
Q 3388 2597 3066 2438 
Q 3481 2316 3704 2022 
Q 3928 1728 3928 1328 
Q 3928 1006 3792 729 
Q 3656 453 3456 303 
Q 3256 153 2954 76 
Q 2653 0 2216 0 
L 469 0 
z
M 1075 2656 
L 2066 2656 
Q 2469 2656 2644 2709 
Q 2875 2778 2992 2937 
Q 3109 3097 3109 3338 
Q 3109 3566 3000 3739 
Q 2891 3913 2687 3977 
Q 2484 4041 1991 4041 
L 1075 4041 
L 1075 2656 
z
M 1075 541 
L 2216 541 
Q 2509 541 2628 563 
Q 2838 600 2978 687 
Q 3119 775 3209 942 
Q 3300 1109 3300 1328 
Q 3300 1584 3169 1773 
Q 3038 1963 2805 2039 
Q 2572 2116 2134 2116 
L 1075 2116 
L 1075 541 
z
" transform="scale(0.015625)"/>
        <path id="ArialMT-59" d="M 1784 0 
L 1784 1941 
L 19 4581 
L 756 4581 
L 1659 3200 
Q 1909 2813 2125 2425 
Q 2331 2784 2625 3234 
L 3513 4581 
L 4219 4581 
L 2391 1941 
L 2391 0 
L 1784 0 
z
" transform="scale(0.015625)"/>
       </defs>
       <use xlink:href="#ArialMT-42"/>
       <use xlink:href="#ArialMT-59" x="66.699219"/>
       <use xlink:href="#ArialMT-34" x="133.398438"/>
      </g>
     </g>
    </g>
    <g id="xtick_4">
     <g id="text_4">
      <!-- BY5 -->
      <g style="fill: #262626" transform="translate(181.374951 531.593288) rotate(-45) scale(0.165 -0.165)">
       <use xlink:href="#ArialMT-42"/>
       <use xlink:href="#ArialMT-59" x="66.699219"/>
       <use xlink:href="#ArialMT-35" x="133.398438"/>
      </g>
     </g>
    </g>
    <g id="xtick_5">
     <g id="text_5">
      <!-- CC4 -->
      <g style="fill: #262626" transform="translate(208.038644 532.880333) rotate(-45) scale(0.165 -0.165)">
       <defs>
        <path id="ArialMT-43" d="M 3763 1606 
L 4369 1453 
Q 4178 706 3683 314 
Q 3188 -78 2472 -78 
Q 1731 -78 1267 223 
Q 803 525 561 1097 
Q 319 1669 319 2325 
Q 319 3041 592 3573 
Q 866 4106 1370 4382 
Q 1875 4659 2481 4659 
Q 3169 4659 3637 4309 
Q 4106 3959 4291 3325 
L 3694 3184 
Q 3534 3684 3231 3912 
Q 2928 4141 2469 4141 
Q 1941 4141 1586 3887 
Q 1231 3634 1087 3207 
Q 944 2781 944 2328 
Q 944 1744 1114 1308 
Q 1284 872 1643 656 
Q 2003 441 2422 441 
Q 2931 441 3284 734 
Q 3638 1028 3763 1606 
z
" transform="scale(0.015625)"/>
       </defs>
       <use xlink:href="#ArialMT-43"/>
       <use xlink:href="#ArialMT-43" x="72.216797"/>
       <use xlink:href="#ArialMT-34" x="144.433594"/>
      </g>
     </g>
    </g>
    <g id="xtick_6">
     <g id="text_6">
      <!-- CC5 -->
      <g style="fill: #262626" transform="translate(235.34586 532.880333) rotate(-45) scale(0.165 -0.165)">
       <use xlink:href="#ArialMT-43"/>
       <use xlink:href="#ArialMT-43" x="72.216797"/>
       <use xlink:href="#ArialMT-35" x="144.433594"/>
      </g>
     </g>
    </g>
    <g id="xtick_7">
     <g id="text_7">
      <!-- CI4 -->
      <g style="fill: #262626" transform="translate(265.245396 527.695694) rotate(-45) scale(0.165 -0.165)">
       <defs>
        <path id="ArialMT-49" d="M 597 0 
L 597 4581 
L 1203 4581 
L 1203 0 
L 597 0 
z
" transform="scale(0.015625)"/>
       </defs>
       <use xlink:href="#ArialMT-43"/>
       <use xlink:href="#ArialMT-49" x="72.216797"/>
       <use xlink:href="#ArialMT-34" x="100"/>
      </g>
     </g>
    </g>
    <g id="xtick_8">
     <g id="text_8">
      <!-- CI5 -->
      <g style="fill: #262626" transform="translate(292.552612 527.695694) rotate(-45) scale(0.165 -0.165)">
       <use xlink:href="#ArialMT-43"/>
       <use xlink:href="#ArialMT-49" x="72.216797"/>
       <use xlink:href="#ArialMT-35" x="100"/>
      </g>
     </g>
    </g>
    <g id="xtick_9">
     <g id="text_9">
      <!-- DO4 -->
      <g style="fill: #262626" transform="translate(316.943012 533.529325) rotate(-45) scale(0.165 -0.165)">
       <defs>
        <path id="ArialMT-44" d="M 494 0 
L 494 4581 
L 2072 4581 
Q 2606 4581 2888 4516 
Q 3281 4425 3559 4188 
Q 3922 3881 4101 3404 
Q 4281 2928 4281 2316 
Q 4281 1794 4159 1391 
Q 4038 988 3847 723 
Q 3656 459 3429 307 
Q 3203 156 2883 78 
Q 2563 0 2147 0 
L 494 0 
z
M 1100 541 
L 2078 541 
Q 2531 541 2789 625 
Q 3047 709 3200 863 
Q 3416 1078 3536 1442 
Q 3656 1806 3656 2325 
Q 3656 3044 3420 3430 
Q 3184 3816 2847 3947 
Q 2603 4041 2063 4041 
L 1100 4041 
L 1100 541 
z
" transform="scale(0.015625)"/>
        <path id="ArialMT-4f" d="M 309 2231 
Q 309 3372 921 4017 
Q 1534 4663 2503 4663 
Q 3138 4663 3647 4359 
Q 4156 4056 4423 3514 
Q 4691 2972 4691 2284 
Q 4691 1588 4409 1038 
Q 4128 488 3612 205 
Q 3097 -78 2500 -78 
Q 1853 -78 1343 234 
Q 834 547 571 1087 
Q 309 1628 309 2231 
z
M 934 2222 
Q 934 1394 1379 917 
Q 1825 441 2497 441 
Q 3181 441 3623 922 
Q 4066 1403 4066 2288 
Q 4066 2847 3877 3264 
Q 3688 3681 3323 3911 
Q 2959 4141 2506 4141 
Q 1863 4141 1398 3698 
Q 934 3256 934 2222 
z
" transform="scale(0.015625)"/>
       </defs>
       <use xlink:href="#ArialMT-44"/>
       <use xlink:href="#ArialMT-4f" x="72.216797"/>
       <use xlink:href="#ArialMT-34" x="150"/>
      </g>
     </g>
    </g>
    <g id="xtick_10">
     <g id="text_10">
      <!-- DO5 -->
      <g style="fill: #262626" transform="translate(344.250228 533.529325) rotate(-45) scale(0.165 -0.165)">
       <use xlink:href="#ArialMT-44"/>
       <use xlink:href="#ArialMT-4f" x="72.216797"/>
       <use xlink:href="#ArialMT-35" x="150"/>
      </g>
     </g>
    </g>
    <g id="xtick_11">
     <g id="text_11">
      <!-- FC4 -->
      <g style="fill: #262626" transform="translate(372.531843 531.580527) rotate(-45) scale(0.165 -0.165)">
       <defs>
        <path id="ArialMT-46" d="M 525 0 
L 525 4581 
L 3616 4581 
L 3616 4041 
L 1131 4041 
L 1131 2622 
L 3281 2622 
L 3281 2081 
L 1131 2081 
L 1131 0 
L 525 0 
z
" transform="scale(0.015625)"/>
       </defs>
       <use xlink:href="#ArialMT-46"/>
       <use xlink:href="#ArialMT-43" x="61.083984"/>
       <use xlink:href="#ArialMT-34" x="133.300781"/>
      </g>
     </g>
    </g>
    <g id="xtick_12">
     <g id="text_12">
      <!-- FC5 -->
      <g style="fill: #262626" transform="translate(399.839058 531.580527) rotate(-45) scale(0.165 -0.165)">
       <use xlink:href="#ArialMT-46"/>
       <use xlink:href="#ArialMT-43" x="61.083984"/>
       <use xlink:href="#ArialMT-35" x="133.300781"/>
      </g>
     </g>
    </g>
    <g id="xtick_13">
     <g id="text_13">
      <!-- FS4 -->
      <g style="fill: #262626" transform="translate(427.468035 530.937005) rotate(-45) scale(0.165 -0.165)">
       <use xlink:href="#ArialMT-46"/>
       <use xlink:href="#ArialMT-53" x="61.083984"/>
       <use xlink:href="#ArialMT-34" x="127.783203"/>
      </g>
     </g>
    </g>
    <g id="xtick_14">
     <g id="text_14">
      <!-- FS5 -->
      <g style="fill: #262626" transform="translate(454.775251 530.937005) rotate(-45) scale(0.165 -0.165)">
       <use xlink:href="#ArialMT-46"/>
       <use xlink:href="#ArialMT-53" x="61.083984"/>
       <use xlink:href="#ArialMT-35" x="127.783203"/>
      </g>
     </g>
    </g>
    <g id="xtick_15">
     <g id="text_15">
      <!-- MA4 -->
      <g style="fill: #262626" transform="translate(480.786307 533.529325) rotate(-45) scale(0.165 -0.165)">
       <defs>
        <path id="ArialMT-4d" d="M 475 0 
L 475 4581 
L 1388 4581 
L 2472 1338 
Q 2622 884 2691 659 
Q 2769 909 2934 1394 
L 4031 4581 
L 4847 4581 
L 4847 0 
L 4263 0 
L 4263 3834 
L 2931 0 
L 2384 0 
L 1059 3900 
L 1059 0 
L 475 0 
z
" transform="scale(0.015625)"/>
       </defs>
       <use xlink:href="#ArialMT-4d"/>
       <use xlink:href="#ArialMT-41" x="83.300781"/>
       <use xlink:href="#ArialMT-34" x="150"/>
      </g>
     </g>
    </g>
    <g id="xtick_16">
     <g id="text_16">
      <!-- MA5 -->
      <g style="fill: #262626" transform="translate(508.093523 533.529325) rotate(-45) scale(0.165 -0.165)">
       <use xlink:href="#ArialMT-4d"/>
       <use xlink:href="#ArialMT-41" x="83.300781"/>
       <use xlink:href="#ArialMT-35" x="150"/>
      </g>
     </g>
    </g>
    <g id="xtick_17">
     <g id="text_17">
      <!-- MT4 -->
      <g style="fill: #262626" transform="translate(535.728881 532.873041) rotate(-45) scale(0.165 -0.165)">
       <defs>
        <path id="ArialMT-54" d="M 1659 0 
L 1659 4041 
L 150 4041 
L 150 4581 
L 3781 4581 
L 3781 4041 
L 2266 4041 
L 2266 0 
L 1659 0 
z
" transform="scale(0.015625)"/>
       </defs>
       <use xlink:href="#ArialMT-4d"/>
       <use xlink:href="#ArialMT-54" x="83.300781"/>
       <use xlink:href="#ArialMT-34" x="144.384766"/>
      </g>
     </g>
    </g>
    <g id="xtick_18">
     <g id="text_18">
      <!-- MT5 -->
      <g style="fill: #262626" transform="translate(563.036097 532.873041) rotate(-45) scale(0.165 -0.165)">
       <use xlink:href="#ArialMT-4d"/>
       <use xlink:href="#ArialMT-54" x="83.300781"/>
       <use xlink:href="#ArialMT-35" x="144.384766"/>
      </g>
     </g>
    </g>
    <g id="xtick_19">
     <g id="text_19">
      <!-- PA4 -->
      <g style="fill: #262626" transform="translate(591.413419 530.732828) rotate(-45) scale(0.165 -0.165)">
       <defs>
        <path id="ArialMT-50" d="M 494 0 
L 494 4581 
L 2222 4581 
Q 2678 4581 2919 4538 
Q 3256 4481 3484 4323 
Q 3713 4166 3852 3881 
Q 3991 3597 3991 3256 
Q 3991 2672 3619 2267 
Q 3247 1863 2275 1863 
L 1100 1863 
L 1100 0 
L 494 0 
z
M 1100 2403 
L 2284 2403 
Q 2872 2403 3119 2622 
Q 3366 2841 3366 3238 
Q 3366 3525 3220 3729 
Q 3075 3934 2838 4000 
Q 2684 4041 2272 4041 
L 1100 4041 
L 1100 2403 
z
" transform="scale(0.015625)"/>
       </defs>
       <use xlink:href="#ArialMT-50"/>
       <use xlink:href="#ArialMT-41" x="59.324219"/>
       <use xlink:href="#ArialMT-34" x="126.023438"/>
      </g>
     </g>
    </g>
    <g id="xtick_20">
     <g id="text_20">
      <!-- PA5 -->
      <g style="fill: #262626" transform="translate(618.720635 530.732828) rotate(-45) scale(0.165 -0.165)">
       <use xlink:href="#ArialMT-50"/>
       <use xlink:href="#ArialMT-41" x="59.324219"/>
       <use xlink:href="#ArialMT-35" x="126.023438"/>
      </g>
     </g>
    </g>
    <g id="xtick_21">
     <g id="text_21">
      <!-- RM4 -->
      <g style="fill: #262626" transform="translate(644.307841 534.172847) rotate(-45) scale(0.165 -0.165)">
       <defs>
        <path id="ArialMT-52" d="M 503 0 
L 503 4581 
L 2534 4581 
Q 3147 4581 3465 4457 
Q 3784 4334 3975 4021 
Q 4166 3709 4166 3331 
Q 4166 2844 3850 2509 
Q 3534 2175 2875 2084 
Q 3116 1969 3241 1856 
Q 3506 1613 3744 1247 
L 4541 0 
L 3778 0 
L 3172 953 
Q 2906 1366 2734 1584 
Q 2563 1803 2427 1890 
Q 2291 1978 2150 2013 
Q 2047 2034 1813 2034 
L 1109 2034 
L 1109 0 
L 503 0 
z
M 1109 2559 
L 2413 2559 
Q 2828 2559 3062 2645 
Q 3297 2731 3419 2920 
Q 3541 3109 3541 3331 
Q 3541 3656 3305 3865 
Q 3069 4075 2559 4075 
L 1109 4075 
L 1109 2559 
z
" transform="scale(0.015625)"/>
       </defs>
       <use xlink:href="#ArialMT-52"/>
       <use xlink:href="#ArialMT-4d" x="72.216797"/>
       <use xlink:href="#ArialMT-34" x="155.517578"/>
      </g>
     </g>
    </g>
    <g id="xtick_22">
     <g id="text_22">
      <!-- RM5 -->
      <g style="fill: #262626" transform="translate(671.615057 534.172847) rotate(-45) scale(0.165 -0.165)">
       <use xlink:href="#ArialMT-52"/>
       <use xlink:href="#ArialMT-4d" x="72.216797"/>
       <use xlink:href="#ArialMT-35" x="155.517578"/>
      </g>
     </g>
    </g>
    <g id="xtick_23">
     <g id="text_23">
      <!-- SA4 -->
      <g style="fill: #262626" transform="translate(700.212052 531.593288) rotate(-45) scale(0.165 -0.165)">
       <use xlink:href="#ArialMT-53"/>
       <use xlink:href="#ArialMT-41" x="66.699219"/>
       <use xlink:href="#ArialMT-34" x="133.398438"/>
      </g>
     </g>
    </g>
    <g id="xtick_24">
     <g id="text_24">
      <!-- SA5 -->
      <g style="fill: #262626" transform="translate(727.519268 531.593288) rotate(-45) scale(0.165 -0.165)">
       <use xlink:href="#ArialMT-53"/>
       <use xlink:href="#ArialMT-41" x="66.699219"/>
       <use xlink:href="#ArialMT-35" x="133.398438"/>
      </g>
     </g>
    </g>
    <g id="xtick_25">
     <g id="text_25">
      <!-- TA4 -->
      <g style="fill: #262626" transform="translate(755.584856 530.076544) rotate(-45) scale(0.165 -0.165)">
       <use xlink:href="#ArialMT-54"/>
       <use xlink:href="#ArialMT-41" x="53.708984"/>
       <use xlink:href="#ArialMT-34" x="120.408203"/>
      </g>
     </g>
    </g>
    <g id="xtick_26">
     <g id="text_26">
      <!-- TA5 -->
      <g style="fill: #262626" transform="translate(782.892072 530.076544) rotate(-45) scale(0.165 -0.165)">
       <use xlink:href="#ArialMT-54"/>
       <use xlink:href="#ArialMT-41" x="53.708984"/>
       <use xlink:href="#ArialMT-35" x="120.408203"/>
      </g>
     </g>
    </g>
    <g id="xtick_27">
     <g id="text_27">
      <!-- TR4 -->
      <g style="fill: #262626" transform="translate(809.447296 531.580527) rotate(-45) scale(0.165 -0.165)">
       <use xlink:href="#ArialMT-54"/>
       <use xlink:href="#ArialMT-52" x="61.083984"/>
       <use xlink:href="#ArialMT-34" x="133.300781"/>
      </g>
     </g>
    </g>
    <g id="xtick_28">
     <g id="text_28">
      <!-- TR5 -->
      <g style="fill: #262626" transform="translate(836.754512 531.580527) rotate(-45) scale(0.165 -0.165)">
       <use xlink:href="#ArialMT-54"/>
       <use xlink:href="#ArialMT-52" x="61.083984"/>
       <use xlink:href="#ArialMT-35" x="133.300781"/>
      </g>
     </g>
    </g>
    <g id="xtick_29">
     <g id="text_29">
      <!-- VA4 -->
      <g style="fill: #262626" transform="translate(864.485578 530.732828) rotate(-45) scale(0.165 -0.165)">
       <defs>
        <path id="ArialMT-56" d="M 1803 0 
L 28 4581 
L 684 4581 
L 1875 1253 
Q 2019 853 2116 503 
Q 2222 878 2363 1253 
L 3600 4581 
L 4219 4581 
L 2425 0 
L 1803 0 
z
" transform="scale(0.015625)"/>
       </defs>
       <use xlink:href="#ArialMT-56"/>
       <use xlink:href="#ArialMT-41" x="59.324219"/>
       <use xlink:href="#ArialMT-34" x="126.023438"/>
      </g>
     </g>
    </g>
    <g id="xtick_30">
     <g id="text_30">
      <!-- VA5 -->
      <g style="fill: #262626" transform="translate(891.792794 530.732828) rotate(-45) scale(0.165 -0.165)">
       <use xlink:href="#ArialMT-56"/>
       <use xlink:href="#ArialMT-41" x="59.324219"/>
       <use xlink:href="#ArialMT-35" x="126.023438"/>
      </g>
     </g>
    </g>
    <g id="text_31">
     <!-- Instance -->
     <g style="fill: #262626" transform="translate(469.398238 553.375778) scale(0.18 -0.18)">
      <defs>
       <path id="ArialMT-6e" d="M 422 0 
L 422 3319 
L 928 3319 
L 928 2847 
Q 1294 3394 1984 3394 
Q 2284 3394 2536 3286 
Q 2788 3178 2913 3003 
Q 3038 2828 3088 2588 
Q 3119 2431 3119 2041 
L 3119 0 
L 2556 0 
L 2556 2019 
Q 2556 2363 2490 2533 
Q 2425 2703 2258 2804 
Q 2091 2906 1866 2906 
Q 1506 2906 1245 2678 
Q 984 2450 984 1813 
L 984 0 
L 422 0 
z
" transform="scale(0.015625)"/>
       <path id="ArialMT-73" d="M 197 991 
L 753 1078 
Q 800 744 1014 566 
Q 1228 388 1613 388 
Q 2000 388 2187 545 
Q 2375 703 2375 916 
Q 2375 1106 2209 1216 
Q 2094 1291 1634 1406 
Q 1016 1563 777 1677 
Q 538 1791 414 1992 
Q 291 2194 291 2438 
Q 291 2659 392 2848 
Q 494 3038 669 3163 
Q 800 3259 1026 3326 
Q 1253 3394 1513 3394 
Q 1903 3394 2198 3281 
Q 2494 3169 2634 2976 
Q 2775 2784 2828 2463 
L 2278 2388 
Q 2241 2644 2061 2787 
Q 1881 2931 1553 2931 
Q 1166 2931 1000 2803 
Q 834 2675 834 2503 
Q 834 2394 903 2306 
Q 972 2216 1119 2156 
Q 1203 2125 1616 2013 
Q 2213 1853 2448 1751 
Q 2684 1650 2818 1456 
Q 2953 1263 2953 975 
Q 2953 694 2789 445 
Q 2625 197 2315 61 
Q 2006 -75 1616 -75 
Q 969 -75 630 194 
Q 291 463 197 991 
z
" transform="scale(0.015625)"/>
       <path id="ArialMT-74" d="M 1650 503 
L 1731 6 
Q 1494 -44 1306 -44 
Q 1000 -44 831 53 
Q 663 150 594 308 
Q 525 466 525 972 
L 525 2881 
L 113 2881 
L 113 3319 
L 525 3319 
L 525 4141 
L 1084 4478 
L 1084 3319 
L 1650 3319 
L 1650 2881 
L 1084 2881 
L 1084 941 
Q 1084 700 1114 631 
Q 1144 563 1211 522 
Q 1278 481 1403 481 
Q 1497 481 1650 503 
z
" transform="scale(0.015625)"/>
       <path id="ArialMT-61" d="M 2588 409 
Q 2275 144 1986 34 
Q 1697 -75 1366 -75 
Q 819 -75 525 192 
Q 231 459 231 875 
Q 231 1119 342 1320 
Q 453 1522 633 1644 
Q 813 1766 1038 1828 
Q 1203 1872 1538 1913 
Q 2219 1994 2541 2106 
Q 2544 2222 2544 2253 
Q 2544 2597 2384 2738 
Q 2169 2928 1744 2928 
Q 1347 2928 1158 2789 
Q 969 2650 878 2297 
L 328 2372 
Q 403 2725 575 2942 
Q 747 3159 1072 3276 
Q 1397 3394 1825 3394 
Q 2250 3394 2515 3294 
Q 2781 3194 2906 3042 
Q 3031 2891 3081 2659 
Q 3109 2516 3109 2141 
L 3109 1391 
Q 3109 606 3145 398 
Q 3181 191 3288 0 
L 2700 0 
Q 2613 175 2588 409 
z
M 2541 1666 
Q 2234 1541 1622 1453 
Q 1275 1403 1131 1340 
Q 988 1278 909 1158 
Q 831 1038 831 891 
Q 831 666 1001 516 
Q 1172 366 1500 366 
Q 1825 366 2078 508 
Q 2331 650 2450 897 
Q 2541 1088 2541 1459 
L 2541 1666 
z
" transform="scale(0.015625)"/>
       <path id="ArialMT-63" d="M 2588 1216 
L 3141 1144 
Q 3050 572 2676 248 
Q 2303 -75 1759 -75 
Q 1078 -75 664 370 
Q 250 816 250 1647 
Q 250 2184 428 2587 
Q 606 2991 970 3192 
Q 1334 3394 1763 3394 
Q 2303 3394 2647 3120 
Q 2991 2847 3088 2344 
L 2541 2259 
Q 2463 2594 2264 2762 
Q 2066 2931 1784 2931 
Q 1359 2931 1093 2626 
Q 828 2322 828 1663 
Q 828 994 1084 691 
Q 1341 388 1753 388 
Q 2084 388 2306 591 
Q 2528 794 2588 1216 
z
" transform="scale(0.015625)"/>
       <path id="ArialMT-65" d="M 2694 1069 
L 3275 997 
Q 3138 488 2766 206 
Q 2394 -75 1816 -75 
Q 1088 -75 661 373 
Q 234 822 234 1631 
Q 234 2469 665 2931 
Q 1097 3394 1784 3394 
Q 2450 3394 2872 2941 
Q 3294 2488 3294 1666 
Q 3294 1616 3291 1516 
L 816 1516 
Q 847 969 1125 678 
Q 1403 388 1819 388 
Q 2128 388 2347 550 
Q 2566 713 2694 1069 
z
M 847 1978 
L 2700 1978 
Q 2663 2397 2488 2606 
Q 2219 2931 1791 2931 
Q 1403 2931 1139 2672 
Q 875 2413 847 1978 
z
" transform="scale(0.015625)"/>
      </defs>
      <use xlink:href="#ArialMT-49"/>
      <use xlink:href="#ArialMT-6e" x="27.783203"/>
      <use xlink:href="#ArialMT-73" x="83.398438"/>
      <use xlink:href="#ArialMT-74" x="133.398438"/>
      <use xlink:href="#ArialMT-61" x="161.181641"/>
      <use xlink:href="#ArialMT-6e" x="216.796875"/>
      <use xlink:href="#ArialMT-63" x="272.412109"/>
      <use xlink:href="#ArialMT-65" x="322.412109"/>
     </g>
    </g>
   </g>
   <g id="matplotlib.axis_2">
    <g id="ytick_1">
     <g id="line2d_1">
      <path d="M 93.81 470.047695 
L 913.026476 470.047695 
" clip-path="url(#pe545fc83ad)" style="fill: none; stroke: #ffffff; stroke-width: 1.5; stroke-linecap: round"/>
     </g>
     <g id="text_32">
      <!-- 0.950 -->
      <g style="fill: #262626" transform="translate(40.023906 475.952891) scale(0.165 -0.165)">
       <defs>
        <path id="ArialMT-30" d="M 266 2259 
Q 266 3072 433 3567 
Q 600 4063 929 4331 
Q 1259 4600 1759 4600 
Q 2128 4600 2406 4451 
Q 2684 4303 2865 4023 
Q 3047 3744 3150 3342 
Q 3253 2941 3253 2259 
Q 3253 1453 3087 958 
Q 2922 463 2592 192 
Q 2263 -78 1759 -78 
Q 1097 -78 719 397 
Q 266 969 266 2259 
z
M 844 2259 
Q 844 1131 1108 757 
Q 1372 384 1759 384 
Q 2147 384 2411 759 
Q 2675 1134 2675 2259 
Q 2675 3391 2411 3762 
Q 2147 4134 1753 4134 
Q 1366 4134 1134 3806 
Q 844 3388 844 2259 
z
" transform="scale(0.015625)"/>
        <path id="ArialMT-2e" d="M 581 0 
L 581 641 
L 1222 641 
L 1222 0 
L 581 0 
z
" transform="scale(0.015625)"/>
        <path id="ArialMT-39" d="M 350 1059 
L 891 1109 
Q 959 728 1153 556 
Q 1347 384 1650 384 
Q 1909 384 2104 503 
Q 2300 622 2425 820 
Q 2550 1019 2634 1356 
Q 2719 1694 2719 2044 
Q 2719 2081 2716 2156 
Q 2547 1888 2255 1720 
Q 1963 1553 1622 1553 
Q 1053 1553 659 1965 
Q 266 2378 266 3053 
Q 266 3750 677 4175 
Q 1088 4600 1706 4600 
Q 2153 4600 2523 4359 
Q 2894 4119 3086 3673 
Q 3278 3228 3278 2384 
Q 3278 1506 3087 986 
Q 2897 466 2520 194 
Q 2144 -78 1638 -78 
Q 1100 -78 759 220 
Q 419 519 350 1059 
z
M 2653 3081 
Q 2653 3566 2395 3850 
Q 2138 4134 1775 4134 
Q 1400 4134 1122 3828 
Q 844 3522 844 3034 
Q 844 2597 1108 2323 
Q 1372 2050 1759 2050 
Q 2150 2050 2401 2323 
Q 2653 2597 2653 3081 
z
" transform="scale(0.015625)"/>
       </defs>
       <use xlink:href="#ArialMT-30"/>
       <use xlink:href="#ArialMT-2e" x="55.615234"/>
       <use xlink:href="#ArialMT-39" x="83.398438"/>
       <use xlink:href="#ArialMT-35" x="139.013672"/>
       <use xlink:href="#ArialMT-30" x="194.628906"/>
      </g>
     </g>
    </g>
    <g id="ytick_2">
     <g id="line2d_2">
      <path d="M 93.81 417.888187 
L 913.026476 417.888187 
" clip-path="url(#pe545fc83ad)" style="fill: none; stroke: #ffffff; stroke-width: 1.5; stroke-linecap: round"/>
     </g>
     <g id="text_33">
      <!-- 0.975 -->
      <g style="fill: #262626" transform="translate(40.023906 423.793382) scale(0.165 -0.165)">
       <defs>
        <path id="ArialMT-37" d="M 303 3981 
L 303 4522 
L 3269 4522 
L 3269 4084 
Q 2831 3619 2401 2847 
Q 1972 2075 1738 1259 
Q 1569 684 1522 0 
L 944 0 
Q 953 541 1156 1306 
Q 1359 2072 1739 2783 
Q 2119 3494 2547 3981 
L 303 3981 
z
" transform="scale(0.015625)"/>
       </defs>
       <use xlink:href="#ArialMT-30"/>
       <use xlink:href="#ArialMT-2e" x="55.615234"/>
       <use xlink:href="#ArialMT-39" x="83.398438"/>
       <use xlink:href="#ArialMT-37" x="139.013672"/>
       <use xlink:href="#ArialMT-35" x="194.628906"/>
      </g>
     </g>
    </g>
    <g id="ytick_3">
     <g id="line2d_3">
      <path d="M 93.81 365.728678 
L 913.026476 365.728678 
" clip-path="url(#pe545fc83ad)" style="fill: none; stroke: #ffffff; stroke-width: 1.5; stroke-linecap: round"/>
     </g>
     <g id="text_34">
      <!-- 1.000 -->
      <g style="fill: #262626" transform="translate(40.023906 371.633873) scale(0.165 -0.165)">
       <defs>
        <path id="ArialMT-31" d="M 2384 0 
L 1822 0 
L 1822 3584 
Q 1619 3391 1289 3197 
Q 959 3003 697 2906 
L 697 3450 
Q 1169 3672 1522 3987 
Q 1875 4303 2022 4600 
L 2384 4600 
L 2384 0 
z
" transform="scale(0.015625)"/>
       </defs>
       <use xlink:href="#ArialMT-31"/>
       <use xlink:href="#ArialMT-2e" x="55.615234"/>
       <use xlink:href="#ArialMT-30" x="83.398438"/>
       <use xlink:href="#ArialMT-30" x="139.013672"/>
       <use xlink:href="#ArialMT-30" x="194.628906"/>
      </g>
     </g>
    </g>
    <g id="ytick_4">
     <g id="line2d_4">
      <path d="M 93.81 313.569169 
L 913.026476 313.569169 
" clip-path="url(#pe545fc83ad)" style="fill: none; stroke: #ffffff; stroke-width: 1.5; stroke-linecap: round"/>
     </g>
     <g id="text_35">
      <!-- 1.025 -->
      <g style="fill: #262626" transform="translate(40.023906 319.474365) scale(0.165 -0.165)">
       <defs>
        <path id="ArialMT-32" d="M 3222 541 
L 3222 0 
L 194 0 
Q 188 203 259 391 
Q 375 700 629 1000 
Q 884 1300 1366 1694 
Q 2113 2306 2375 2664 
Q 2638 3022 2638 3341 
Q 2638 3675 2398 3904 
Q 2159 4134 1775 4134 
Q 1369 4134 1125 3890 
Q 881 3647 878 3216 
L 300 3275 
Q 359 3922 746 4261 
Q 1134 4600 1788 4600 
Q 2447 4600 2831 4234 
Q 3216 3869 3216 3328 
Q 3216 3053 3103 2787 
Q 2991 2522 2730 2228 
Q 2469 1934 1863 1422 
Q 1356 997 1212 845 
Q 1069 694 975 541 
L 3222 541 
z
" transform="scale(0.015625)"/>
       </defs>
       <use xlink:href="#ArialMT-31"/>
       <use xlink:href="#ArialMT-2e" x="55.615234"/>
       <use xlink:href="#ArialMT-30" x="83.398438"/>
       <use xlink:href="#ArialMT-32" x="139.013672"/>
       <use xlink:href="#ArialMT-35" x="194.628906"/>
      </g>
     </g>
    </g>
    <g id="ytick_5">
     <g id="line2d_5">
      <path d="M 93.81 261.409661 
L 913.026476 261.409661 
" clip-path="url(#pe545fc83ad)" style="fill: none; stroke: #ffffff; stroke-width: 1.5; stroke-linecap: round"/>
     </g>
     <g id="text_36">
      <!-- 1.050 -->
      <g style="fill: #262626" transform="translate(40.023906 267.314856) scale(0.165 -0.165)">
       <use xlink:href="#ArialMT-31"/>
       <use xlink:href="#ArialMT-2e" x="55.615234"/>
       <use xlink:href="#ArialMT-30" x="83.398438"/>
       <use xlink:href="#ArialMT-35" x="139.013672"/>
       <use xlink:href="#ArialMT-30" x="194.628906"/>
      </g>
     </g>
    </g>
    <g id="ytick_6">
     <g id="line2d_6">
      <path d="M 93.81 209.250152 
L 913.026476 209.250152 
" clip-path="url(#pe545fc83ad)" style="fill: none; stroke: #ffffff; stroke-width: 1.5; stroke-linecap: round"/>
     </g>
     <g id="text_37">
      <!-- 1.075 -->
      <g style="fill: #262626" transform="translate(40.023906 215.155347) scale(0.165 -0.165)">
       <use xlink:href="#ArialMT-31"/>
       <use xlink:href="#ArialMT-2e" x="55.615234"/>
       <use xlink:href="#ArialMT-30" x="83.398438"/>
       <use xlink:href="#ArialMT-37" x="139.013672"/>
       <use xlink:href="#ArialMT-35" x="194.628906"/>
      </g>
     </g>
    </g>
    <g id="ytick_7">
     <g id="line2d_7">
      <path d="M 93.81 157.090644 
L 913.026476 157.090644 
" clip-path="url(#pe545fc83ad)" style="fill: none; stroke: #ffffff; stroke-width: 1.5; stroke-linecap: round"/>
     </g>
     <g id="text_38">
      <!-- 1.100 -->
      <g style="fill: #262626" transform="translate(40.023906 162.995839) scale(0.165 -0.165)">
       <use xlink:href="#ArialMT-31"/>
       <use xlink:href="#ArialMT-2e" x="55.615234"/>
       <use xlink:href="#ArialMT-31" x="83.398438"/>
       <use xlink:href="#ArialMT-30" x="139.013672"/>
       <use xlink:href="#ArialMT-30" x="194.628906"/>
      </g>
     </g>
    </g>
    <g id="ytick_8">
     <g id="line2d_8">
      <path d="M 93.81 104.931135 
L 913.026476 104.931135 
" clip-path="url(#pe545fc83ad)" style="fill: none; stroke: #ffffff; stroke-width: 1.5; stroke-linecap: round"/>
     </g>
     <g id="text_39">
      <!-- 1.125 -->
      <g style="fill: #262626" transform="translate(40.023906 110.83633) scale(0.165 -0.165)">
       <use xlink:href="#ArialMT-31"/>
       <use xlink:href="#ArialMT-2e" x="55.615234"/>
       <use xlink:href="#ArialMT-31" x="83.398438"/>
       <use xlink:href="#ArialMT-32" x="139.013672"/>
       <use xlink:href="#ArialMT-35" x="194.628906"/>
      </g>
     </g>
    </g>
    <g id="ytick_9">
     <g id="line2d_9">
      <path d="M 93.81 52.771626 
L 913.026476 52.771626 
" clip-path="url(#pe545fc83ad)" style="fill: none; stroke: #ffffff; stroke-width: 1.5; stroke-linecap: round"/>
     </g>
     <g id="text_40">
      <!-- 1.150 -->
      <g style="fill: #262626" transform="translate(40.023906 58.676822) scale(0.165 -0.165)">
       <use xlink:href="#ArialMT-31"/>
       <use xlink:href="#ArialMT-2e" x="55.615234"/>
       <use xlink:href="#ArialMT-31" x="83.398438"/>
       <use xlink:href="#ArialMT-35" x="139.013672"/>
       <use xlink:href="#ArialMT-30" x="194.628906"/>
      </g>
     </g>
    </g>
    <g id="text_41">
     <!-- Change in Objective Cost -->
     <g style="fill: #262626" transform="translate(32.235469 365.593317) rotate(-90) scale(0.18 -0.18)">
      <defs>
       <path id="ArialMT-68" d="M 422 0 
L 422 4581 
L 984 4581 
L 984 2938 
Q 1378 3394 1978 3394 
Q 2347 3394 2619 3248 
Q 2891 3103 3008 2847 
Q 3125 2591 3125 2103 
L 3125 0 
L 2563 0 
L 2563 2103 
Q 2563 2525 2380 2717 
Q 2197 2909 1863 2909 
Q 1613 2909 1392 2779 
Q 1172 2650 1078 2428 
Q 984 2206 984 1816 
L 984 0 
L 422 0 
z
" transform="scale(0.015625)"/>
       <path id="ArialMT-67" d="M 319 -275 
L 866 -356 
Q 900 -609 1056 -725 
Q 1266 -881 1628 -881 
Q 2019 -881 2231 -725 
Q 2444 -569 2519 -288 
Q 2563 -116 2559 434 
Q 2191 0 1641 0 
Q 956 0 581 494 
Q 206 988 206 1678 
Q 206 2153 378 2554 
Q 550 2956 876 3175 
Q 1203 3394 1644 3394 
Q 2231 3394 2613 2919 
L 2613 3319 
L 3131 3319 
L 3131 450 
Q 3131 -325 2973 -648 
Q 2816 -972 2473 -1159 
Q 2131 -1347 1631 -1347 
Q 1038 -1347 672 -1080 
Q 306 -813 319 -275 
z
M 784 1719 
Q 784 1066 1043 766 
Q 1303 466 1694 466 
Q 2081 466 2343 764 
Q 2606 1063 2606 1700 
Q 2606 2309 2336 2618 
Q 2066 2928 1684 2928 
Q 1309 2928 1046 2623 
Q 784 2319 784 1719 
z
" transform="scale(0.015625)"/>
       <path id="ArialMT-20" transform="scale(0.015625)"/>
       <path id="ArialMT-69" d="M 425 3934 
L 425 4581 
L 988 4581 
L 988 3934 
L 425 3934 
z
M 425 0 
L 425 3319 
L 988 3319 
L 988 0 
L 425 0 
z
" transform="scale(0.015625)"/>
       <path id="ArialMT-62" d="M 941 0 
L 419 0 
L 419 4581 
L 981 4581 
L 981 2947 
Q 1338 3394 1891 3394 
Q 2197 3394 2470 3270 
Q 2744 3147 2920 2923 
Q 3097 2700 3197 2384 
Q 3297 2069 3297 1709 
Q 3297 856 2875 390 
Q 2453 -75 1863 -75 
Q 1275 -75 941 416 
L 941 0 
z
M 934 1684 
Q 934 1088 1097 822 
Q 1363 388 1816 388 
Q 2184 388 2453 708 
Q 2722 1028 2722 1663 
Q 2722 2313 2464 2622 
Q 2206 2931 1841 2931 
Q 1472 2931 1203 2611 
Q 934 2291 934 1684 
z
" transform="scale(0.015625)"/>
       <path id="ArialMT-6a" d="M 419 3928 
L 419 4581 
L 981 4581 
L 981 3928 
L 419 3928 
z
M -294 -1288 
L -188 -809 
Q -19 -853 78 -853 
Q 250 -853 334 -739 
Q 419 -625 419 -169 
L 419 3319 
L 981 3319 
L 981 -181 
Q 981 -794 822 -1034 
Q 619 -1347 147 -1347 
Q -81 -1347 -294 -1288 
z
" transform="scale(0.015625)"/>
       <path id="ArialMT-76" d="M 1344 0 
L 81 3319 
L 675 3319 
L 1388 1331 
Q 1503 1009 1600 663 
Q 1675 925 1809 1294 
L 2547 3319 
L 3125 3319 
L 1869 0 
L 1344 0 
z
" transform="scale(0.015625)"/>
       <path id="ArialMT-6f" d="M 213 1659 
Q 213 2581 725 3025 
Q 1153 3394 1769 3394 
Q 2453 3394 2887 2945 
Q 3322 2497 3322 1706 
Q 3322 1066 3130 698 
Q 2938 331 2570 128 
Q 2203 -75 1769 -75 
Q 1072 -75 642 372 
Q 213 819 213 1659 
z
M 791 1659 
Q 791 1022 1069 705 
Q 1347 388 1769 388 
Q 2188 388 2466 706 
Q 2744 1025 2744 1678 
Q 2744 2294 2464 2611 
Q 2184 2928 1769 2928 
Q 1347 2928 1069 2612 
Q 791 2297 791 1659 
z
" transform="scale(0.015625)"/>
      </defs>
      <use xlink:href="#ArialMT-43"/>
      <use xlink:href="#ArialMT-68" x="72.216797"/>
      <use xlink:href="#ArialMT-61" x="127.832031"/>
      <use xlink:href="#ArialMT-6e" x="183.447266"/>
      <use xlink:href="#ArialMT-67" x="239.0625"/>
      <use xlink:href="#ArialMT-65" x="294.677734"/>
      <use xlink:href="#ArialMT-20" x="350.292969"/>
      <use xlink:href="#ArialMT-69" x="378.076172"/>
      <use xlink:href="#ArialMT-6e" x="400.292969"/>
      <use xlink:href="#ArialMT-20" x="455.908203"/>
      <use xlink:href="#ArialMT-4f" x="483.691406"/>
      <use xlink:href="#ArialMT-62" x="561.474609"/>
      <use xlink:href="#ArialMT-6a" x="617.089844"/>
      <use xlink:href="#ArialMT-65" x="639.306641"/>
      <use xlink:href="#ArialMT-63" x="694.921875"/>
      <use xlink:href="#ArialMT-74" x="744.921875"/>
      <use xlink:href="#ArialMT-69" x="772.705078"/>
      <use xlink:href="#ArialMT-76" x="794.921875"/>
      <use xlink:href="#ArialMT-65" x="844.921875"/>
      <use xlink:href="#ArialMT-20" x="900.537109"/>
      <use xlink:href="#ArialMT-43" x="928.320312"/>
      <use xlink:href="#ArialMT-6f" x="1000.537109"/>
      <use xlink:href="#ArialMT-73" x="1056.152344"/>
      <use xlink:href="#ArialMT-74" x="1106.152344"/>
     </g>
    </g>
   </g>
   <g id="patch_3">
    <path d="M 107.463608 2452.109024 
L 107.463608 2452.109024 
L 107.463608 2452.109024 
L 107.463608 2452.109024 
z
" clip-path="url(#pe545fc83ad)" style="fill: #5875a4; stroke: #4c4c4c; stroke-width: 1.5; stroke-linejoin: miter"/>
   </g>
   <g id="patch_4">
    <path d="M 96.540722 462.660667 
L 118.386494 462.660667 
L 118.386494 392.368933 
L 96.540722 392.368933 
L 96.540722 462.660667 
z
" clip-path="url(#pe545fc83ad)" style="fill: #5875a4; stroke: #4c4c4c; stroke-linejoin: miter"/>
   </g>
   <g id="line2d_10">
    <path d="M 107.463608 462.660667 
L 107.463608 466.012597 
" clip-path="url(#pe545fc83ad)" style="fill: none; stroke: #4c4c4c"/>
   </g>
   <g id="line2d_11">
    <path d="M 107.463608 392.368933 
L 107.463608 293.768618 
" clip-path="url(#pe545fc83ad)" style="fill: none; stroke: #4c4c4c"/>
   </g>
   <g id="line2d_12">
    <path d="M 102.002165 466.012597 
L 112.925051 466.012597 
" clip-path="url(#pe545fc83ad)" style="fill: none; stroke: #4c4c4c; stroke-linecap: round"/>
   </g>
   <g id="line2d_13">
    <path d="M 102.002165 293.768618 
L 112.925051 293.768618 
" clip-path="url(#pe545fc83ad)" style="fill: none; stroke: #4c4c4c; stroke-linecap: round"/>
   </g>
   <g id="line2d_14">
    <defs>
     <path id="m82a85a3e37" d="M 0 4.5 
C 1.193414 4.5 2.338109 4.025852 3.181981 3.181981 
C 4.025852 2.338109 4.5 1.193414 4.5 0 
C 4.5 -1.193414 4.025852 -2.338109 3.181981 -3.181981 
C 2.338109 -4.025852 1.193414 -4.5 0 -4.5 
C -1.193414 -4.5 -2.338109 -4.025852 -3.181981 -3.181981 
C -4.025852 -2.338109 -4.5 -1.193414 -4.5 0 
C -4.5 1.193414 -4.025852 2.338109 -3.181981 3.181981 
C -2.338109 4.025852 -1.193414 4.5 0 4.5 
z
" style="stroke: #4c4c4c"/>
    </defs>
    <g clip-path="url(#pe545fc83ad)">
     <use xlink:href="#m82a85a3e37" x="107.463608" y="58.867688" style="fill-opacity: 0; stroke: #4c4c4c"/>
    </g>
   </g>
   <g id="patch_5">
    <path d="M 123.847937 454.553808 
L 145.69371 454.553808 
L 145.69371 402.535893 
L 123.847937 402.535893 
L 123.847937 454.553808 
z
" clip-path="url(#pe545fc83ad)" style="fill: #5875a4; stroke: #4c4c4c; stroke-linejoin: miter"/>
   </g>
   <g id="line2d_15">
    <path d="M 134.770824 454.553808 
L 134.770824 458.267693 
" clip-path="url(#pe545fc83ad)" style="fill: none; stroke: #4c4c4c"/>
   </g>
   <g id="line2d_16">
    <path d="M 134.770824 402.535893 
L 134.770824 325.264027 
" clip-path="url(#pe545fc83ad)" style="fill: none; stroke: #4c4c4c"/>
   </g>
   <g id="line2d_17">
    <path d="M 129.309381 458.267693 
L 140.232267 458.267693 
" clip-path="url(#pe545fc83ad)" style="fill: none; stroke: #4c4c4c; stroke-linecap: round"/>
   </g>
   <g id="line2d_18">
    <path d="M 129.309381 325.264027 
L 140.232267 325.264027 
" clip-path="url(#pe545fc83ad)" style="fill: none; stroke: #4c4c4c; stroke-linecap: round"/>
   </g>
   <g id="line2d_19">
    <g clip-path="url(#pe545fc83ad)">
     <use xlink:href="#m82a85a3e37" x="134.770824" y="105.874307" style="fill-opacity: 0; stroke: #4c4c4c"/>
    </g>
   </g>
   <g id="patch_6">
    <path d="M 151.155153 360.478992 
L 173.000926 360.478992 
L 173.000926 348.400052 
L 151.155153 348.400052 
L 151.155153 360.478992 
z
" clip-path="url(#pe545fc83ad)" style="fill: #5875a4; stroke: #4c4c4c; stroke-linejoin: miter"/>
   </g>
   <g id="line2d_20">
    <path d="M 162.07804 360.478992 
L 162.07804 368.15546 
" clip-path="url(#pe545fc83ad)" style="fill: none; stroke: #4c4c4c"/>
   </g>
   <g id="line2d_21">
    <path d="M 162.07804 348.400052 
L 162.07804 347.817633 
" clip-path="url(#pe545fc83ad)" style="fill: none; stroke: #4c4c4c"/>
   </g>
   <g id="line2d_22">
    <path d="M 156.616596 368.15546 
L 167.539483 368.15546 
" clip-path="url(#pe545fc83ad)" style="fill: none; stroke: #4c4c4c; stroke-linecap: round"/>
   </g>
   <g id="line2d_23">
    <path d="M 156.616596 347.817633 
L 167.539483 347.817633 
" clip-path="url(#pe545fc83ad)" style="fill: none; stroke: #4c4c4c; stroke-linecap: round"/>
   </g>
   <g id="line2d_24">
    <g clip-path="url(#pe545fc83ad)">
     <use xlink:href="#m82a85a3e37" x="162.07804" y="324.07106" style="fill-opacity: 0; stroke: #4c4c4c"/>
     <use xlink:href="#m82a85a3e37" x="162.07804" y="327.307625" style="fill-opacity: 0; stroke: #4c4c4c"/>
    </g>
   </g>
   <g id="patch_7">
    <path d="M 178.462369 356.415484 
L 200.308142 356.415484 
L 200.308142 306.009072 
L 178.462369 306.009072 
L 178.462369 356.415484 
z
" clip-path="url(#pe545fc83ad)" style="fill: #5875a4; stroke: #4c4c4c; stroke-linejoin: miter"/>
   </g>
   <g id="line2d_25">
    <path d="M 189.385255 356.415484 
L 189.385255 359.846446 
" clip-path="url(#pe545fc83ad)" style="fill: none; stroke: #4c4c4c"/>
   </g>
   <g id="line2d_26">
    <path d="M 189.385255 306.009072 
L 189.385255 282.682596 
" clip-path="url(#pe545fc83ad)" style="fill: none; stroke: #4c4c4c"/>
   </g>
   <g id="line2d_27">
    <path d="M 183.923812 359.846446 
L 194.846699 359.846446 
" clip-path="url(#pe545fc83ad)" style="fill: none; stroke: #4c4c4c; stroke-linecap: round"/>
   </g>
   <g id="line2d_28">
    <path d="M 183.923812 282.682596 
L 194.846699 282.682596 
" clip-path="url(#pe545fc83ad)" style="fill: none; stroke: #4c4c4c; stroke-linecap: round"/>
   </g>
   <g id="line2d_29"/>
   <g id="patch_8">
    <path d="M 205.769585 372.074241 
L 227.615358 372.074241 
L 227.615358 355.793005 
L 205.769585 355.793005 
L 205.769585 372.074241 
z
" clip-path="url(#pe545fc83ad)" style="fill: #5875a4; stroke: #4c4c4c; stroke-linejoin: miter"/>
   </g>
   <g id="line2d_30">
    <path d="M 216.692471 372.074241 
L 216.692471 378.018674 
" clip-path="url(#pe545fc83ad)" style="fill: none; stroke: #4c4c4c"/>
   </g>
   <g id="line2d_31">
    <path d="M 216.692471 355.793005 
L 216.692471 338.161813 
" clip-path="url(#pe545fc83ad)" style="fill: none; stroke: #4c4c4c"/>
   </g>
   <g id="line2d_32">
    <path d="M 211.231028 378.018674 
L 222.153915 378.018674 
" clip-path="url(#pe545fc83ad)" style="fill: none; stroke: #4c4c4c; stroke-linecap: round"/>
   </g>
   <g id="line2d_33">
    <path d="M 211.231028 338.161813 
L 222.153915 338.161813 
" clip-path="url(#pe545fc83ad)" style="fill: none; stroke: #4c4c4c; stroke-linecap: round"/>
   </g>
   <g id="line2d_34"/>
   <g id="patch_9">
    <path d="M 233.076801 364.756088 
L 254.922574 364.756088 
L 254.922574 362.852891 
L 233.076801 362.852891 
L 233.076801 364.756088 
z
" clip-path="url(#pe545fc83ad)" style="fill: #5875a4; stroke: #4c4c4c; stroke-linejoin: miter"/>
   </g>
   <g id="line2d_35">
    <path d="M 243.999687 364.756088 
L 243.999687 365.490778 
" clip-path="url(#pe545fc83ad)" style="fill: none; stroke: #4c4c4c"/>
   </g>
   <g id="line2d_36">
    <path d="M 243.999687 362.852891 
L 243.999687 361.460478 
" clip-path="url(#pe545fc83ad)" style="fill: none; stroke: #4c4c4c"/>
   </g>
   <g id="line2d_37">
    <path d="M 238.538244 365.490778 
L 249.46113 365.490778 
" clip-path="url(#pe545fc83ad)" style="fill: none; stroke: #4c4c4c; stroke-linecap: round"/>
   </g>
   <g id="line2d_38">
    <path d="M 238.538244 361.460478 
L 249.46113 361.460478 
" clip-path="url(#pe545fc83ad)" style="fill: none; stroke: #4c4c4c; stroke-linecap: round"/>
   </g>
   <g id="line2d_39"/>
   <g id="patch_10">
    <path d="M 260.384017 359.025954 
L 282.229789 359.025954 
L 282.229789 333.355037 
L 260.384017 333.355037 
L 260.384017 359.025954 
z
" clip-path="url(#pe545fc83ad)" style="fill: #5875a4; stroke: #4c4c4c; stroke-linejoin: miter"/>
   </g>
   <g id="line2d_40">
    <path d="M 271.306903 359.025954 
L 271.306903 366.25148 
" clip-path="url(#pe545fc83ad)" style="fill: none; stroke: #4c4c4c"/>
   </g>
   <g id="line2d_41">
    <path d="M 271.306903 333.355037 
L 271.306903 328.201934 
" clip-path="url(#pe545fc83ad)" style="fill: none; stroke: #4c4c4c"/>
   </g>
   <g id="line2d_42">
    <path d="M 265.84546 366.25148 
L 276.768346 366.25148 
" clip-path="url(#pe545fc83ad)" style="fill: none; stroke: #4c4c4c; stroke-linecap: round"/>
   </g>
   <g id="line2d_43">
    <path d="M 265.84546 328.201934 
L 276.768346 328.201934 
" clip-path="url(#pe545fc83ad)" style="fill: none; stroke: #4c4c4c; stroke-linecap: round"/>
   </g>
   <g id="line2d_44">
    <g clip-path="url(#pe545fc83ad)">
     <use xlink:href="#m82a85a3e37" x="271.306903" y="255.971121" style="fill-opacity: 0; stroke: #4c4c4c"/>
     <use xlink:href="#m82a85a3e37" x="271.306903" y="261.348056" style="fill-opacity: 0; stroke: #4c4c4c"/>
    </g>
   </g>
   <g id="patch_11">
    <path d="M 287.691233 364.069685 
L 309.537005 364.069685 
L 309.537005 352.635851 
L 287.691233 352.635851 
L 287.691233 364.069685 
z
" clip-path="url(#pe545fc83ad)" style="fill: #5875a4; stroke: #4c4c4c; stroke-linejoin: miter"/>
   </g>
   <g id="line2d_45">
    <path d="M 298.614119 364.069685 
L 298.614119 366.884429 
" clip-path="url(#pe545fc83ad)" style="fill: none; stroke: #4c4c4c"/>
   </g>
   <g id="line2d_46">
    <path d="M 298.614119 352.635851 
L 298.614119 350.179347 
" clip-path="url(#pe545fc83ad)" style="fill: none; stroke: #4c4c4c"/>
   </g>
   <g id="line2d_47">
    <path d="M 293.152676 366.884429 
L 304.075562 366.884429 
" clip-path="url(#pe545fc83ad)" style="fill: none; stroke: #4c4c4c; stroke-linecap: round"/>
   </g>
   <g id="line2d_48">
    <path d="M 293.152676 350.179347 
L 304.075562 350.179347 
" clip-path="url(#pe545fc83ad)" style="fill: none; stroke: #4c4c4c; stroke-linecap: round"/>
   </g>
   <g id="line2d_49">
    <g clip-path="url(#pe545fc83ad)">
     <use xlink:href="#m82a85a3e37" x="298.614119" y="258.717208" style="fill-opacity: 0; stroke: #4c4c4c"/>
    </g>
   </g>
   <g id="patch_12">
    <path d="M 314.998448 365.656523 
L 336.844221 365.656523 
L 336.844221 355.658613 
L 314.998448 355.658613 
L 314.998448 365.656523 
z
" clip-path="url(#pe545fc83ad)" style="fill: #5875a4; stroke: #4c4c4c; stroke-linejoin: miter"/>
   </g>
   <g id="line2d_50">
    <path d="M 325.921335 365.656523 
L 325.921335 372.149652 
" clip-path="url(#pe545fc83ad)" style="fill: none; stroke: #4c4c4c"/>
   </g>
   <g id="line2d_51">
    <path d="M 325.921335 355.658613 
L 325.921335 354.370364 
" clip-path="url(#pe545fc83ad)" style="fill: none; stroke: #4c4c4c"/>
   </g>
   <g id="line2d_52">
    <path d="M 320.459892 372.149652 
L 331.382778 372.149652 
" clip-path="url(#pe545fc83ad)" style="fill: none; stroke: #4c4c4c; stroke-linecap: round"/>
   </g>
   <g id="line2d_53">
    <path d="M 320.459892 354.370364 
L 331.382778 354.370364 
" clip-path="url(#pe545fc83ad)" style="fill: none; stroke: #4c4c4c; stroke-linecap: round"/>
   </g>
   <g id="line2d_54">
    <g clip-path="url(#pe545fc83ad)">
     <use xlink:href="#m82a85a3e37" x="325.921335" y="285.688644" style="fill-opacity: 0; stroke: #4c4c4c"/>
     <use xlink:href="#m82a85a3e37" x="325.921335" y="328.8097" style="fill-opacity: 0; stroke: #4c4c4c"/>
    </g>
   </g>
   <g id="patch_13">
    <path d="M 342.305664 371.378394 
L 364.151437 371.378394 
L 364.151437 365.064675 
L 342.305664 365.064675 
L 342.305664 371.378394 
z
" clip-path="url(#pe545fc83ad)" style="fill: #5875a4; stroke: #4c4c4c; stroke-linejoin: miter"/>
   </g>
   <g id="line2d_55">
    <path d="M 353.228551 371.378394 
L 353.228551 379.395753 
" clip-path="url(#pe545fc83ad)" style="fill: none; stroke: #4c4c4c"/>
   </g>
   <g id="line2d_56">
    <path d="M 353.228551 365.064675 
L 353.228551 364.051597 
" clip-path="url(#pe545fc83ad)" style="fill: none; stroke: #4c4c4c"/>
   </g>
   <g id="line2d_57">
    <path d="M 347.767107 379.395753 
L 358.689994 379.395753 
" clip-path="url(#pe545fc83ad)" style="fill: none; stroke: #4c4c4c; stroke-linecap: round"/>
   </g>
   <g id="line2d_58">
    <path d="M 347.767107 364.051597 
L 358.689994 364.051597 
" clip-path="url(#pe545fc83ad)" style="fill: none; stroke: #4c4c4c; stroke-linecap: round"/>
   </g>
   <g id="line2d_59">
    <g clip-path="url(#pe545fc83ad)">
     <use xlink:href="#m82a85a3e37" x="353.228551" y="352.304438" style="fill-opacity: 0; stroke: #4c4c4c"/>
    </g>
   </g>
   <g id="patch_14">
    <path d="M 369.61288 359.780289 
L 391.458653 359.780289 
L 391.458653 350.999713 
L 369.61288 350.999713 
L 369.61288 359.780289 
z
" clip-path="url(#pe545fc83ad)" style="fill: #5875a4; stroke: #4c4c4c; stroke-linejoin: miter"/>
   </g>
   <g id="line2d_60">
    <path d="M 380.535766 359.780289 
L 380.535766 362.322782 
" clip-path="url(#pe545fc83ad)" style="fill: none; stroke: #4c4c4c"/>
   </g>
   <g id="line2d_61">
    <path d="M 380.535766 350.999713 
L 380.535766 347.013293 
" clip-path="url(#pe545fc83ad)" style="fill: none; stroke: #4c4c4c"/>
   </g>
   <g id="line2d_62">
    <path d="M 375.074323 362.322782 
L 385.99721 362.322782 
" clip-path="url(#pe545fc83ad)" style="fill: none; stroke: #4c4c4c; stroke-linecap: round"/>
   </g>
   <g id="line2d_63">
    <path d="M 375.074323 347.013293 
L 385.99721 347.013293 
" clip-path="url(#pe545fc83ad)" style="fill: none; stroke: #4c4c4c; stroke-linecap: round"/>
   </g>
   <g id="line2d_64"/>
   <g id="patch_15">
    <path d="M 396.920096 382.143573 
L 418.765869 382.143573 
L 418.765869 367.343946 
L 396.920096 367.343946 
L 396.920096 382.143573 
z
" clip-path="url(#pe545fc83ad)" style="fill: #5875a4; stroke: #4c4c4c; stroke-linejoin: miter"/>
   </g>
   <g id="line2d_65">
    <path d="M 407.842982 382.143573 
L 407.842982 385.86708 
" clip-path="url(#pe545fc83ad)" style="fill: none; stroke: #4c4c4c"/>
   </g>
   <g id="line2d_66">
    <path d="M 407.842982 367.343946 
L 407.842982 353.561727 
" clip-path="url(#pe545fc83ad)" style="fill: none; stroke: #4c4c4c"/>
   </g>
   <g id="line2d_67">
    <path d="M 402.381539 385.86708 
L 413.304426 385.86708 
" clip-path="url(#pe545fc83ad)" style="fill: none; stroke: #4c4c4c; stroke-linecap: round"/>
   </g>
   <g id="line2d_68">
    <path d="M 402.381539 353.561727 
L 413.304426 353.561727 
" clip-path="url(#pe545fc83ad)" style="fill: none; stroke: #4c4c4c; stroke-linecap: round"/>
   </g>
   <g id="line2d_69"/>
   <g id="patch_16">
    <path d="M 424.227312 412.968105 
L 446.073085 412.968105 
L 446.073085 282.418861 
L 424.227312 282.418861 
L 424.227312 412.968105 
z
" clip-path="url(#pe545fc83ad)" style="fill: #5875a4; stroke: #4c4c4c; stroke-linejoin: miter"/>
   </g>
   <g id="line2d_70">
    <path d="M 435.150198 412.968105 
L 435.150198 424.923529 
" clip-path="url(#pe545fc83ad)" style="fill: none; stroke: #4c4c4c"/>
   </g>
   <g id="line2d_71">
    <path d="M 435.150198 282.418861 
L 435.150198 273.400936 
" clip-path="url(#pe545fc83ad)" style="fill: none; stroke: #4c4c4c"/>
   </g>
   <g id="line2d_72">
    <path d="M 429.688755 424.923529 
L 440.611641 424.923529 
" clip-path="url(#pe545fc83ad)" style="fill: none; stroke: #4c4c4c; stroke-linecap: round"/>
   </g>
   <g id="line2d_73">
    <path d="M 429.688755 273.400936 
L 440.611641 273.400936 
" clip-path="url(#pe545fc83ad)" style="fill: none; stroke: #4c4c4c; stroke-linecap: round"/>
   </g>
   <g id="line2d_74"/>
   <g id="patch_17">
    <path d="M 451.534528 376.797634 
L 473.3803 376.797634 
L 473.3803 362.443938 
L 451.534528 362.443938 
L 451.534528 376.797634 
z
" clip-path="url(#pe545fc83ad)" style="fill: #5875a4; stroke: #4c4c4c; stroke-linejoin: miter"/>
   </g>
   <g id="line2d_75">
    <path d="M 462.457414 376.797634 
L 462.457414 381.012017 
" clip-path="url(#pe545fc83ad)" style="fill: none; stroke: #4c4c4c"/>
   </g>
   <g id="line2d_76">
    <path d="M 462.457414 362.443938 
L 462.457414 347.792756 
" clip-path="url(#pe545fc83ad)" style="fill: none; stroke: #4c4c4c"/>
   </g>
   <g id="line2d_77">
    <path d="M 456.995971 381.012017 
L 467.918857 381.012017 
" clip-path="url(#pe545fc83ad)" style="fill: none; stroke: #4c4c4c; stroke-linecap: round"/>
   </g>
   <g id="line2d_78">
    <path d="M 456.995971 347.792756 
L 467.918857 347.792756 
" clip-path="url(#pe545fc83ad)" style="fill: none; stroke: #4c4c4c; stroke-linecap: round"/>
   </g>
   <g id="line2d_79"/>
   <g id="patch_18">
    <path d="M 478.841744 373.014078 
L 500.687516 373.014078 
L 500.687516 340.733823 
L 478.841744 340.733823 
L 478.841744 373.014078 
z
" clip-path="url(#pe545fc83ad)" style="fill: #5875a4; stroke: #4c4c4c; stroke-linejoin: miter"/>
   </g>
   <g id="line2d_80">
    <path d="M 489.76463 373.014078 
L 489.76463 383.275254 
" clip-path="url(#pe545fc83ad)" style="fill: none; stroke: #4c4c4c"/>
   </g>
   <g id="line2d_81">
    <path d="M 489.76463 340.733823 
L 489.76463 293.02371 
" clip-path="url(#pe545fc83ad)" style="fill: none; stroke: #4c4c4c"/>
   </g>
   <g id="line2d_82">
    <path d="M 484.303187 383.275254 
L 495.226073 383.275254 
" clip-path="url(#pe545fc83ad)" style="fill: none; stroke: #4c4c4c; stroke-linecap: round"/>
   </g>
   <g id="line2d_83">
    <path d="M 484.303187 293.02371 
L 495.226073 293.02371 
" clip-path="url(#pe545fc83ad)" style="fill: none; stroke: #4c4c4c; stroke-linecap: round"/>
   </g>
   <g id="line2d_84"/>
   <g id="patch_19">
    <path d="M 506.148959 357.95019 
L 527.994732 357.95019 
L 527.994732 347.708348 
L 506.148959 347.708348 
L 506.148959 357.95019 
z
" clip-path="url(#pe545fc83ad)" style="fill: #5875a4; stroke: #4c4c4c; stroke-linejoin: miter"/>
   </g>
   <g id="line2d_85">
    <path d="M 517.071846 357.95019 
L 517.071846 359.415703 
" clip-path="url(#pe545fc83ad)" style="fill: none; stroke: #4c4c4c"/>
   </g>
   <g id="line2d_86">
    <path d="M 517.071846 347.708348 
L 517.071846 342.952409 
" clip-path="url(#pe545fc83ad)" style="fill: none; stroke: #4c4c4c"/>
   </g>
   <g id="line2d_87">
    <path d="M 511.610403 359.415703 
L 522.533289 359.415703 
" clip-path="url(#pe545fc83ad)" style="fill: none; stroke: #4c4c4c; stroke-linecap: round"/>
   </g>
   <g id="line2d_88">
    <path d="M 511.610403 342.952409 
L 522.533289 342.952409 
" clip-path="url(#pe545fc83ad)" style="fill: none; stroke: #4c4c4c; stroke-linecap: round"/>
   </g>
   <g id="line2d_89">
    <g clip-path="url(#pe545fc83ad)">
     <use xlink:href="#m82a85a3e37" x="517.071846" y="316.823209" style="fill-opacity: 0; stroke: #4c4c4c"/>
    </g>
   </g>
   <g id="patch_20">
    <path d="M 533.456175 363.797239 
L 555.301948 363.797239 
L 555.301948 346.752487 
L 533.456175 346.752487 
L 533.456175 363.797239 
z
" clip-path="url(#pe545fc83ad)" style="fill: #5875a4; stroke: #4c4c4c; stroke-linejoin: miter"/>
   </g>
   <g id="line2d_90">
    <path d="M 544.379062 363.797239 
L 544.379062 366.639324 
" clip-path="url(#pe545fc83ad)" style="fill: none; stroke: #4c4c4c"/>
   </g>
   <g id="line2d_91">
    <path d="M 544.379062 346.752487 
L 544.379062 330.221234 
" clip-path="url(#pe545fc83ad)" style="fill: none; stroke: #4c4c4c"/>
   </g>
   <g id="line2d_92">
    <path d="M 538.917618 366.639324 
L 549.840505 366.639324 
" clip-path="url(#pe545fc83ad)" style="fill: none; stroke: #4c4c4c; stroke-linecap: round"/>
   </g>
   <g id="line2d_93">
    <path d="M 538.917618 330.221234 
L 549.840505 330.221234 
" clip-path="url(#pe545fc83ad)" style="fill: none; stroke: #4c4c4c; stroke-linecap: round"/>
   </g>
   <g id="line2d_94"/>
   <g id="patch_21">
    <path d="M 560.763391 369.543929 
L 582.609164 369.543929 
L 582.609164 367.977077 
L 560.763391 367.977077 
L 560.763391 369.543929 
z
" clip-path="url(#pe545fc83ad)" style="fill: #5875a4; stroke: #4c4c4c; stroke-linejoin: miter"/>
   </g>
   <g id="line2d_95">
    <path d="M 571.686277 369.543929 
L 571.686277 370.211423 
" clip-path="url(#pe545fc83ad)" style="fill: none; stroke: #4c4c4c"/>
   </g>
   <g id="line2d_96">
    <path d="M 571.686277 367.977077 
L 571.686277 367.000428 
" clip-path="url(#pe545fc83ad)" style="fill: none; stroke: #4c4c4c"/>
   </g>
   <g id="line2d_97">
    <path d="M 566.224834 370.211423 
L 577.147721 370.211423 
" clip-path="url(#pe545fc83ad)" style="fill: none; stroke: #4c4c4c; stroke-linecap: round"/>
   </g>
   <g id="line2d_98">
    <path d="M 566.224834 367.000428 
L 577.147721 367.000428 
" clip-path="url(#pe545fc83ad)" style="fill: none; stroke: #4c4c4c; stroke-linecap: round"/>
   </g>
   <g id="line2d_99"/>
   <g id="patch_22">
    <path d="M 615.377823 365.728678 
L 637.223596 365.728678 
L 637.223596 365.728678 
L 615.377823 365.728678 
L 615.377823 365.728678 
z
" clip-path="url(#pe545fc83ad)" style="fill: #5875a4; stroke: #4c4c4c; stroke-linejoin: miter"/>
   </g>
   <g id="line2d_100">
    <path d="M 626.300709 365.728678 
L 626.300709 365.728678 
" clip-path="url(#pe545fc83ad)" style="fill: none; stroke: #4c4c4c"/>
   </g>
   <g id="line2d_101">
    <path d="M 626.300709 365.728678 
L 626.300709 365.728678 
" clip-path="url(#pe545fc83ad)" style="fill: none; stroke: #4c4c4c"/>
   </g>
   <g id="line2d_102">
    <path d="M 620.839266 365.728678 
L 631.762152 365.728678 
" clip-path="url(#pe545fc83ad)" style="fill: none; stroke: #4c4c4c; stroke-linecap: round"/>
   </g>
   <g id="line2d_103">
    <path d="M 620.839266 365.728678 
L 631.762152 365.728678 
" clip-path="url(#pe545fc83ad)" style="fill: none; stroke: #4c4c4c; stroke-linecap: round"/>
   </g>
   <g id="line2d_104"/>
   <g id="patch_23">
    <path d="M 642.685039 375.797054 
L 664.530811 375.797054 
L 664.530811 358.098524 
L 642.685039 358.098524 
L 642.685039 375.797054 
z
" clip-path="url(#pe545fc83ad)" style="fill: #5875a4; stroke: #4c4c4c; stroke-linejoin: miter"/>
   </g>
   <g id="line2d_105">
    <path d="M 653.607925 375.797054 
L 653.607925 385.961774 
" clip-path="url(#pe545fc83ad)" style="fill: none; stroke: #4c4c4c"/>
   </g>
   <g id="line2d_106">
    <path d="M 653.607925 358.098524 
L 653.607925 340.3996 
" clip-path="url(#pe545fc83ad)" style="fill: none; stroke: #4c4c4c"/>
   </g>
   <g id="line2d_107">
    <path d="M 648.146482 385.961774 
L 659.069368 385.961774 
" clip-path="url(#pe545fc83ad)" style="fill: none; stroke: #4c4c4c; stroke-linecap: round"/>
   </g>
   <g id="line2d_108">
    <path d="M 648.146482 340.3996 
L 659.069368 340.3996 
" clip-path="url(#pe545fc83ad)" style="fill: none; stroke: #4c4c4c; stroke-linecap: round"/>
   </g>
   <g id="line2d_109"/>
   <g id="patch_24">
    <path d="M 669.992255 378.363582 
L 691.838027 378.363582 
L 691.838027 364.062059 
L 669.992255 364.062059 
L 669.992255 378.363582 
z
" clip-path="url(#pe545fc83ad)" style="fill: #5875a4; stroke: #4c4c4c; stroke-linejoin: miter"/>
   </g>
   <g id="line2d_110">
    <path d="M 680.915141 378.363582 
L 680.915141 381.766815 
" clip-path="url(#pe545fc83ad)" style="fill: none; stroke: #4c4c4c"/>
   </g>
   <g id="line2d_111">
    <path d="M 680.915141 364.062059 
L 680.915141 348.657654 
" clip-path="url(#pe545fc83ad)" style="fill: none; stroke: #4c4c4c"/>
   </g>
   <g id="line2d_112">
    <path d="M 675.453698 381.766815 
L 686.376584 381.766815 
" clip-path="url(#pe545fc83ad)" style="fill: none; stroke: #4c4c4c; stroke-linecap: round"/>
   </g>
   <g id="line2d_113">
    <path d="M 675.453698 348.657654 
L 686.376584 348.657654 
" clip-path="url(#pe545fc83ad)" style="fill: none; stroke: #4c4c4c; stroke-linecap: round"/>
   </g>
   <g id="line2d_114"/>
   <g id="patch_25">
    <path d="M 697.29947 362.631055 
L 719.145243 362.631055 
L 719.145243 347.621267 
L 697.29947 347.621267 
L 697.29947 362.631055 
z
" clip-path="url(#pe545fc83ad)" style="fill: #5875a4; stroke: #4c4c4c; stroke-linejoin: miter"/>
   </g>
   <g id="line2d_115">
    <path d="M 708.222357 362.631055 
L 708.222357 364.064921 
" clip-path="url(#pe545fc83ad)" style="fill: none; stroke: #4c4c4c"/>
   </g>
   <g id="line2d_116">
    <path d="M 708.222357 347.621267 
L 708.222357 340.496527 
" clip-path="url(#pe545fc83ad)" style="fill: none; stroke: #4c4c4c"/>
   </g>
   <g id="line2d_117">
    <path d="M 702.760914 364.064921 
L 713.6838 364.064921 
" clip-path="url(#pe545fc83ad)" style="fill: none; stroke: #4c4c4c; stroke-linecap: round"/>
   </g>
   <g id="line2d_118">
    <path d="M 702.760914 340.496527 
L 713.6838 340.496527 
" clip-path="url(#pe545fc83ad)" style="fill: none; stroke: #4c4c4c; stroke-linecap: round"/>
   </g>
   <g id="line2d_119">
    <g clip-path="url(#pe545fc83ad)">
     <use xlink:href="#m82a85a3e37" x="708.222357" y="313.455226" style="fill-opacity: 0; stroke: #4c4c4c"/>
    </g>
   </g>
   <g id="patch_26">
    <path d="M 724.606686 360.913783 
L 746.452459 360.913783 
L 746.452459 357.269102 
L 724.606686 357.269102 
L 724.606686 360.913783 
z
" clip-path="url(#pe545fc83ad)" style="fill: #5875a4; stroke: #4c4c4c; stroke-linejoin: miter"/>
   </g>
   <g id="line2d_120">
    <path d="M 735.529573 360.913783 
L 735.529573 361.968474 
" clip-path="url(#pe545fc83ad)" style="fill: none; stroke: #4c4c4c"/>
   </g>
   <g id="line2d_121">
    <path d="M 735.529573 357.269102 
L 735.529573 356.307005 
" clip-path="url(#pe545fc83ad)" style="fill: none; stroke: #4c4c4c"/>
   </g>
   <g id="line2d_122">
    <path d="M 730.068129 361.968474 
L 740.991016 361.968474 
" clip-path="url(#pe545fc83ad)" style="fill: none; stroke: #4c4c4c; stroke-linecap: round"/>
   </g>
   <g id="line2d_123">
    <path d="M 730.068129 356.307005 
L 740.991016 356.307005 
" clip-path="url(#pe545fc83ad)" style="fill: none; stroke: #4c4c4c; stroke-linecap: round"/>
   </g>
   <g id="line2d_124">
    <g clip-path="url(#pe545fc83ad)">
     <use xlink:href="#m82a85a3e37" x="735.529573" y="369.344258" style="fill-opacity: 0; stroke: #4c4c4c"/>
     <use xlink:href="#m82a85a3e37" x="735.529573" y="295.201933" style="fill-opacity: 0; stroke: #4c4c4c"/>
     <use xlink:href="#m82a85a3e37" x="735.529573" y="351.254011" style="fill-opacity: 0; stroke: #4c4c4c"/>
    </g>
   </g>
   <g id="patch_27">
    <path d="M 751.913902 326.956254 
L 773.759675 326.956254 
L 773.759675 271.872007 
L 751.913902 271.872007 
L 751.913902 326.956254 
z
" clip-path="url(#pe545fc83ad)" style="fill: #5875a4; stroke: #4c4c4c; stroke-linejoin: miter"/>
   </g>
   <g id="line2d_125">
    <path d="M 762.836788 326.956254 
L 762.836788 340.598324 
" clip-path="url(#pe545fc83ad)" style="fill: none; stroke: #4c4c4c"/>
   </g>
   <g id="line2d_126">
    <path d="M 762.836788 271.872007 
L 762.836788 193.468641 
" clip-path="url(#pe545fc83ad)" style="fill: none; stroke: #4c4c4c"/>
   </g>
   <g id="line2d_127">
    <path d="M 757.375345 340.598324 
L 768.298232 340.598324 
" clip-path="url(#pe545fc83ad)" style="fill: none; stroke: #4c4c4c; stroke-linecap: round"/>
   </g>
   <g id="line2d_128">
    <path d="M 757.375345 193.468641 
L 768.298232 193.468641 
" clip-path="url(#pe545fc83ad)" style="fill: none; stroke: #4c4c4c; stroke-linecap: round"/>
   </g>
   <g id="line2d_129"/>
   <g id="patch_28">
    <path d="M 779.221118 362.314817 
L 801.066891 362.314817 
L 801.066891 330.118132 
L 779.221118 330.118132 
L 779.221118 362.314817 
z
" clip-path="url(#pe545fc83ad)" style="fill: #5875a4; stroke: #4c4c4c; stroke-linejoin: miter"/>
   </g>
   <g id="line2d_130">
    <path d="M 790.144004 362.314817 
L 790.144004 402.119093 
" clip-path="url(#pe545fc83ad)" style="fill: none; stroke: #4c4c4c"/>
   </g>
   <g id="line2d_131">
    <path d="M 790.144004 330.118132 
L 790.144004 308.462581 
" clip-path="url(#pe545fc83ad)" style="fill: none; stroke: #4c4c4c"/>
   </g>
   <g id="line2d_132">
    <path d="M 784.682561 402.119093 
L 795.605447 402.119093 
" clip-path="url(#pe545fc83ad)" style="fill: none; stroke: #4c4c4c; stroke-linecap: round"/>
   </g>
   <g id="line2d_133">
    <path d="M 784.682561 308.462581 
L 795.605447 308.462581 
" clip-path="url(#pe545fc83ad)" style="fill: none; stroke: #4c4c4c; stroke-linecap: round"/>
   </g>
   <g id="line2d_134">
    <g clip-path="url(#pe545fc83ad)">
     <use xlink:href="#m82a85a3e37" x="790.144004" y="236.559749" style="fill-opacity: 0; stroke: #4c4c4c"/>
    </g>
   </g>
   <g id="patch_29">
    <path d="M 806.528334 446.055336 
L 828.374107 446.055336 
L 828.374107 415.378829 
L 806.528334 415.378829 
L 806.528334 446.055336 
z
" clip-path="url(#pe545fc83ad)" style="fill: #5875a4; stroke: #4c4c4c; stroke-linejoin: miter"/>
   </g>
   <g id="line2d_135">
    <path d="M 817.45122 446.055336 
L 817.45122 459.830012 
" clip-path="url(#pe545fc83ad)" style="fill: none; stroke: #4c4c4c"/>
   </g>
   <g id="line2d_136">
    <path d="M 817.45122 415.378829 
L 817.45122 380.707235 
" clip-path="url(#pe545fc83ad)" style="fill: none; stroke: #4c4c4c"/>
   </g>
   <g id="line2d_137">
    <path d="M 811.989777 459.830012 
L 822.912663 459.830012 
" clip-path="url(#pe545fc83ad)" style="fill: none; stroke: #4c4c4c; stroke-linecap: round"/>
   </g>
   <g id="line2d_138">
    <path d="M 811.989777 380.707235 
L 822.912663 380.707235 
" clip-path="url(#pe545fc83ad)" style="fill: none; stroke: #4c4c4c; stroke-linecap: round"/>
   </g>
   <g id="line2d_139"/>
   <g id="patch_30">
    <path d="M 833.83555 424.158779 
L 855.681322 424.158779 
L 855.681322 416.439604 
L 833.83555 416.439604 
L 833.83555 424.158779 
z
" clip-path="url(#pe545fc83ad)" style="fill: #5875a4; stroke: #4c4c4c; stroke-linejoin: miter"/>
   </g>
   <g id="line2d_140">
    <path d="M 844.758436 424.158779 
L 844.758436 428.358288 
" clip-path="url(#pe545fc83ad)" style="fill: none; stroke: #4c4c4c"/>
   </g>
   <g id="line2d_141">
    <path d="M 844.758436 416.439604 
L 844.758436 411.591605 
" clip-path="url(#pe545fc83ad)" style="fill: none; stroke: #4c4c4c"/>
   </g>
   <g id="line2d_142">
    <path d="M 839.296993 428.358288 
L 850.219879 428.358288 
" clip-path="url(#pe545fc83ad)" style="fill: none; stroke: #4c4c4c; stroke-linecap: round"/>
   </g>
   <g id="line2d_143">
    <path d="M 839.296993 411.591605 
L 850.219879 411.591605 
" clip-path="url(#pe545fc83ad)" style="fill: none; stroke: #4c4c4c; stroke-linecap: round"/>
   </g>
   <g id="line2d_144">
    <g clip-path="url(#pe545fc83ad)">
     <use xlink:href="#m82a85a3e37" x="844.758436" y="468.221445" style="fill-opacity: 0; stroke: #4c4c4c"/>
    </g>
   </g>
   <g id="patch_31">
    <path d="M 861.142766 365.728678 
L 882.988538 365.728678 
L 882.988538 365.728678 
L 861.142766 365.728678 
L 861.142766 365.728678 
z
" clip-path="url(#pe545fc83ad)" style="fill: #5875a4; stroke: #4c4c4c; stroke-linejoin: miter"/>
   </g>
   <g id="line2d_145">
    <path d="M 872.065652 365.728678 
L 872.065652 365.728678 
" clip-path="url(#pe545fc83ad)" style="fill: none; stroke: #4c4c4c"/>
   </g>
   <g id="line2d_146">
    <path d="M 872.065652 365.728678 
L 872.065652 365.728678 
" clip-path="url(#pe545fc83ad)" style="fill: none; stroke: #4c4c4c"/>
   </g>
   <g id="line2d_147">
    <path d="M 866.604209 365.728678 
L 877.527095 365.728678 
" clip-path="url(#pe545fc83ad)" style="fill: none; stroke: #4c4c4c; stroke-linecap: round"/>
   </g>
   <g id="line2d_148">
    <path d="M 866.604209 365.728678 
L 877.527095 365.728678 
" clip-path="url(#pe545fc83ad)" style="fill: none; stroke: #4c4c4c; stroke-linecap: round"/>
   </g>
   <g id="line2d_149"/>
   <g id="patch_32">
    <path d="M 888.449981 365.728678 
L 910.295754 365.728678 
L 910.295754 365.728678 
L 888.449981 365.728678 
L 888.449981 365.728678 
z
" clip-path="url(#pe545fc83ad)" style="fill: #5875a4; stroke: #4c4c4c; stroke-linejoin: miter"/>
   </g>
   <g id="line2d_150">
    <path d="M 899.372868 365.728678 
L 899.372868 365.728678 
" clip-path="url(#pe545fc83ad)" style="fill: none; stroke: #4c4c4c"/>
   </g>
   <g id="line2d_151">
    <path d="M 899.372868 365.728678 
L 899.372868 365.728678 
" clip-path="url(#pe545fc83ad)" style="fill: none; stroke: #4c4c4c"/>
   </g>
   <g id="line2d_152">
    <path d="M 893.911425 365.728678 
L 904.834311 365.728678 
" clip-path="url(#pe545fc83ad)" style="fill: none; stroke: #4c4c4c; stroke-linecap: round"/>
   </g>
   <g id="line2d_153">
    <path d="M 893.911425 365.728678 
L 904.834311 365.728678 
" clip-path="url(#pe545fc83ad)" style="fill: none; stroke: #4c4c4c; stroke-linecap: round"/>
   </g>
   <g id="line2d_154"/>
   <g id="line2d_155">
    <path d="M 96.540722 458.616147 
L 118.386494 458.616147 
" clip-path="url(#pe545fc83ad)" style="fill: none; stroke: #4c4c4c"/>
   </g>
   <g id="line2d_156">
    <path d="M 123.847937 451.601986 
L 145.69371 451.601986 
" clip-path="url(#pe545fc83ad)" style="fill: none; stroke: #4c4c4c"/>
   </g>
   <g id="line2d_157">
    <path d="M 151.155153 351.970283 
L 173.000926 351.970283 
" clip-path="url(#pe545fc83ad)" style="fill: none; stroke: #4c4c4c"/>
   </g>
   <g id="line2d_158">
    <path d="M 178.462369 353.140173 
L 200.308142 353.140173 
" clip-path="url(#pe545fc83ad)" style="fill: none; stroke: #4c4c4c"/>
   </g>
   <g id="line2d_159">
    <path d="M 205.769585 365.182525 
L 227.615358 365.182525 
" clip-path="url(#pe545fc83ad)" style="fill: none; stroke: #4c4c4c"/>
   </g>
   <g id="line2d_160">
    <path d="M 233.076801 363.545598 
L 254.922574 363.545598 
" clip-path="url(#pe545fc83ad)" style="fill: none; stroke: #4c4c4c"/>
   </g>
   <g id="line2d_161">
    <path d="M 260.384017 354.963944 
L 282.229789 354.963944 
" clip-path="url(#pe545fc83ad)" style="fill: none; stroke: #4c4c4c"/>
   </g>
   <g id="line2d_162">
    <path d="M 287.691233 358.728067 
L 309.537005 358.728067 
" clip-path="url(#pe545fc83ad)" style="fill: none; stroke: #4c4c4c"/>
   </g>
   <g id="line2d_163">
    <path d="M 314.998448 362.043104 
L 336.844221 362.043104 
" clip-path="url(#pe545fc83ad)" style="fill: none; stroke: #4c4c4c"/>
   </g>
   <g id="line2d_164">
    <path d="M 342.305664 367.109804 
L 364.151437 367.109804 
" clip-path="url(#pe545fc83ad)" style="fill: none; stroke: #4c4c4c"/>
   </g>
   <g id="line2d_165">
    <path d="M 369.61288 357.399116 
L 391.458653 357.399116 
" clip-path="url(#pe545fc83ad)" style="fill: none; stroke: #4c4c4c"/>
   </g>
   <g id="line2d_166">
    <path d="M 396.920096 372.34708 
L 418.765869 372.34708 
" clip-path="url(#pe545fc83ad)" style="fill: none; stroke: #4c4c4c"/>
   </g>
   <g id="line2d_167">
    <path d="M 424.227312 331.904918 
L 446.073085 331.904918 
" clip-path="url(#pe545fc83ad)" style="fill: none; stroke: #4c4c4c"/>
   </g>
   <g id="line2d_168">
    <path d="M 451.534528 375.359785 
L 473.3803 375.359785 
" clip-path="url(#pe545fc83ad)" style="fill: none; stroke: #4c4c4c"/>
   </g>
   <g id="line2d_169">
    <path d="M 478.841744 371.7194 
L 500.687516 371.7194 
" clip-path="url(#pe545fc83ad)" style="fill: none; stroke: #4c4c4c"/>
   </g>
   <g id="line2d_170">
    <path d="M 506.148959 352.299095 
L 527.994732 352.299095 
" clip-path="url(#pe545fc83ad)" style="fill: none; stroke: #4c4c4c"/>
   </g>
   <g id="line2d_171">
    <path d="M 533.456175 360.632473 
L 555.301948 360.632473 
" clip-path="url(#pe545fc83ad)" style="fill: none; stroke: #4c4c4c"/>
   </g>
   <g id="line2d_172">
    <path d="M 560.763391 368.883462 
L 582.609164 368.883462 
" clip-path="url(#pe545fc83ad)" style="fill: none; stroke: #4c4c4c"/>
   </g>
   <g id="line2d_173">
    <path d="M 615.377823 365.728678 
L 637.223596 365.728678 
" clip-path="url(#pe545fc83ad)" style="fill: none; stroke: #4c4c4c"/>
   </g>
   <g id="line2d_174">
    <path d="M 642.685039 368.673497 
L 664.530811 368.673497 
" clip-path="url(#pe545fc83ad)" style="fill: none; stroke: #4c4c4c"/>
   </g>
   <g id="line2d_175">
    <path d="M 669.992255 373.44696 
L 691.838027 373.44696 
" clip-path="url(#pe545fc83ad)" style="fill: none; stroke: #4c4c4c"/>
   </g>
   <g id="line2d_176">
    <path d="M 697.29947 360.019818 
L 719.145243 360.019818 
" clip-path="url(#pe545fc83ad)" style="fill: none; stroke: #4c4c4c"/>
   </g>
   <g id="line2d_177">
    <path d="M 724.606686 359.62452 
L 746.452459 359.62452 
" clip-path="url(#pe545fc83ad)" style="fill: none; stroke: #4c4c4c"/>
   </g>
   <g id="line2d_178">
    <path d="M 751.913902 299.766315 
L 773.759675 299.766315 
" clip-path="url(#pe545fc83ad)" style="fill: none; stroke: #4c4c4c"/>
   </g>
   <g id="line2d_179">
    <path d="M 779.221118 339.574681 
L 801.066891 339.574681 
" clip-path="url(#pe545fc83ad)" style="fill: none; stroke: #4c4c4c"/>
   </g>
   <g id="line2d_180">
    <path d="M 806.528334 427.037128 
L 828.374107 427.037128 
" clip-path="url(#pe545fc83ad)" style="fill: none; stroke: #4c4c4c"/>
   </g>
   <g id="line2d_181">
    <path d="M 833.83555 419.525294 
L 855.681322 419.525294 
" clip-path="url(#pe545fc83ad)" style="fill: none; stroke: #4c4c4c"/>
   </g>
   <g id="line2d_182">
    <path d="M 861.142766 365.728678 
L 882.988538 365.728678 
" clip-path="url(#pe545fc83ad)" style="fill: none; stroke: #4c4c4c"/>
   </g>
   <g id="line2d_183">
    <path d="M 888.449981 365.728678 
L 910.295754 365.728678 
" clip-path="url(#pe545fc83ad)" style="fill: none; stroke: #4c4c4c"/>
   </g>
   <g id="patch_33">
    <path d="M 93.81 488.689133 
L 93.81 38.4 
" style="fill: none; stroke: #ffffff; stroke-width: 1.875; stroke-linejoin: miter; stroke-linecap: square"/>
   </g>
   <g id="patch_34">
    <path d="M 913.026476 488.689133 
L 913.026476 38.4 
" style="fill: none; stroke: #ffffff; stroke-width: 1.875; stroke-linejoin: miter; stroke-linecap: square"/>
   </g>
   <g id="patch_35">
    <path d="M 93.81 488.689133 
L 913.026476 488.689133 
" style="fill: none; stroke: #ffffff; stroke-width: 1.875; stroke-linejoin: miter; stroke-linecap: square"/>
   </g>
   <g id="patch_36">
    <path d="M 93.81 38.4 
L 913.026476 38.4 
" style="fill: none; stroke: #ffffff; stroke-width: 1.875; stroke-linejoin: miter; stroke-linecap: square"/>
   </g>
   <g id="text_42">
    <!-- Change in Objective Cost by Instance -->
    <g style="fill: #262626" transform="translate(352.844019 32.4) scale(0.18 -0.18)">
     <defs>
      <path id="ArialMT-79" d="M 397 -1278 
L 334 -750 
Q 519 -800 656 -800 
Q 844 -800 956 -737 
Q 1069 -675 1141 -563 
Q 1194 -478 1313 -144 
Q 1328 -97 1363 -6 
L 103 3319 
L 709 3319 
L 1400 1397 
Q 1534 1031 1641 628 
Q 1738 1016 1872 1384 
L 2581 3319 
L 3144 3319 
L 1881 -56 
Q 1678 -603 1566 -809 
Q 1416 -1088 1222 -1217 
Q 1028 -1347 759 -1347 
Q 597 -1347 397 -1278 
z
" transform="scale(0.015625)"/>
     </defs>
     <use xlink:href="#ArialMT-43"/>
     <use xlink:href="#ArialMT-68" x="72.216797"/>
     <use xlink:href="#ArialMT-61" x="127.832031"/>
     <use xlink:href="#ArialMT-6e" x="183.447266"/>
     <use xlink:href="#ArialMT-67" x="239.0625"/>
     <use xlink:href="#ArialMT-65" x="294.677734"/>
     <use xlink:href="#ArialMT-20" x="350.292969"/>
     <use xlink:href="#ArialMT-69" x="378.076172"/>
     <use xlink:href="#ArialMT-6e" x="400.292969"/>
     <use xlink:href="#ArialMT-20" x="455.908203"/>
     <use xlink:href="#ArialMT-4f" x="483.691406"/>
     <use xlink:href="#ArialMT-62" x="561.474609"/>
     <use xlink:href="#ArialMT-6a" x="617.089844"/>
     <use xlink:href="#ArialMT-65" x="639.306641"/>
     <use xlink:href="#ArialMT-63" x="694.921875"/>
     <use xlink:href="#ArialMT-74" x="744.921875"/>
     <use xlink:href="#ArialMT-69" x="772.705078"/>
     <use xlink:href="#ArialMT-76" x="794.921875"/>
     <use xlink:href="#ArialMT-65" x="844.921875"/>
     <use xlink:href="#ArialMT-20" x="900.537109"/>
     <use xlink:href="#ArialMT-43" x="928.320312"/>
     <use xlink:href="#ArialMT-6f" x="1000.537109"/>
     <use xlink:href="#ArialMT-73" x="1056.152344"/>
     <use xlink:href="#ArialMT-74" x="1106.152344"/>
     <use xlink:href="#ArialMT-20" x="1133.935547"/>
     <use xlink:href="#ArialMT-62" x="1161.71875"/>
     <use xlink:href="#ArialMT-79" x="1217.333984"/>
     <use xlink:href="#ArialMT-20" x="1267.333984"/>
     <use xlink:href="#ArialMT-49" x="1295.117188"/>
     <use xlink:href="#ArialMT-6e" x="1322.900391"/>
     <use xlink:href="#ArialMT-73" x="1378.515625"/>
     <use xlink:href="#ArialMT-74" x="1428.515625"/>
     <use xlink:href="#ArialMT-61" x="1456.298828"/>
     <use xlink:href="#ArialMT-6e" x="1511.914062"/>
     <use xlink:href="#ArialMT-63" x="1567.529297"/>
     <use xlink:href="#ArialMT-65" x="1617.529297"/>
    </g>
   </g>
   <g id="legend_1">
    <g id="patch_37">
     <path d="M 777.427413 99.651328 
L 901.476476 99.651328 
Q 904.776476 99.651328 904.776476 96.351328 
L 904.776476 49.95 
Q 904.776476 46.65 901.476476 46.65 
L 777.427413 46.65 
Q 774.127413 46.65 774.127413 49.95 
L 774.127413 96.351328 
Q 774.127413 99.651328 777.427413 99.651328 
z
" style="fill: #eaeaf2; opacity: 0.8; stroke: #cccccc; stroke-width: 1.5; stroke-linejoin: miter"/>
    </g>
    <g id="text_43">
     <!-- Subset -->
     <g style="fill: #262626" transform="translate(811.433819 66.134062) scale(0.18 -0.18)">
      <defs>
       <path id="ArialMT-75" d="M 2597 0 
L 2597 488 
Q 2209 -75 1544 -75 
Q 1250 -75 995 37 
Q 741 150 617 320 
Q 494 491 444 738 
Q 409 903 409 1263 
L 409 3319 
L 972 3319 
L 972 1478 
Q 972 1038 1006 884 
Q 1059 663 1231 536 
Q 1403 409 1656 409 
Q 1909 409 2131 539 
Q 2353 669 2445 892 
Q 2538 1116 2538 1541 
L 2538 3319 
L 3100 3319 
L 3100 0 
L 2597 0 
z
" transform="scale(0.015625)"/>
      </defs>
      <use xlink:href="#ArialMT-53"/>
      <use xlink:href="#ArialMT-75" x="66.699219"/>
      <use xlink:href="#ArialMT-62" x="122.314453"/>
      <use xlink:href="#ArialMT-73" x="177.929688"/>
      <use xlink:href="#ArialMT-65" x="227.929688"/>
      <use xlink:href="#ArialMT-74" x="283.544922"/>
     </g>
    </g>
    <g id="patch_38">
     <path d="M 780.727413 89.771953 
L 813.727413 89.771953 
L 813.727413 78.221953 
L 780.727413 78.221953 
z
" style="fill: #5875a4; stroke: #4c4c4c; stroke-width: 1.5; stroke-linejoin: miter"/>
    </g>
    <g id="text_44">
     <!-- Validation -->
     <g style="fill: #262626" transform="translate(826.927413 89.771953) scale(0.165 -0.165)">
      <defs>
       <path id="ArialMT-6c" d="M 409 0 
L 409 4581 
L 972 4581 
L 972 0 
L 409 0 
z
" transform="scale(0.015625)"/>
       <path id="ArialMT-64" d="M 2575 0 
L 2575 419 
Q 2259 -75 1647 -75 
Q 1250 -75 917 144 
Q 584 363 401 755 
Q 219 1147 219 1656 
Q 219 2153 384 2558 
Q 550 2963 881 3178 
Q 1213 3394 1622 3394 
Q 1922 3394 2156 3267 
Q 2391 3141 2538 2938 
L 2538 4581 
L 3097 4581 
L 3097 0 
L 2575 0 
z
M 797 1656 
Q 797 1019 1065 703 
Q 1334 388 1700 388 
Q 2069 388 2326 689 
Q 2584 991 2584 1609 
Q 2584 2291 2321 2609 
Q 2059 2928 1675 2928 
Q 1300 2928 1048 2622 
Q 797 2316 797 1656 
z
" transform="scale(0.015625)"/>
      </defs>
      <use xlink:href="#ArialMT-56"/>
      <use xlink:href="#ArialMT-61" x="59.324219"/>
      <use xlink:href="#ArialMT-6c" x="114.939453"/>
      <use xlink:href="#ArialMT-69" x="137.15625"/>
      <use xlink:href="#ArialMT-64" x="159.373047"/>
      <use xlink:href="#ArialMT-61" x="214.988281"/>
      <use xlink:href="#ArialMT-74" x="270.603516"/>
      <use xlink:href="#ArialMT-69" x="298.386719"/>
      <use xlink:href="#ArialMT-6f" x="320.603516"/>
      <use xlink:href="#ArialMT-6e" x="376.21875"/>
     </g>
    </g>
   </g>
  </g>
 </g>
 <defs>
  <clipPath id="pe545fc83ad">
   <rect x="93.81" y="38.4" width="819.216476" height="450.289133"/>
  </clipPath>
 </defs>
</svg>
