<?xml version="1.0" encoding="utf-8" standalone="no"?>
<!DOCTYPE svg PUBLIC "-//W3C//DTD SVG 1.1//EN"
  "http://www.w3.org/Graphics/SVG/1.1/DTD/svg11.dtd">
<svg xmlns:xlink="http://www.w3.org/1999/xlink" width="936pt" height="576pt" viewBox="0 0 936 576" xmlns="http://www.w3.org/2000/svg" version="1.1">
 <metadata>
  <rdf:RDF xmlns:dc="http://purl.org/dc/elements/1.1/" xmlns:cc="http://creativecommons.org/ns#" xmlns:rdf="http://www.w3.org/1999/02/22-rdf-syntax-ns#">
   <cc:Work>
    <dc:type rdf:resource="http://purl.org/dc/dcmitype/StillImage"/>
    <dc:date>2024-02-18T12:12:30.111776</dc:date>
    <dc:format>image/svg+xml</dc:format>
    <dc:creator>
     <cc:Agent>
      <dc:title>Matplotlib v3.8.0, https://matplotlib.org/</dc:title>
     </cc:Agent>
    </dc:creator>
   </cc:Work>
  </rdf:RDF>
 </metadata>
 <defs>
  <style type="text/css">*{stroke-linejoin: round; stroke-linecap: butt}</style>
 </defs>
 <g id="figure_1">
  <g id="patch_1">
   <path d="M 0 576 
L 936 576 
L 936 0 
L 0 0 
z
" style="fill: #ffffff"/>
  </g>
  <g id="axes_1">
   <g id="patch_2">
    <path d="M 84.63 488.689133 
L 913.026476 488.689133 
L 913.026476 38.4 
L 84.63 38.4 
z
" style="fill: #eaeaf2"/>
   </g>
   <g id="matplotlib.axis_1">
    <g id="xtick_1">
     <g id="text_1">
      <!-- AS4 -->
      <g style="fill: #262626" transform="translate(90.426303 531.593288) rotate(-45) scale(0.165 -0.165)">
       <defs>
        <path id="ArialMT-41" d="M -9 0 
L 1750 4581 
L 2403 4581 
L 4278 0 
L 3588 0 
L 3053 1388 
L 1138 1388 
L 634 0 
L -9 0 
z
M 1313 1881 
L 2866 1881 
L 2388 3150 
Q 2169 3728 2063 4100 
Q 1975 3659 1816 3225 
L 1313 1881 
z
" transform="scale(0.015625)"/>
        <path id="ArialMT-53" d="M 288 1472 
L 859 1522 
Q 900 1178 1048 958 
Q 1197 738 1509 602 
Q 1822 466 2213 466 
Q 2559 466 2825 569 
Q 3091 672 3220 851 
Q 3350 1031 3350 1244 
Q 3350 1459 3225 1620 
Q 3100 1781 2813 1891 
Q 2628 1963 1997 2114 
Q 1366 2266 1113 2400 
Q 784 2572 623 2826 
Q 463 3081 463 3397 
Q 463 3744 659 4045 
Q 856 4347 1234 4503 
Q 1613 4659 2075 4659 
Q 2584 4659 2973 4495 
Q 3363 4331 3572 4012 
Q 3781 3694 3797 3291 
L 3216 3247 
Q 3169 3681 2898 3903 
Q 2628 4125 2100 4125 
Q 1550 4125 1298 3923 
Q 1047 3722 1047 3438 
Q 1047 3191 1225 3031 
Q 1400 2872 2139 2705 
Q 2878 2538 3153 2413 
Q 3553 2228 3743 1945 
Q 3934 1663 3934 1294 
Q 3934 928 3725 604 
Q 3516 281 3123 101 
Q 2731 -78 2241 -78 
Q 1619 -78 1198 103 
Q 778 284 539 648 
Q 300 1013 288 1472 
z
" transform="scale(0.015625)"/>
        <path id="ArialMT-34" d="M 2069 0 
L 2069 1097 
L 81 1097 
L 81 1613 
L 2172 4581 
L 2631 4581 
L 2631 1613 
L 3250 1613 
L 3250 1097 
L 2631 1097 
L 2631 0 
L 2069 0 
z
M 2069 1613 
L 2069 3678 
L 634 1613 
L 2069 1613 
z
" transform="scale(0.015625)"/>
       </defs>
       <use xlink:href="#ArialMT-41"/>
       <use xlink:href="#ArialMT-53" x="66.699219"/>
       <use xlink:href="#ArialMT-34" x="133.398438"/>
      </g>
     </g>
    </g>
    <g id="xtick_2">
     <g id="text_2">
      <!-- AS5 -->
      <g style="fill: #262626" transform="translate(118.039519 531.593288) rotate(-45) scale(0.165 -0.165)">
       <defs>
        <path id="ArialMT-35" d="M 266 1200 
L 856 1250 
Q 922 819 1161 601 
Q 1400 384 1738 384 
Q 2144 384 2425 690 
Q 2706 997 2706 1503 
Q 2706 1984 2436 2262 
Q 2166 2541 1728 2541 
Q 1456 2541 1237 2417 
Q 1019 2294 894 2097 
L 366 2166 
L 809 4519 
L 3088 4519 
L 3088 3981 
L 1259 3981 
L 1013 2750 
Q 1425 3038 1878 3038 
Q 2478 3038 2890 2622 
Q 3303 2206 3303 1553 
Q 3303 931 2941 478 
Q 2500 -78 1738 -78 
Q 1113 -78 717 272 
Q 322 622 266 1200 
z
" transform="scale(0.015625)"/>
       </defs>
       <use xlink:href="#ArialMT-41"/>
       <use xlink:href="#ArialMT-53" x="66.699219"/>
       <use xlink:href="#ArialMT-35" x="133.398438"/>
      </g>
     </g>
    </g>
    <g id="xtick_3">
     <g id="text_3">
      <!-- BY4 -->
      <g style="fill: #262626" transform="translate(145.652735 531.593288) rotate(-45) scale(0.165 -0.165)">
       <defs>
        <path id="ArialMT-42" d="M 469 0 
L 469 4581 
L 2188 4581 
Q 2713 4581 3030 4442 
Q 3347 4303 3526 4014 
Q 3706 3725 3706 3409 
Q 3706 3116 3547 2856 
Q 3388 2597 3066 2438 
Q 3481 2316 3704 2022 
Q 3928 1728 3928 1328 
Q 3928 1006 3792 729 
Q 3656 453 3456 303 
Q 3256 153 2954 76 
Q 2653 0 2216 0 
L 469 0 
z
M 1075 2656 
L 2066 2656 
Q 2469 2656 2644 2709 
Q 2875 2778 2992 2937 
Q 3109 3097 3109 3338 
Q 3109 3566 3000 3739 
Q 2891 3913 2687 3977 
Q 2484 4041 1991 4041 
L 1075 4041 
L 1075 2656 
z
M 1075 541 
L 2216 541 
Q 2509 541 2628 563 
Q 2838 600 2978 687 
Q 3119 775 3209 942 
Q 3300 1109 3300 1328 
Q 3300 1584 3169 1773 
Q 3038 1963 2805 2039 
Q 2572 2116 2134 2116 
L 1075 2116 
L 1075 541 
z
" transform="scale(0.015625)"/>
        <path id="ArialMT-59" d="M 1784 0 
L 1784 1941 
L 19 4581 
L 756 4581 
L 1659 3200 
Q 1909 2813 2125 2425 
Q 2331 2784 2625 3234 
L 3513 4581 
L 4219 4581 
L 2391 1941 
L 2391 0 
L 1784 0 
z
" transform="scale(0.015625)"/>
       </defs>
       <use xlink:href="#ArialMT-42"/>
       <use xlink:href="#ArialMT-59" x="66.699219"/>
       <use xlink:href="#ArialMT-34" x="133.398438"/>
      </g>
     </g>
    </g>
    <g id="xtick_4">
     <g id="text_4">
      <!-- BY5 -->
      <g style="fill: #262626" transform="translate(173.265951 531.593288) rotate(-45) scale(0.165 -0.165)">
       <use xlink:href="#ArialMT-42"/>
       <use xlink:href="#ArialMT-59" x="66.699219"/>
       <use xlink:href="#ArialMT-35" x="133.398438"/>
      </g>
     </g>
    </g>
    <g id="xtick_5">
     <g id="text_5">
      <!-- CC4 -->
      <g style="fill: #262626" transform="translate(200.235644 532.880333) rotate(-45) scale(0.165 -0.165)">
       <defs>
        <path id="ArialMT-43" d="M 3763 1606 
L 4369 1453 
Q 4178 706 3683 314 
Q 3188 -78 2472 -78 
Q 1731 -78 1267 223 
Q 803 525 561 1097 
Q 319 1669 319 2325 
Q 319 3041 592 3573 
Q 866 4106 1370 4382 
Q 1875 4659 2481 4659 
Q 3169 4659 3637 4309 
Q 4106 3959 4291 3325 
L 3694 3184 
Q 3534 3684 3231 3912 
Q 2928 4141 2469 4141 
Q 1941 4141 1586 3887 
Q 1231 3634 1087 3207 
Q 944 2781 944 2328 
Q 944 1744 1114 1308 
Q 1284 872 1643 656 
Q 2003 441 2422 441 
Q 2931 441 3284 734 
Q 3638 1028 3763 1606 
z
" transform="scale(0.015625)"/>
       </defs>
       <use xlink:href="#ArialMT-43"/>
       <use xlink:href="#ArialMT-43" x="72.216797"/>
       <use xlink:href="#ArialMT-34" x="144.433594"/>
      </g>
     </g>
    </g>
    <g id="xtick_6">
     <g id="text_6">
      <!-- CC5 -->
      <g style="fill: #262626" transform="translate(227.84886 532.880333) rotate(-45) scale(0.165 -0.165)">
       <use xlink:href="#ArialMT-43"/>
       <use xlink:href="#ArialMT-43" x="72.216797"/>
       <use xlink:href="#ArialMT-35" x="144.433594"/>
      </g>
     </g>
    </g>
    <g id="xtick_7">
     <g id="text_7">
      <!-- CI4 -->
      <g style="fill: #262626" transform="translate(258.054396 527.695694) rotate(-45) scale(0.165 -0.165)">
       <defs>
        <path id="ArialMT-49" d="M 597 0 
L 597 4581 
L 1203 4581 
L 1203 0 
L 597 0 
z
" transform="scale(0.015625)"/>
       </defs>
       <use xlink:href="#ArialMT-43"/>
       <use xlink:href="#ArialMT-49" x="72.216797"/>
       <use xlink:href="#ArialMT-34" x="100"/>
      </g>
     </g>
    </g>
    <g id="xtick_8">
     <g id="text_8">
      <!-- CI5 -->
      <g style="fill: #262626" transform="translate(285.667612 527.695694) rotate(-45) scale(0.165 -0.165)">
       <use xlink:href="#ArialMT-43"/>
       <use xlink:href="#ArialMT-49" x="72.216797"/>
       <use xlink:href="#ArialMT-35" x="100"/>
      </g>
     </g>
    </g>
    <g id="xtick_9">
     <g id="text_9">
      <!-- DO4 -->
      <g style="fill: #262626" transform="translate(310.364012 533.529325) rotate(-45) scale(0.165 -0.165)">
       <defs>
        <path id="ArialMT-44" d="M 494 0 
L 494 4581 
L 2072 4581 
Q 2606 4581 2888 4516 
Q 3281 4425 3559 4188 
Q 3922 3881 4101 3404 
Q 4281 2928 4281 2316 
Q 4281 1794 4159 1391 
Q 4038 988 3847 723 
Q 3656 459 3429 307 
Q 3203 156 2883 78 
Q 2563 0 2147 0 
L 494 0 
z
M 1100 541 
L 2078 541 
Q 2531 541 2789 625 
Q 3047 709 3200 863 
Q 3416 1078 3536 1442 
Q 3656 1806 3656 2325 
Q 3656 3044 3420 3430 
Q 3184 3816 2847 3947 
Q 2603 4041 2063 4041 
L 1100 4041 
L 1100 541 
z
" transform="scale(0.015625)"/>
        <path id="ArialMT-4f" d="M 309 2231 
Q 309 3372 921 4017 
Q 1534 4663 2503 4663 
Q 3138 4663 3647 4359 
Q 4156 4056 4423 3514 
Q 4691 2972 4691 2284 
Q 4691 1588 4409 1038 
Q 4128 488 3612 205 
Q 3097 -78 2500 -78 
Q 1853 -78 1343 234 
Q 834 547 571 1087 
Q 309 1628 309 2231 
z
M 934 2222 
Q 934 1394 1379 917 
Q 1825 441 2497 441 
Q 3181 441 3623 922 
Q 4066 1403 4066 2288 
Q 4066 2847 3877 3264 
Q 3688 3681 3323 3911 
Q 2959 4141 2506 4141 
Q 1863 4141 1398 3698 
Q 934 3256 934 2222 
z
" transform="scale(0.015625)"/>
       </defs>
       <use xlink:href="#ArialMT-44"/>
       <use xlink:href="#ArialMT-4f" x="72.216797"/>
       <use xlink:href="#ArialMT-34" x="150"/>
      </g>
     </g>
    </g>
    <g id="xtick_10">
     <g id="text_10">
      <!-- DO5 -->
      <g style="fill: #262626" transform="translate(337.977228 533.529325) rotate(-45) scale(0.165 -0.165)">
       <use xlink:href="#ArialMT-44"/>
       <use xlink:href="#ArialMT-4f" x="72.216797"/>
       <use xlink:href="#ArialMT-35" x="150"/>
      </g>
     </g>
    </g>
    <g id="xtick_11">
     <g id="text_11">
      <!-- FC4 -->
      <g style="fill: #262626" transform="translate(366.564843 531.580527) rotate(-45) scale(0.165 -0.165)">
       <defs>
        <path id="ArialMT-46" d="M 525 0 
L 525 4581 
L 3616 4581 
L 3616 4041 
L 1131 4041 
L 1131 2622 
L 3281 2622 
L 3281 2081 
L 1131 2081 
L 1131 0 
L 525 0 
z
" transform="scale(0.015625)"/>
       </defs>
       <use xlink:href="#ArialMT-46"/>
       <use xlink:href="#ArialMT-43" x="61.083984"/>
       <use xlink:href="#ArialMT-34" x="133.300781"/>
      </g>
     </g>
    </g>
    <g id="xtick_12">
     <g id="text_12">
      <!-- FC5 -->
      <g style="fill: #262626" transform="translate(394.178058 531.580527) rotate(-45) scale(0.165 -0.165)">
       <use xlink:href="#ArialMT-46"/>
       <use xlink:href="#ArialMT-43" x="61.083984"/>
       <use xlink:href="#ArialMT-35" x="133.300781"/>
      </g>
     </g>
    </g>
    <g id="xtick_13">
     <g id="text_13">
      <!-- FS4 -->
      <g style="fill: #262626" transform="translate(422.113035 530.937005) rotate(-45) scale(0.165 -0.165)">
       <use xlink:href="#ArialMT-46"/>
       <use xlink:href="#ArialMT-53" x="61.083984"/>
       <use xlink:href="#ArialMT-34" x="127.783203"/>
      </g>
     </g>
    </g>
    <g id="xtick_14">
     <g id="text_14">
      <!-- FS5 -->
      <g style="fill: #262626" transform="translate(449.726251 530.937005) rotate(-45) scale(0.165 -0.165)">
       <use xlink:href="#ArialMT-46"/>
       <use xlink:href="#ArialMT-53" x="61.083984"/>
       <use xlink:href="#ArialMT-35" x="127.783203"/>
      </g>
     </g>
    </g>
    <g id="xtick_15">
     <g id="text_15">
      <!-- MA4 -->
      <g style="fill: #262626" transform="translate(476.043307 533.529325) rotate(-45) scale(0.165 -0.165)">
       <defs>
        <path id="ArialMT-4d" d="M 475 0 
L 475 4581 
L 1388 4581 
L 2472 1338 
Q 2622 884 2691 659 
Q 2769 909 2934 1394 
L 4031 4581 
L 4847 4581 
L 4847 0 
L 4263 0 
L 4263 3834 
L 2931 0 
L 2384 0 
L 1059 3900 
L 1059 0 
L 475 0 
z
" transform="scale(0.015625)"/>
       </defs>
       <use xlink:href="#ArialMT-4d"/>
       <use xlink:href="#ArialMT-41" x="83.300781"/>
       <use xlink:href="#ArialMT-34" x="150"/>
      </g>
     </g>
    </g>
    <g id="xtick_16">
     <g id="text_16">
      <!-- MA5 -->
      <g style="fill: #262626" transform="translate(503.656523 533.529325) rotate(-45) scale(0.165 -0.165)">
       <use xlink:href="#ArialMT-4d"/>
       <use xlink:href="#ArialMT-41" x="83.300781"/>
       <use xlink:href="#ArialMT-35" x="150"/>
      </g>
     </g>
    </g>
    <g id="xtick_17">
     <g id="text_17">
      <!-- MT4 -->
      <g style="fill: #262626" transform="translate(531.597881 532.873041) rotate(-45) scale(0.165 -0.165)">
       <defs>
        <path id="ArialMT-54" d="M 1659 0 
L 1659 4041 
L 150 4041 
L 150 4581 
L 3781 4581 
L 3781 4041 
L 2266 4041 
L 2266 0 
L 1659 0 
z
" transform="scale(0.015625)"/>
       </defs>
       <use xlink:href="#ArialMT-4d"/>
       <use xlink:href="#ArialMT-54" x="83.300781"/>
       <use xlink:href="#ArialMT-34" x="144.384766"/>
      </g>
     </g>
    </g>
    <g id="xtick_18">
     <g id="text_18">
      <!-- MT5 -->
      <g style="fill: #262626" transform="translate(559.211097 532.873041) rotate(-45) scale(0.165 -0.165)">
       <use xlink:href="#ArialMT-4d"/>
       <use xlink:href="#ArialMT-54" x="83.300781"/>
       <use xlink:href="#ArialMT-35" x="144.384766"/>
      </g>
     </g>
    </g>
    <g id="xtick_19">
     <g id="text_19">
      <!-- PA4 -->
      <g style="fill: #262626" transform="translate(587.894419 530.732828) rotate(-45) scale(0.165 -0.165)">
       <defs>
        <path id="ArialMT-50" d="M 494 0 
L 494 4581 
L 2222 4581 
Q 2678 4581 2919 4538 
Q 3256 4481 3484 4323 
Q 3713 4166 3852 3881 
Q 3991 3597 3991 3256 
Q 3991 2672 3619 2267 
Q 3247 1863 2275 1863 
L 1100 1863 
L 1100 0 
L 494 0 
z
M 1100 2403 
L 2284 2403 
Q 2872 2403 3119 2622 
Q 3366 2841 3366 3238 
Q 3366 3525 3220 3729 
Q 3075 3934 2838 4000 
Q 2684 4041 2272 4041 
L 1100 4041 
L 1100 2403 
z
" transform="scale(0.015625)"/>
       </defs>
       <use xlink:href="#ArialMT-50"/>
       <use xlink:href="#ArialMT-41" x="59.324219"/>
       <use xlink:href="#ArialMT-34" x="126.023438"/>
      </g>
     </g>
    </g>
    <g id="xtick_20">
     <g id="text_20">
      <!-- PA5 -->
      <g style="fill: #262626" transform="translate(615.507635 530.732828) rotate(-45) scale(0.165 -0.165)">
       <use xlink:href="#ArialMT-50"/>
       <use xlink:href="#ArialMT-41" x="59.324219"/>
       <use xlink:href="#ArialMT-35" x="126.023438"/>
      </g>
     </g>
    </g>
    <g id="xtick_21">
     <g id="text_21">
      <!-- RM4 -->
      <g style="fill: #262626" transform="translate(641.400841 534.172847) rotate(-45) scale(0.165 -0.165)">
       <defs>
        <path id="ArialMT-52" d="M 503 0 
L 503 4581 
L 2534 4581 
Q 3147 4581 3465 4457 
Q 3784 4334 3975 4021 
Q 4166 3709 4166 3331 
Q 4166 2844 3850 2509 
Q 3534 2175 2875 2084 
Q 3116 1969 3241 1856 
Q 3506 1613 3744 1247 
L 4541 0 
L 3778 0 
L 3172 953 
Q 2906 1366 2734 1584 
Q 2563 1803 2427 1890 
Q 2291 1978 2150 2013 
Q 2047 2034 1813 2034 
L 1109 2034 
L 1109 0 
L 503 0 
z
M 1109 2559 
L 2413 2559 
Q 2828 2559 3062 2645 
Q 3297 2731 3419 2920 
Q 3541 3109 3541 3331 
Q 3541 3656 3305 3865 
Q 3069 4075 2559 4075 
L 1109 4075 
L 1109 2559 
z
" transform="scale(0.015625)"/>
       </defs>
       <use xlink:href="#ArialMT-52"/>
       <use xlink:href="#ArialMT-4d" x="72.216797"/>
       <use xlink:href="#ArialMT-34" x="155.517578"/>
      </g>
     </g>
    </g>
    <g id="xtick_22">
     <g id="text_22">
      <!-- RM5 -->
      <g style="fill: #262626" transform="translate(669.014057 534.172847) rotate(-45) scale(0.165 -0.165)">
       <use xlink:href="#ArialMT-52"/>
       <use xlink:href="#ArialMT-4d" x="72.216797"/>
       <use xlink:href="#ArialMT-35" x="155.517578"/>
      </g>
     </g>
    </g>
    <g id="xtick_23">
     <g id="text_23">
      <!-- SA4 -->
      <g style="fill: #262626" transform="translate(697.917052 531.593288) rotate(-45) scale(0.165 -0.165)">
       <use xlink:href="#ArialMT-53"/>
       <use xlink:href="#ArialMT-41" x="66.699219"/>
       <use xlink:href="#ArialMT-34" x="133.398438"/>
      </g>
     </g>
    </g>
    <g id="xtick_24">
     <g id="text_24">
      <!-- SA5 -->
      <g style="fill: #262626" transform="translate(725.530268 531.593288) rotate(-45) scale(0.165 -0.165)">
       <use xlink:href="#ArialMT-53"/>
       <use xlink:href="#ArialMT-41" x="66.699219"/>
       <use xlink:href="#ArialMT-35" x="133.398438"/>
      </g>
     </g>
    </g>
    <g id="xtick_25">
     <g id="text_25">
      <!-- TA4 -->
      <g style="fill: #262626" transform="translate(753.901856 530.076544) rotate(-45) scale(0.165 -0.165)">
       <use xlink:href="#ArialMT-54"/>
       <use xlink:href="#ArialMT-41" x="53.708984"/>
       <use xlink:href="#ArialMT-34" x="120.408203"/>
      </g>
     </g>
    </g>
    <g id="xtick_26">
     <g id="text_26">
      <!-- TA5 -->
      <g style="fill: #262626" transform="translate(781.515072 530.076544) rotate(-45) scale(0.165 -0.165)">
       <use xlink:href="#ArialMT-54"/>
       <use xlink:href="#ArialMT-41" x="53.708984"/>
       <use xlink:href="#ArialMT-35" x="120.408203"/>
      </g>
     </g>
    </g>
    <g id="xtick_27">
     <g id="text_27">
      <!-- TR4 -->
      <g style="fill: #262626" transform="translate(808.376296 531.580527) rotate(-45) scale(0.165 -0.165)">
       <use xlink:href="#ArialMT-54"/>
       <use xlink:href="#ArialMT-52" x="61.083984"/>
       <use xlink:href="#ArialMT-34" x="133.300781"/>
      </g>
     </g>
    </g>
    <g id="xtick_28">
     <g id="text_28">
      <!-- TR5 -->
      <g style="fill: #262626" transform="translate(835.989512 531.580527) rotate(-45) scale(0.165 -0.165)">
       <use xlink:href="#ArialMT-54"/>
       <use xlink:href="#ArialMT-52" x="61.083984"/>
       <use xlink:href="#ArialMT-35" x="133.300781"/>
      </g>
     </g>
    </g>
    <g id="xtick_29">
     <g id="text_29">
      <!-- VA4 -->
      <g style="fill: #262626" transform="translate(864.026578 530.732828) rotate(-45) scale(0.165 -0.165)">
       <defs>
        <path id="ArialMT-56" d="M 1803 0 
L 28 4581 
L 684 4581 
L 1875 1253 
Q 2019 853 2116 503 
Q 2222 878 2363 1253 
L 3600 4581 
L 4219 4581 
L 2425 0 
L 1803 0 
z
" transform="scale(0.015625)"/>
       </defs>
       <use xlink:href="#ArialMT-56"/>
       <use xlink:href="#ArialMT-41" x="59.324219"/>
       <use xlink:href="#ArialMT-34" x="126.023438"/>
      </g>
     </g>
    </g>
    <g id="xtick_30">
     <g id="text_30">
      <!-- VA5 -->
      <g style="fill: #262626" transform="translate(891.639794 530.732828) rotate(-45) scale(0.165 -0.165)">
       <use xlink:href="#ArialMT-56"/>
       <use xlink:href="#ArialMT-41" x="59.324219"/>
       <use xlink:href="#ArialMT-35" x="126.023438"/>
      </g>
     </g>
    </g>
    <g id="text_31">
     <!-- Instance -->
     <g style="fill: #262626" transform="translate(464.808238 553.375778) scale(0.18 -0.18)">
      <defs>
       <path id="ArialMT-6e" d="M 422 0 
L 422 3319 
L 928 3319 
L 928 2847 
Q 1294 3394 1984 3394 
Q 2284 3394 2536 3286 
Q 2788 3178 2913 3003 
Q 3038 2828 3088 2588 
Q 3119 2431 3119 2041 
L 3119 0 
L 2556 0 
L 2556 2019 
Q 2556 2363 2490 2533 
Q 2425 2703 2258 2804 
Q 2091 2906 1866 2906 
Q 1506 2906 1245 2678 
Q 984 2450 984 1813 
L 984 0 
L 422 0 
z
" transform="scale(0.015625)"/>
       <path id="ArialMT-73" d="M 197 991 
L 753 1078 
Q 800 744 1014 566 
Q 1228 388 1613 388 
Q 2000 388 2187 545 
Q 2375 703 2375 916 
Q 2375 1106 2209 1216 
Q 2094 1291 1634 1406 
Q 1016 1563 777 1677 
Q 538 1791 414 1992 
Q 291 2194 291 2438 
Q 291 2659 392 2848 
Q 494 3038 669 3163 
Q 800 3259 1026 3326 
Q 1253 3394 1513 3394 
Q 1903 3394 2198 3281 
Q 2494 3169 2634 2976 
Q 2775 2784 2828 2463 
L 2278 2388 
Q 2241 2644 2061 2787 
Q 1881 2931 1553 2931 
Q 1166 2931 1000 2803 
Q 834 2675 834 2503 
Q 834 2394 903 2306 
Q 972 2216 1119 2156 
Q 1203 2125 1616 2013 
Q 2213 1853 2448 1751 
Q 2684 1650 2818 1456 
Q 2953 1263 2953 975 
Q 2953 694 2789 445 
Q 2625 197 2315 61 
Q 2006 -75 1616 -75 
Q 969 -75 630 194 
Q 291 463 197 991 
z
" transform="scale(0.015625)"/>
       <path id="ArialMT-74" d="M 1650 503 
L 1731 6 
Q 1494 -44 1306 -44 
Q 1000 -44 831 53 
Q 663 150 594 308 
Q 525 466 525 972 
L 525 2881 
L 113 2881 
L 113 3319 
L 525 3319 
L 525 4141 
L 1084 4478 
L 1084 3319 
L 1650 3319 
L 1650 2881 
L 1084 2881 
L 1084 941 
Q 1084 700 1114 631 
Q 1144 563 1211 522 
Q 1278 481 1403 481 
Q 1497 481 1650 503 
z
" transform="scale(0.015625)"/>
       <path id="ArialMT-61" d="M 2588 409 
Q 2275 144 1986 34 
Q 1697 -75 1366 -75 
Q 819 -75 525 192 
Q 231 459 231 875 
Q 231 1119 342 1320 
Q 453 1522 633 1644 
Q 813 1766 1038 1828 
Q 1203 1872 1538 1913 
Q 2219 1994 2541 2106 
Q 2544 2222 2544 2253 
Q 2544 2597 2384 2738 
Q 2169 2928 1744 2928 
Q 1347 2928 1158 2789 
Q 969 2650 878 2297 
L 328 2372 
Q 403 2725 575 2942 
Q 747 3159 1072 3276 
Q 1397 3394 1825 3394 
Q 2250 3394 2515 3294 
Q 2781 3194 2906 3042 
Q 3031 2891 3081 2659 
Q 3109 2516 3109 2141 
L 3109 1391 
Q 3109 606 3145 398 
Q 3181 191 3288 0 
L 2700 0 
Q 2613 175 2588 409 
z
M 2541 1666 
Q 2234 1541 1622 1453 
Q 1275 1403 1131 1340 
Q 988 1278 909 1158 
Q 831 1038 831 891 
Q 831 666 1001 516 
Q 1172 366 1500 366 
Q 1825 366 2078 508 
Q 2331 650 2450 897 
Q 2541 1088 2541 1459 
L 2541 1666 
z
" transform="scale(0.015625)"/>
       <path id="ArialMT-63" d="M 2588 1216 
L 3141 1144 
Q 3050 572 2676 248 
Q 2303 -75 1759 -75 
Q 1078 -75 664 370 
Q 250 816 250 1647 
Q 250 2184 428 2587 
Q 606 2991 970 3192 
Q 1334 3394 1763 3394 
Q 2303 3394 2647 3120 
Q 2991 2847 3088 2344 
L 2541 2259 
Q 2463 2594 2264 2762 
Q 2066 2931 1784 2931 
Q 1359 2931 1093 2626 
Q 828 2322 828 1663 
Q 828 994 1084 691 
Q 1341 388 1753 388 
Q 2084 388 2306 591 
Q 2528 794 2588 1216 
z
" transform="scale(0.015625)"/>
       <path id="ArialMT-65" d="M 2694 1069 
L 3275 997 
Q 3138 488 2766 206 
Q 2394 -75 1816 -75 
Q 1088 -75 661 373 
Q 234 822 234 1631 
Q 234 2469 665 2931 
Q 1097 3394 1784 3394 
Q 2450 3394 2872 2941 
Q 3294 2488 3294 1666 
Q 3294 1616 3291 1516 
L 816 1516 
Q 847 969 1125 678 
Q 1403 388 1819 388 
Q 2128 388 2347 550 
Q 2566 713 2694 1069 
z
M 847 1978 
L 2700 1978 
Q 2663 2397 2488 2606 
Q 2219 2931 1791 2931 
Q 1403 2931 1139 2672 
Q 875 2413 847 1978 
z
" transform="scale(0.015625)"/>
      </defs>
      <use xlink:href="#ArialMT-49"/>
      <use xlink:href="#ArialMT-6e" x="27.783203"/>
      <use xlink:href="#ArialMT-73" x="83.398438"/>
      <use xlink:href="#ArialMT-74" x="133.398438"/>
      <use xlink:href="#ArialMT-61" x="161.181641"/>
      <use xlink:href="#ArialMT-6e" x="216.796875"/>
      <use xlink:href="#ArialMT-63" x="272.412109"/>
      <use xlink:href="#ArialMT-65" x="322.412109"/>
     </g>
    </g>
   </g>
   <g id="matplotlib.axis_2">
    <g id="ytick_1">
     <g id="line2d_1">
      <path d="M 84.63 475.308371 
L 913.026476 475.308371 
" clip-path="url(#p1b837f8593)" style="fill: none; stroke: #ffffff; stroke-width: 1.5; stroke-linecap: round"/>
     </g>
     <g id="text_32">
      <!-- 0.95 -->
      <g style="fill: #262626" transform="translate(40.019453 481.213566) scale(0.165 -0.165)">
       <defs>
        <path id="ArialMT-30" d="M 266 2259 
Q 266 3072 433 3567 
Q 600 4063 929 4331 
Q 1259 4600 1759 4600 
Q 2128 4600 2406 4451 
Q 2684 4303 2865 4023 
Q 3047 3744 3150 3342 
Q 3253 2941 3253 2259 
Q 3253 1453 3087 958 
Q 2922 463 2592 192 
Q 2263 -78 1759 -78 
Q 1097 -78 719 397 
Q 266 969 266 2259 
z
M 844 2259 
Q 844 1131 1108 757 
Q 1372 384 1759 384 
Q 2147 384 2411 759 
Q 2675 1134 2675 2259 
Q 2675 3391 2411 3762 
Q 2147 4134 1753 4134 
Q 1366 4134 1134 3806 
Q 844 3388 844 2259 
z
" transform="scale(0.015625)"/>
        <path id="ArialMT-2e" d="M 581 0 
L 581 641 
L 1222 641 
L 1222 0 
L 581 0 
z
" transform="scale(0.015625)"/>
        <path id="ArialMT-39" d="M 350 1059 
L 891 1109 
Q 959 728 1153 556 
Q 1347 384 1650 384 
Q 1909 384 2104 503 
Q 2300 622 2425 820 
Q 2550 1019 2634 1356 
Q 2719 1694 2719 2044 
Q 2719 2081 2716 2156 
Q 2547 1888 2255 1720 
Q 1963 1553 1622 1553 
Q 1053 1553 659 1965 
Q 266 2378 266 3053 
Q 266 3750 677 4175 
Q 1088 4600 1706 4600 
Q 2153 4600 2523 4359 
Q 2894 4119 3086 3673 
Q 3278 3228 3278 2384 
Q 3278 1506 3087 986 
Q 2897 466 2520 194 
Q 2144 -78 1638 -78 
Q 1100 -78 759 220 
Q 419 519 350 1059 
z
M 2653 3081 
Q 2653 3566 2395 3850 
Q 2138 4134 1775 4134 
Q 1400 4134 1122 3828 
Q 844 3522 844 3034 
Q 844 2597 1108 2323 
Q 1372 2050 1759 2050 
Q 2150 2050 2401 2323 
Q 2653 2597 2653 3081 
z
" transform="scale(0.015625)"/>
       </defs>
       <use xlink:href="#ArialMT-30"/>
       <use xlink:href="#ArialMT-2e" x="55.615234"/>
       <use xlink:href="#ArialMT-39" x="83.398438"/>
       <use xlink:href="#ArialMT-35" x="139.013672"/>
      </g>
     </g>
    </g>
    <g id="ytick_2">
     <g id="line2d_2">
      <path d="M 84.63 398.487376 
L 913.026476 398.487376 
" clip-path="url(#p1b837f8593)" style="fill: none; stroke: #ffffff; stroke-width: 1.5; stroke-linecap: round"/>
     </g>
     <g id="text_33">
      <!-- 1.00 -->
      <g style="fill: #262626" transform="translate(40.019453 404.392571) scale(0.165 -0.165)">
       <defs>
        <path id="ArialMT-31" d="M 2384 0 
L 1822 0 
L 1822 3584 
Q 1619 3391 1289 3197 
Q 959 3003 697 2906 
L 697 3450 
Q 1169 3672 1522 3987 
Q 1875 4303 2022 4600 
L 2384 4600 
L 2384 0 
z
" transform="scale(0.015625)"/>
       </defs>
       <use xlink:href="#ArialMT-31"/>
       <use xlink:href="#ArialMT-2e" x="55.615234"/>
       <use xlink:href="#ArialMT-30" x="83.398438"/>
       <use xlink:href="#ArialMT-30" x="139.013672"/>
      </g>
     </g>
    </g>
    <g id="ytick_3">
     <g id="line2d_3">
      <path d="M 84.63 321.666381 
L 913.026476 321.666381 
" clip-path="url(#p1b837f8593)" style="fill: none; stroke: #ffffff; stroke-width: 1.5; stroke-linecap: round"/>
     </g>
     <g id="text_34">
      <!-- 1.05 -->
      <g style="fill: #262626" transform="translate(40.019453 327.571576) scale(0.165 -0.165)">
       <use xlink:href="#ArialMT-31"/>
       <use xlink:href="#ArialMT-2e" x="55.615234"/>
       <use xlink:href="#ArialMT-30" x="83.398438"/>
       <use xlink:href="#ArialMT-35" x="139.013672"/>
      </g>
     </g>
    </g>
    <g id="ytick_4">
     <g id="line2d_4">
      <path d="M 84.63 244.845386 
L 913.026476 244.845386 
" clip-path="url(#p1b837f8593)" style="fill: none; stroke: #ffffff; stroke-width: 1.5; stroke-linecap: round"/>
     </g>
     <g id="text_35">
      <!-- 1.10 -->
      <g style="fill: #262626" transform="translate(40.019453 250.750581) scale(0.165 -0.165)">
       <use xlink:href="#ArialMT-31"/>
       <use xlink:href="#ArialMT-2e" x="55.615234"/>
       <use xlink:href="#ArialMT-31" x="83.398438"/>
       <use xlink:href="#ArialMT-30" x="139.013672"/>
      </g>
     </g>
    </g>
    <g id="ytick_5">
     <g id="line2d_5">
      <path d="M 84.63 168.024391 
L 913.026476 168.024391 
" clip-path="url(#p1b837f8593)" style="fill: none; stroke: #ffffff; stroke-width: 1.5; stroke-linecap: round"/>
     </g>
     <g id="text_36">
      <!-- 1.15 -->
      <g style="fill: #262626" transform="translate(40.019453 173.929586) scale(0.165 -0.165)">
       <use xlink:href="#ArialMT-31"/>
       <use xlink:href="#ArialMT-2e" x="55.615234"/>
       <use xlink:href="#ArialMT-31" x="83.398438"/>
       <use xlink:href="#ArialMT-35" x="139.013672"/>
      </g>
     </g>
    </g>
    <g id="ytick_6">
     <g id="line2d_6">
      <path d="M 84.63 91.203396 
L 913.026476 91.203396 
" clip-path="url(#p1b837f8593)" style="fill: none; stroke: #ffffff; stroke-width: 1.5; stroke-linecap: round"/>
     </g>
     <g id="text_37">
      <!-- 1.20 -->
      <g style="fill: #262626" transform="translate(40.019453 97.108591) scale(0.165 -0.165)">
       <defs>
        <path id="ArialMT-32" d="M 3222 541 
L 3222 0 
L 194 0 
Q 188 203 259 391 
Q 375 700 629 1000 
Q 884 1300 1366 1694 
Q 2113 2306 2375 2664 
Q 2638 3022 2638 3341 
Q 2638 3675 2398 3904 
Q 2159 4134 1775 4134 
Q 1369 4134 1125 3890 
Q 881 3647 878 3216 
L 300 3275 
Q 359 3922 746 4261 
Q 1134 4600 1788 4600 
Q 2447 4600 2831 4234 
Q 3216 3869 3216 3328 
Q 3216 3053 3103 2787 
Q 2991 2522 2730 2228 
Q 2469 1934 1863 1422 
Q 1356 997 1212 845 
Q 1069 694 975 541 
L 3222 541 
z
" transform="scale(0.015625)"/>
       </defs>
       <use xlink:href="#ArialMT-31"/>
       <use xlink:href="#ArialMT-2e" x="55.615234"/>
       <use xlink:href="#ArialMT-32" x="83.398438"/>
       <use xlink:href="#ArialMT-30" x="139.013672"/>
      </g>
     </g>
    </g>
    <g id="text_38">
     <!-- Change in Objective Cost -->
     <g style="fill: #262626" transform="translate(32.231016 365.593317) rotate(-90) scale(0.18 -0.18)">
      <defs>
       <path id="ArialMT-68" d="M 422 0 
L 422 4581 
L 984 4581 
L 984 2938 
Q 1378 3394 1978 3394 
Q 2347 3394 2619 3248 
Q 2891 3103 3008 2847 
Q 3125 2591 3125 2103 
L 3125 0 
L 2563 0 
L 2563 2103 
Q 2563 2525 2380 2717 
Q 2197 2909 1863 2909 
Q 1613 2909 1392 2779 
Q 1172 2650 1078 2428 
Q 984 2206 984 1816 
L 984 0 
L 422 0 
z
" transform="scale(0.015625)"/>
       <path id="ArialMT-67" d="M 319 -275 
L 866 -356 
Q 900 -609 1056 -725 
Q 1266 -881 1628 -881 
Q 2019 -881 2231 -725 
Q 2444 -569 2519 -288 
Q 2563 -116 2559 434 
Q 2191 0 1641 0 
Q 956 0 581 494 
Q 206 988 206 1678 
Q 206 2153 378 2554 
Q 550 2956 876 3175 
Q 1203 3394 1644 3394 
Q 2231 3394 2613 2919 
L 2613 3319 
L 3131 3319 
L 3131 450 
Q 3131 -325 2973 -648 
Q 2816 -972 2473 -1159 
Q 2131 -1347 1631 -1347 
Q 1038 -1347 672 -1080 
Q 306 -813 319 -275 
z
M 784 1719 
Q 784 1066 1043 766 
Q 1303 466 1694 466 
Q 2081 466 2343 764 
Q 2606 1063 2606 1700 
Q 2606 2309 2336 2618 
Q 2066 2928 1684 2928 
Q 1309 2928 1046 2623 
Q 784 2319 784 1719 
z
" transform="scale(0.015625)"/>
       <path id="ArialMT-20" transform="scale(0.015625)"/>
       <path id="ArialMT-69" d="M 425 3934 
L 425 4581 
L 988 4581 
L 988 3934 
L 425 3934 
z
M 425 0 
L 425 3319 
L 988 3319 
L 988 0 
L 425 0 
z
" transform="scale(0.015625)"/>
       <path id="ArialMT-62" d="M 941 0 
L 419 0 
L 419 4581 
L 981 4581 
L 981 2947 
Q 1338 3394 1891 3394 
Q 2197 3394 2470 3270 
Q 2744 3147 2920 2923 
Q 3097 2700 3197 2384 
Q 3297 2069 3297 1709 
Q 3297 856 2875 390 
Q 2453 -75 1863 -75 
Q 1275 -75 941 416 
L 941 0 
z
M 934 1684 
Q 934 1088 1097 822 
Q 1363 388 1816 388 
Q 2184 388 2453 708 
Q 2722 1028 2722 1663 
Q 2722 2313 2464 2622 
Q 2206 2931 1841 2931 
Q 1472 2931 1203 2611 
Q 934 2291 934 1684 
z
" transform="scale(0.015625)"/>
       <path id="ArialMT-6a" d="M 419 3928 
L 419 4581 
L 981 4581 
L 981 3928 
L 419 3928 
z
M -294 -1288 
L -188 -809 
Q -19 -853 78 -853 
Q 250 -853 334 -739 
Q 419 -625 419 -169 
L 419 3319 
L 981 3319 
L 981 -181 
Q 981 -794 822 -1034 
Q 619 -1347 147 -1347 
Q -81 -1347 -294 -1288 
z
" transform="scale(0.015625)"/>
       <path id="ArialMT-76" d="M 1344 0 
L 81 3319 
L 675 3319 
L 1388 1331 
Q 1503 1009 1600 663 
Q 1675 925 1809 1294 
L 2547 3319 
L 3125 3319 
L 1869 0 
L 1344 0 
z
" transform="scale(0.015625)"/>
       <path id="ArialMT-6f" d="M 213 1659 
Q 213 2581 725 3025 
Q 1153 3394 1769 3394 
Q 2453 3394 2887 2945 
Q 3322 2497 3322 1706 
Q 3322 1066 3130 698 
Q 2938 331 2570 128 
Q 2203 -75 1769 -75 
Q 1072 -75 642 372 
Q 213 819 213 1659 
z
M 791 1659 
Q 791 1022 1069 705 
Q 1347 388 1769 388 
Q 2188 388 2466 706 
Q 2744 1025 2744 1678 
Q 2744 2294 2464 2611 
Q 2184 2928 1769 2928 
Q 1347 2928 1069 2612 
Q 791 2297 791 1659 
z
" transform="scale(0.015625)"/>
      </defs>
      <use xlink:href="#ArialMT-43"/>
      <use xlink:href="#ArialMT-68" x="72.216797"/>
      <use xlink:href="#ArialMT-61" x="127.832031"/>
      <use xlink:href="#ArialMT-6e" x="183.447266"/>
      <use xlink:href="#ArialMT-67" x="239.0625"/>
      <use xlink:href="#ArialMT-65" x="294.677734"/>
      <use xlink:href="#ArialMT-20" x="350.292969"/>
      <use xlink:href="#ArialMT-69" x="378.076172"/>
      <use xlink:href="#ArialMT-6e" x="400.292969"/>
      <use xlink:href="#ArialMT-20" x="455.908203"/>
      <use xlink:href="#ArialMT-4f" x="483.691406"/>
      <use xlink:href="#ArialMT-62" x="561.474609"/>
      <use xlink:href="#ArialMT-6a" x="617.089844"/>
      <use xlink:href="#ArialMT-65" x="639.306641"/>
      <use xlink:href="#ArialMT-63" x="694.921875"/>
      <use xlink:href="#ArialMT-74" x="744.921875"/>
      <use xlink:href="#ArialMT-69" x="772.705078"/>
      <use xlink:href="#ArialMT-76" x="794.921875"/>
      <use xlink:href="#ArialMT-65" x="844.921875"/>
      <use xlink:href="#ArialMT-20" x="900.537109"/>
      <use xlink:href="#ArialMT-43" x="928.320312"/>
      <use xlink:href="#ArialMT-6f" x="1000.537109"/>
      <use xlink:href="#ArialMT-73" x="1056.152344"/>
      <use xlink:href="#ArialMT-74" x="1106.152344"/>
     </g>
    </g>
   </g>
   <g id="patch_3">
    <path d="M 98.436608 1934.907274 
L 98.436608 1934.907274 
L 98.436608 1934.907274 
L 98.436608 1934.907274 
z
" clip-path="url(#p1b837f8593)" style="fill: #5875a4; stroke: #4c4c4c; stroke-width: 1.5; stroke-linejoin: miter"/>
   </g>
   <g id="patch_4">
    <path d="M 87.391322 169.741041 
L 109.481894 169.741041 
L 109.481894 157.326406 
L 87.391322 157.326406 
L 87.391322 169.741041 
z
" clip-path="url(#p1b837f8593)" style="fill: #5875a4; stroke: #4c4c4c; stroke-linejoin: miter"/>
   </g>
   <g id="line2d_7">
    <path d="M 98.436608 169.741041 
L 98.436608 172.003532 
" clip-path="url(#p1b837f8593)" style="fill: none; stroke: #4c4c4c"/>
   </g>
   <g id="line2d_8">
    <path d="M 98.436608 157.326406 
L 98.436608 143.018298 
" clip-path="url(#p1b837f8593)" style="fill: none; stroke: #4c4c4c"/>
   </g>
   <g id="line2d_9">
    <path d="M 92.913965 172.003532 
L 103.959251 172.003532 
" clip-path="url(#p1b837f8593)" style="fill: none; stroke: #4c4c4c; stroke-linecap: round"/>
   </g>
   <g id="line2d_10">
    <path d="M 92.913965 143.018298 
L 103.959251 143.018298 
" clip-path="url(#p1b837f8593)" style="fill: none; stroke: #4c4c4c; stroke-linecap: round"/>
   </g>
   <g id="line2d_11">
    <defs>
     <path id="m5f45fe8ab1" d="M 0 4.5 
C 1.193414 4.5 2.338109 4.025852 3.181981 3.181981 
C 4.025852 2.338109 4.5 1.193414 4.5 0 
C 4.5 -1.193414 4.025852 -2.338109 3.181981 -3.181981 
C 2.338109 -4.025852 1.193414 -4.5 0 -4.5 
C -1.193414 -4.5 -2.338109 -4.025852 -3.181981 -3.181981 
C -4.025852 -2.338109 -4.5 -1.193414 -4.5 0 
C -4.5 1.193414 -4.025852 2.338109 -3.181981 3.181981 
C -2.338109 4.025852 -1.193414 4.5 0 4.5 
z
" style="stroke: #4c4c4c"/>
    </defs>
    <g clip-path="url(#p1b837f8593)">
     <use xlink:href="#m5f45fe8ab1" x="98.436608" y="459.571252" style="fill-opacity: 0; stroke: #4c4c4c"/>
     <use xlink:href="#m5f45fe8ab1" x="98.436608" y="468.221445" style="fill-opacity: 0; stroke: #4c4c4c"/>
    </g>
   </g>
   <g id="patch_5">
    <path d="M 115.004537 218.661496 
L 137.09511 218.661496 
L 137.09511 208.823398 
L 115.004537 208.823398 
L 115.004537 218.661496 
z
" clip-path="url(#p1b837f8593)" style="fill: #5875a4; stroke: #4c4c4c; stroke-linejoin: miter"/>
   </g>
   <g id="line2d_12">
    <path d="M 126.049824 218.661496 
L 126.049824 220.525192 
" clip-path="url(#p1b837f8593)" style="fill: none; stroke: #4c4c4c"/>
   </g>
   <g id="line2d_13">
    <path d="M 126.049824 208.823398 
L 126.049824 205.587911 
" clip-path="url(#p1b837f8593)" style="fill: none; stroke: #4c4c4c"/>
   </g>
   <g id="line2d_14">
    <path d="M 120.527181 220.525192 
L 131.572467 220.525192 
" clip-path="url(#p1b837f8593)" style="fill: none; stroke: #4c4c4c; stroke-linecap: round"/>
   </g>
   <g id="line2d_15">
    <path d="M 120.527181 205.587911 
L 131.572467 205.587911 
" clip-path="url(#p1b837f8593)" style="fill: none; stroke: #4c4c4c; stroke-linecap: round"/>
   </g>
   <g id="line2d_16">
    <g clip-path="url(#p1b837f8593)">
     <use xlink:href="#m5f45fe8ab1" x="126.049824" y="465.216699" style="fill-opacity: 0; stroke: #4c4c4c"/>
     <use xlink:href="#m5f45fe8ab1" x="126.049824" y="458.406241" style="fill-opacity: 0; stroke: #4c4c4c"/>
    </g>
   </g>
   <g id="patch_6">
    <path d="M 142.617753 397.114845 
L 164.708326 397.114845 
L 164.708326 384.090612 
L 142.617753 384.090612 
L 142.617753 397.114845 
z
" clip-path="url(#p1b837f8593)" style="fill: #5875a4; stroke: #4c4c4c; stroke-linejoin: miter"/>
   </g>
   <g id="line2d_17">
    <path d="M 153.66304 397.114845 
L 153.66304 398.479185 
" clip-path="url(#p1b837f8593)" style="fill: none; stroke: #4c4c4c"/>
   </g>
   <g id="line2d_18">
    <path d="M 153.66304 384.090612 
L 153.66304 370.522974 
" clip-path="url(#p1b837f8593)" style="fill: none; stroke: #4c4c4c"/>
   </g>
   <g id="line2d_19">
    <path d="M 148.140396 398.479185 
L 159.185683 398.479185 
" clip-path="url(#p1b837f8593)" style="fill: none; stroke: #4c4c4c; stroke-linecap: round"/>
   </g>
   <g id="line2d_20">
    <path d="M 148.140396 370.522974 
L 159.185683 370.522974 
" clip-path="url(#p1b837f8593)" style="fill: none; stroke: #4c4c4c; stroke-linecap: round"/>
   </g>
   <g id="line2d_21"/>
   <g id="patch_7">
    <path d="M 170.230969 397.207418 
L 192.321542 397.207418 
L 192.321542 383.49236 
L 170.230969 383.49236 
L 170.230969 397.207418 
z
" clip-path="url(#p1b837f8593)" style="fill: #5875a4; stroke: #4c4c4c; stroke-linejoin: miter"/>
   </g>
   <g id="line2d_22">
    <path d="M 181.276255 397.207418 
L 181.276255 399.860605 
" clip-path="url(#p1b837f8593)" style="fill: none; stroke: #4c4c4c"/>
   </g>
   <g id="line2d_23">
    <path d="M 181.276255 383.49236 
L 181.276255 380.887121 
" clip-path="url(#p1b837f8593)" style="fill: none; stroke: #4c4c4c"/>
   </g>
   <g id="line2d_24">
    <path d="M 175.753612 399.860605 
L 186.798899 399.860605 
" clip-path="url(#p1b837f8593)" style="fill: none; stroke: #4c4c4c; stroke-linecap: round"/>
   </g>
   <g id="line2d_25">
    <path d="M 175.753612 380.887121 
L 186.798899 380.887121 
" clip-path="url(#p1b837f8593)" style="fill: none; stroke: #4c4c4c; stroke-linecap: round"/>
   </g>
   <g id="line2d_26">
    <g clip-path="url(#p1b837f8593)">
     <use xlink:href="#m5f45fe8ab1" x="181.276255" y="337.548376" style="fill-opacity: 0; stroke: #4c4c4c"/>
     <use xlink:href="#m5f45fe8ab1" x="181.276255" y="341.656076" style="fill-opacity: 0; stroke: #4c4c4c"/>
    </g>
   </g>
   <g id="patch_8">
    <path d="M 197.844185 401.873042 
L 219.934758 401.873042 
L 219.934758 397.117203 
L 197.844185 397.117203 
L 197.844185 401.873042 
z
" clip-path="url(#p1b837f8593)" style="fill: #5875a4; stroke: #4c4c4c; stroke-linejoin: miter"/>
   </g>
   <g id="line2d_27">
    <path d="M 208.889471 401.873042 
L 208.889471 405.756333 
" clip-path="url(#p1b837f8593)" style="fill: none; stroke: #4c4c4c"/>
   </g>
   <g id="line2d_28">
    <path d="M 208.889471 397.117203 
L 208.889471 395.94699 
" clip-path="url(#p1b837f8593)" style="fill: none; stroke: #4c4c4c"/>
   </g>
   <g id="line2d_29">
    <path d="M 203.366828 405.756333 
L 214.412115 405.756333 
" clip-path="url(#p1b837f8593)" style="fill: none; stroke: #4c4c4c; stroke-linecap: round"/>
   </g>
   <g id="line2d_30">
    <path d="M 203.366828 395.94699 
L 214.412115 395.94699 
" clip-path="url(#p1b837f8593)" style="fill: none; stroke: #4c4c4c; stroke-linecap: round"/>
   </g>
   <g id="line2d_31">
    <g clip-path="url(#p1b837f8593)">
     <use xlink:href="#m5f45fe8ab1" x="208.889471" y="383.185982" style="fill-opacity: 0; stroke: #4c4c4c"/>
     <use xlink:href="#m5f45fe8ab1" x="208.889471" y="379.300419" style="fill-opacity: 0; stroke: #4c4c4c"/>
    </g>
   </g>
   <g id="patch_9">
    <path d="M 225.457401 396.967341 
L 247.547974 396.967341 
L 247.547974 396.003794 
L 225.457401 396.003794 
L 225.457401 396.967341 
z
" clip-path="url(#p1b837f8593)" style="fill: #5875a4; stroke: #4c4c4c; stroke-linejoin: miter"/>
   </g>
   <g id="line2d_32">
    <path d="M 236.502687 396.967341 
L 236.502687 398.209132 
" clip-path="url(#p1b837f8593)" style="fill: none; stroke: #4c4c4c"/>
   </g>
   <g id="line2d_33">
    <path d="M 236.502687 396.003794 
L 236.502687 394.684713 
" clip-path="url(#p1b837f8593)" style="fill: none; stroke: #4c4c4c"/>
   </g>
   <g id="line2d_34">
    <path d="M 230.980044 398.209132 
L 242.02533 398.209132 
" clip-path="url(#p1b837f8593)" style="fill: none; stroke: #4c4c4c; stroke-linecap: round"/>
   </g>
   <g id="line2d_35">
    <path d="M 230.980044 394.684713 
L 242.02533 394.684713 
" clip-path="url(#p1b837f8593)" style="fill: none; stroke: #4c4c4c; stroke-linecap: round"/>
   </g>
   <g id="line2d_36">
    <g clip-path="url(#p1b837f8593)">
     <use xlink:href="#m5f45fe8ab1" x="236.502687" y="394.457996" style="fill-opacity: 0; stroke: #4c4c4c"/>
    </g>
   </g>
   <g id="patch_10">
    <path d="M 253.070617 319.353887 
L 275.161189 319.353887 
L 275.161189 317.37092 
L 253.070617 317.37092 
L 253.070617 319.353887 
z
" clip-path="url(#p1b837f8593)" style="fill: #5875a4; stroke: #4c4c4c; stroke-linejoin: miter"/>
   </g>
   <g id="line2d_37">
    <path d="M 264.115903 319.353887 
L 264.115903 319.486384 
" clip-path="url(#p1b837f8593)" style="fill: none; stroke: #4c4c4c"/>
   </g>
   <g id="line2d_38">
    <path d="M 264.115903 317.37092 
L 264.115903 314.82113 
" clip-path="url(#p1b837f8593)" style="fill: none; stroke: #4c4c4c"/>
   </g>
   <g id="line2d_39">
    <path d="M 258.59326 319.486384 
L 269.638546 319.486384 
" clip-path="url(#p1b837f8593)" style="fill: none; stroke: #4c4c4c; stroke-linecap: round"/>
   </g>
   <g id="line2d_40">
    <path d="M 258.59326 314.82113 
L 269.638546 314.82113 
" clip-path="url(#p1b837f8593)" style="fill: none; stroke: #4c4c4c; stroke-linecap: round"/>
   </g>
   <g id="line2d_41">
    <g clip-path="url(#p1b837f8593)">
     <use xlink:href="#m5f45fe8ab1" x="264.115903" y="387.760558" style="fill-opacity: 0; stroke: #4c4c4c"/>
     <use xlink:href="#m5f45fe8ab1" x="264.115903" y="387.547895" style="fill-opacity: 0; stroke: #4c4c4c"/>
    </g>
   </g>
   <g id="patch_11">
    <path d="M 280.683833 388.564676 
L 302.774405 388.564676 
L 302.774405 325.397168 
L 280.683833 325.397168 
L 280.683833 388.564676 
z
" clip-path="url(#p1b837f8593)" style="fill: #5875a4; stroke: #4c4c4c; stroke-linejoin: miter"/>
   </g>
   <g id="line2d_42">
    <path d="M 291.729119 388.564676 
L 291.729119 391.794775 
" clip-path="url(#p1b837f8593)" style="fill: none; stroke: #4c4c4c"/>
   </g>
   <g id="line2d_43">
    <path d="M 291.729119 325.397168 
L 291.729119 318.896928 
" clip-path="url(#p1b837f8593)" style="fill: none; stroke: #4c4c4c"/>
   </g>
   <g id="line2d_44">
    <path d="M 286.206476 391.794775 
L 297.251762 391.794775 
" clip-path="url(#p1b837f8593)" style="fill: none; stroke: #4c4c4c; stroke-linecap: round"/>
   </g>
   <g id="line2d_45">
    <path d="M 286.206476 318.896928 
L 297.251762 318.896928 
" clip-path="url(#p1b837f8593)" style="fill: none; stroke: #4c4c4c; stroke-linecap: round"/>
   </g>
   <g id="line2d_46"/>
   <g id="patch_12">
    <path d="M 308.297048 384.183862 
L 330.387621 384.183862 
L 330.387621 359.403166 
L 308.297048 359.403166 
L 308.297048 384.183862 
z
" clip-path="url(#p1b837f8593)" style="fill: #5875a4; stroke: #4c4c4c; stroke-linejoin: miter"/>
   </g>
   <g id="line2d_47">
    <path d="M 319.342335 384.183862 
L 319.342335 392.29862 
" clip-path="url(#p1b837f8593)" style="fill: none; stroke: #4c4c4c"/>
   </g>
   <g id="line2d_48">
    <path d="M 319.342335 359.403166 
L 319.342335 342.050648 
" clip-path="url(#p1b837f8593)" style="fill: none; stroke: #4c4c4c"/>
   </g>
   <g id="line2d_49">
    <path d="M 313.819692 392.29862 
L 324.864978 392.29862 
" clip-path="url(#p1b837f8593)" style="fill: none; stroke: #4c4c4c; stroke-linecap: round"/>
   </g>
   <g id="line2d_50">
    <path d="M 313.819692 342.050648 
L 324.864978 342.050648 
" clip-path="url(#p1b837f8593)" style="fill: none; stroke: #4c4c4c; stroke-linecap: round"/>
   </g>
   <g id="line2d_51"/>
   <g id="patch_13">
    <path d="M 335.910264 395.511615 
L 358.000837 395.511615 
L 358.000837 380.529431 
L 335.910264 380.529431 
L 335.910264 395.511615 
z
" clip-path="url(#p1b837f8593)" style="fill: #5875a4; stroke: #4c4c4c; stroke-linejoin: miter"/>
   </g>
   <g id="line2d_52">
    <path d="M 346.955551 395.511615 
L 346.955551 407.037447 
" clip-path="url(#p1b837f8593)" style="fill: none; stroke: #4c4c4c"/>
   </g>
   <g id="line2d_53">
    <path d="M 346.955551 380.529431 
L 346.955551 368.891834 
" clip-path="url(#p1b837f8593)" style="fill: none; stroke: #4c4c4c"/>
   </g>
   <g id="line2d_54">
    <path d="M 341.432907 407.037447 
L 352.478194 407.037447 
" clip-path="url(#p1b837f8593)" style="fill: none; stroke: #4c4c4c; stroke-linecap: round"/>
   </g>
   <g id="line2d_55">
    <path d="M 341.432907 368.891834 
L 352.478194 368.891834 
" clip-path="url(#p1b837f8593)" style="fill: none; stroke: #4c4c4c; stroke-linecap: round"/>
   </g>
   <g id="line2d_56">
    <g clip-path="url(#p1b837f8593)">
     <use xlink:href="#m5f45fe8ab1" x="346.955551" y="357.759976" style="fill-opacity: 0; stroke: #4c4c4c"/>
    </g>
   </g>
   <g id="patch_14">
    <path d="M 363.52348 394.370483 
L 385.614053 394.370483 
L 385.614053 387.757186 
L 363.52348 387.757186 
L 363.52348 394.370483 
z
" clip-path="url(#p1b837f8593)" style="fill: #5875a4; stroke: #4c4c4c; stroke-linejoin: miter"/>
   </g>
   <g id="line2d_57">
    <path d="M 374.568766 394.370483 
L 374.568766 399.235293 
" clip-path="url(#p1b837f8593)" style="fill: none; stroke: #4c4c4c"/>
   </g>
   <g id="line2d_58">
    <path d="M 374.568766 387.757186 
L 374.568766 385.382925 
" clip-path="url(#p1b837f8593)" style="fill: none; stroke: #4c4c4c"/>
   </g>
   <g id="line2d_59">
    <path d="M 369.046123 399.235293 
L 380.09141 399.235293 
" clip-path="url(#p1b837f8593)" style="fill: none; stroke: #4c4c4c; stroke-linecap: round"/>
   </g>
   <g id="line2d_60">
    <path d="M 369.046123 385.382925 
L 380.09141 385.382925 
" clip-path="url(#p1b837f8593)" style="fill: none; stroke: #4c4c4c; stroke-linecap: round"/>
   </g>
   <g id="line2d_61">
    <g clip-path="url(#p1b837f8593)">
     <use xlink:href="#m5f45fe8ab1" x="374.568766" y="375.129595" style="fill-opacity: 0; stroke: #4c4c4c"/>
    </g>
   </g>
   <g id="patch_15">
    <path d="M 391.136696 411.189433 
L 413.227269 411.189433 
L 413.227269 399.348598 
L 391.136696 399.348598 
L 391.136696 411.189433 
z
" clip-path="url(#p1b837f8593)" style="fill: #5875a4; stroke: #4c4c4c; stroke-linejoin: miter"/>
   </g>
   <g id="line2d_62">
    <path d="M 402.181982 411.189433 
L 402.181982 415.248376 
" clip-path="url(#p1b837f8593)" style="fill: none; stroke: #4c4c4c"/>
   </g>
   <g id="line2d_63">
    <path d="M 402.181982 399.348598 
L 402.181982 395.243311 
" clip-path="url(#p1b837f8593)" style="fill: none; stroke: #4c4c4c"/>
   </g>
   <g id="line2d_64">
    <path d="M 396.659339 415.248376 
L 407.704626 415.248376 
" clip-path="url(#p1b837f8593)" style="fill: none; stroke: #4c4c4c; stroke-linecap: round"/>
   </g>
   <g id="line2d_65">
    <path d="M 396.659339 395.243311 
L 407.704626 395.243311 
" clip-path="url(#p1b837f8593)" style="fill: none; stroke: #4c4c4c; stroke-linecap: round"/>
   </g>
   <g id="line2d_66">
    <g clip-path="url(#p1b837f8593)">
     <use xlink:href="#m5f45fe8ab1" x="402.181982" y="348.72188" style="fill-opacity: 0; stroke: #4c4c4c"/>
    </g>
   </g>
   <g id="patch_16">
    <path d="M 418.749912 344.949213 
L 440.840485 344.949213 
L 440.840485 330.43996 
L 418.749912 330.43996 
L 418.749912 344.949213 
z
" clip-path="url(#p1b837f8593)" style="fill: #5875a4; stroke: #4c4c4c; stroke-linejoin: miter"/>
   </g>
   <g id="line2d_67">
    <path d="M 429.795198 344.949213 
L 429.795198 347.530585 
" clip-path="url(#p1b837f8593)" style="fill: none; stroke: #4c4c4c"/>
   </g>
   <g id="line2d_68">
    <path d="M 429.795198 330.43996 
L 429.795198 323.933054 
" clip-path="url(#p1b837f8593)" style="fill: none; stroke: #4c4c4c"/>
   </g>
   <g id="line2d_69">
    <path d="M 424.272555 347.530585 
L 435.317841 347.530585 
" clip-path="url(#p1b837f8593)" style="fill: none; stroke: #4c4c4c; stroke-linecap: round"/>
   </g>
   <g id="line2d_70">
    <path d="M 424.272555 323.933054 
L 435.317841 323.933054 
" clip-path="url(#p1b837f8593)" style="fill: none; stroke: #4c4c4c; stroke-linecap: round"/>
   </g>
   <g id="line2d_71">
    <g clip-path="url(#p1b837f8593)">
     <use xlink:href="#m5f45fe8ab1" x="429.795198" y="426.498001" style="fill-opacity: 0; stroke: #4c4c4c"/>
     <use xlink:href="#m5f45fe8ab1" x="429.795198" y="431.427563" style="fill-opacity: 0; stroke: #4c4c4c"/>
    </g>
   </g>
   <g id="patch_17">
    <path d="M 446.363128 406.328255 
L 468.4537 406.328255 
L 468.4537 385.982131 
L 446.363128 385.982131 
L 446.363128 406.328255 
z
" clip-path="url(#p1b837f8593)" style="fill: #5875a4; stroke: #4c4c4c; stroke-linejoin: miter"/>
   </g>
   <g id="line2d_72">
    <path d="M 457.408414 406.328255 
L 457.408414 406.328255 
" clip-path="url(#p1b837f8593)" style="fill: none; stroke: #4c4c4c"/>
   </g>
   <g id="line2d_73">
    <path d="M 457.408414 385.982131 
L 457.408414 372.335897 
" clip-path="url(#p1b837f8593)" style="fill: none; stroke: #4c4c4c"/>
   </g>
   <g id="line2d_74">
    <path d="M 451.885771 406.328255 
L 462.931057 406.328255 
" clip-path="url(#p1b837f8593)" style="fill: none; stroke: #4c4c4c; stroke-linecap: round"/>
   </g>
   <g id="line2d_75">
    <path d="M 451.885771 372.335897 
L 462.931057 372.335897 
" clip-path="url(#p1b837f8593)" style="fill: none; stroke: #4c4c4c; stroke-linecap: round"/>
   </g>
   <g id="line2d_76"/>
   <g id="patch_18">
    <path d="M 473.976344 376.799792 
L 496.066916 376.799792 
L 496.066916 195.912988 
L 473.976344 195.912988 
L 473.976344 376.799792 
z
" clip-path="url(#p1b837f8593)" style="fill: #5875a4; stroke: #4c4c4c; stroke-linejoin: miter"/>
   </g>
   <g id="line2d_77">
    <path d="M 485.02163 376.799792 
L 485.02163 408.139629 
" clip-path="url(#p1b837f8593)" style="fill: none; stroke: #4c4c4c"/>
   </g>
   <g id="line2d_78">
    <path d="M 485.02163 195.912988 
L 485.02163 184.804331 
" clip-path="url(#p1b837f8593)" style="fill: none; stroke: #4c4c4c"/>
   </g>
   <g id="line2d_79">
    <path d="M 479.498987 408.139629 
L 490.544273 408.139629 
" clip-path="url(#p1b837f8593)" style="fill: none; stroke: #4c4c4c; stroke-linecap: round"/>
   </g>
   <g id="line2d_80">
    <path d="M 479.498987 184.804331 
L 490.544273 184.804331 
" clip-path="url(#p1b837f8593)" style="fill: none; stroke: #4c4c4c; stroke-linecap: round"/>
   </g>
   <g id="line2d_81"/>
   <g id="patch_19">
    <path d="M 501.589559 372.154 
L 523.680132 372.154 
L 523.680132 360.567084 
L 501.589559 360.567084 
L 501.589559 372.154 
z
" clip-path="url(#p1b837f8593)" style="fill: #5875a4; stroke: #4c4c4c; stroke-linejoin: miter"/>
   </g>
   <g id="line2d_82">
    <path d="M 512.634846 372.154 
L 512.634846 373.161701 
" clip-path="url(#p1b837f8593)" style="fill: none; stroke: #4c4c4c"/>
   </g>
   <g id="line2d_83">
    <path d="M 512.634846 360.567084 
L 512.634846 345.626646 
" clip-path="url(#p1b837f8593)" style="fill: none; stroke: #4c4c4c"/>
   </g>
   <g id="line2d_84">
    <path d="M 507.112203 373.161701 
L 518.157489 373.161701 
" clip-path="url(#p1b837f8593)" style="fill: none; stroke: #4c4c4c; stroke-linecap: round"/>
   </g>
   <g id="line2d_85">
    <path d="M 507.112203 345.626646 
L 518.157489 345.626646 
" clip-path="url(#p1b837f8593)" style="fill: none; stroke: #4c4c4c; stroke-linecap: round"/>
   </g>
   <g id="line2d_86">
    <g clip-path="url(#p1b837f8593)">
     <use xlink:href="#m5f45fe8ab1" x="512.634846" y="391.155654" style="fill-opacity: 0; stroke: #4c4c4c"/>
     <use xlink:href="#m5f45fe8ab1" x="512.634846" y="391.15401" style="fill-opacity: 0; stroke: #4c4c4c"/>
    </g>
   </g>
   <g id="patch_20">
    <path d="M 529.202775 376.906952 
L 551.293348 376.906952 
L 551.293348 370.860092 
L 529.202775 370.860092 
L 529.202775 376.906952 
z
" clip-path="url(#p1b837f8593)" style="fill: #5875a4; stroke: #4c4c4c; stroke-linejoin: miter"/>
   </g>
   <g id="line2d_87">
    <path d="M 540.248062 376.906952 
L 540.248062 376.978925 
" clip-path="url(#p1b837f8593)" style="fill: none; stroke: #4c4c4c"/>
   </g>
   <g id="line2d_88">
    <path d="M 540.248062 370.860092 
L 540.248062 362.630057 
" clip-path="url(#p1b837f8593)" style="fill: none; stroke: #4c4c4c"/>
   </g>
   <g id="line2d_89">
    <path d="M 534.725418 376.978925 
L 545.770705 376.978925 
" clip-path="url(#p1b837f8593)" style="fill: none; stroke: #4c4c4c; stroke-linecap: round"/>
   </g>
   <g id="line2d_90">
    <path d="M 534.725418 362.630057 
L 545.770705 362.630057 
" clip-path="url(#p1b837f8593)" style="fill: none; stroke: #4c4c4c; stroke-linecap: round"/>
   </g>
   <g id="line2d_91">
    <g clip-path="url(#p1b837f8593)">
     <use xlink:href="#m5f45fe8ab1" x="540.248062" y="395.642735" style="fill-opacity: 0; stroke: #4c4c4c"/>
     <use xlink:href="#m5f45fe8ab1" x="540.248062" y="393.651487" style="fill-opacity: 0; stroke: #4c4c4c"/>
    </g>
   </g>
   <g id="patch_21">
    <path d="M 556.815991 401.100326 
L 578.906564 401.100326 
L 578.906564 400.047385 
L 556.815991 400.047385 
L 556.815991 401.100326 
z
" clip-path="url(#p1b837f8593)" style="fill: #5875a4; stroke: #4c4c4c; stroke-linejoin: miter"/>
   </g>
   <g id="line2d_92">
    <path d="M 567.861277 401.100326 
L 567.861277 401.452169 
" clip-path="url(#p1b837f8593)" style="fill: none; stroke: #4c4c4c"/>
   </g>
   <g id="line2d_93">
    <path d="M 567.861277 400.047385 
L 567.861277 399.548078 
" clip-path="url(#p1b837f8593)" style="fill: none; stroke: #4c4c4c"/>
   </g>
   <g id="line2d_94">
    <path d="M 562.338634 401.452169 
L 573.383921 401.452169 
" clip-path="url(#p1b837f8593)" style="fill: none; stroke: #4c4c4c; stroke-linecap: round"/>
   </g>
   <g id="line2d_95">
    <path d="M 562.338634 399.548078 
L 573.383921 399.548078 
" clip-path="url(#p1b837f8593)" style="fill: none; stroke: #4c4c4c; stroke-linecap: round"/>
   </g>
   <g id="line2d_96">
    <g clip-path="url(#p1b837f8593)">
     <use xlink:href="#m5f45fe8ab1" x="567.861277" y="397.188662" style="fill-opacity: 0; stroke: #4c4c4c"/>
    </g>
   </g>
   <g id="patch_22">
    <path d="M 584.429207 398.487376 
L 606.51978 398.487376 
L 606.51978 398.487376 
L 584.429207 398.487376 
L 584.429207 398.487376 
z
" clip-path="url(#p1b837f8593)" style="fill: #5875a4; stroke: #4c4c4c; stroke-linejoin: miter"/>
   </g>
   <g id="line2d_97">
    <path d="M 595.474493 398.487376 
L 595.474493 398.487376 
" clip-path="url(#p1b837f8593)" style="fill: none; stroke: #4c4c4c"/>
   </g>
   <g id="line2d_98">
    <path d="M 595.474493 398.487376 
L 595.474493 398.487376 
" clip-path="url(#p1b837f8593)" style="fill: none; stroke: #4c4c4c"/>
   </g>
   <g id="line2d_99">
    <path d="M 589.95185 398.487376 
L 600.997137 398.487376 
" clip-path="url(#p1b837f8593)" style="fill: none; stroke: #4c4c4c; stroke-linecap: round"/>
   </g>
   <g id="line2d_100">
    <path d="M 589.95185 398.487376 
L 600.997137 398.487376 
" clip-path="url(#p1b837f8593)" style="fill: none; stroke: #4c4c4c; stroke-linecap: round"/>
   </g>
   <g id="line2d_101"/>
   <g id="patch_23">
    <path d="M 612.042423 398.487376 
L 634.132996 398.487376 
L 634.132996 398.487376 
L 612.042423 398.487376 
L 612.042423 398.487376 
z
" clip-path="url(#p1b837f8593)" style="fill: #5875a4; stroke: #4c4c4c; stroke-linejoin: miter"/>
   </g>
   <g id="line2d_102">
    <path d="M 623.087709 398.487376 
L 623.087709 398.487376 
" clip-path="url(#p1b837f8593)" style="fill: none; stroke: #4c4c4c"/>
   </g>
   <g id="line2d_103">
    <path d="M 623.087709 398.487376 
L 623.087709 398.487376 
" clip-path="url(#p1b837f8593)" style="fill: none; stroke: #4c4c4c"/>
   </g>
   <g id="line2d_104">
    <path d="M 617.565066 398.487376 
L 628.610352 398.487376 
" clip-path="url(#p1b837f8593)" style="fill: none; stroke: #4c4c4c; stroke-linecap: round"/>
   </g>
   <g id="line2d_105">
    <path d="M 617.565066 398.487376 
L 628.610352 398.487376 
" clip-path="url(#p1b837f8593)" style="fill: none; stroke: #4c4c4c; stroke-linecap: round"/>
   </g>
   <g id="line2d_106"/>
   <g id="patch_24">
    <path d="M 639.655639 402.192393 
L 661.746211 402.192393 
L 661.746211 385.757665 
L 639.655639 385.757665 
L 639.655639 402.192393 
z
" clip-path="url(#p1b837f8593)" style="fill: #5875a4; stroke: #4c4c4c; stroke-linejoin: miter"/>
   </g>
   <g id="line2d_107">
    <path d="M 650.700925 402.192393 
L 650.700925 407.293699 
" clip-path="url(#p1b837f8593)" style="fill: none; stroke: #4c4c4c"/>
   </g>
   <g id="line2d_108">
    <path d="M 650.700925 385.757665 
L 650.700925 382.201813 
" clip-path="url(#p1b837f8593)" style="fill: none; stroke: #4c4c4c"/>
   </g>
   <g id="line2d_109">
    <path d="M 645.178282 407.293699 
L 656.223568 407.293699 
" clip-path="url(#p1b837f8593)" style="fill: none; stroke: #4c4c4c; stroke-linecap: round"/>
   </g>
   <g id="line2d_110">
    <path d="M 645.178282 382.201813 
L 656.223568 382.201813 
" clip-path="url(#p1b837f8593)" style="fill: none; stroke: #4c4c4c; stroke-linecap: round"/>
   </g>
   <g id="line2d_111"/>
   <g id="patch_25">
    <path d="M 667.268855 402.078743 
L 689.359427 402.078743 
L 689.359427 397.696105 
L 667.268855 397.696105 
L 667.268855 402.078743 
z
" clip-path="url(#p1b837f8593)" style="fill: #5875a4; stroke: #4c4c4c; stroke-linejoin: miter"/>
   </g>
   <g id="line2d_112">
    <path d="M 678.314141 402.078743 
L 678.314141 405.207607 
" clip-path="url(#p1b837f8593)" style="fill: none; stroke: #4c4c4c"/>
   </g>
   <g id="line2d_113">
    <path d="M 678.314141 397.696105 
L 678.314141 393.84841 
" clip-path="url(#p1b837f8593)" style="fill: none; stroke: #4c4c4c"/>
   </g>
   <g id="line2d_114">
    <path d="M 672.791498 405.207607 
L 683.836784 405.207607 
" clip-path="url(#p1b837f8593)" style="fill: none; stroke: #4c4c4c; stroke-linecap: round"/>
   </g>
   <g id="line2d_115">
    <path d="M 672.791498 393.84841 
L 683.836784 393.84841 
" clip-path="url(#p1b837f8593)" style="fill: none; stroke: #4c4c4c; stroke-linecap: round"/>
   </g>
   <g id="line2d_116"/>
   <g id="patch_26">
    <path d="M 694.88207 381.083075 
L 716.972643 381.083075 
L 716.972643 364.172441 
L 694.88207 364.172441 
L 694.88207 381.083075 
z
" clip-path="url(#p1b837f8593)" style="fill: #5875a4; stroke: #4c4c4c; stroke-linejoin: miter"/>
   </g>
   <g id="line2d_117">
    <path d="M 705.927357 381.083075 
L 705.927357 391.520302 
" clip-path="url(#p1b837f8593)" style="fill: none; stroke: #4c4c4c"/>
   </g>
   <g id="line2d_118">
    <path d="M 705.927357 364.172441 
L 705.927357 358.002851 
" clip-path="url(#p1b837f8593)" style="fill: none; stroke: #4c4c4c"/>
   </g>
   <g id="line2d_119">
    <path d="M 700.404714 391.520302 
L 711.45 391.520302 
" clip-path="url(#p1b837f8593)" style="fill: none; stroke: #4c4c4c; stroke-linecap: round"/>
   </g>
   <g id="line2d_120">
    <path d="M 700.404714 358.002851 
L 711.45 358.002851 
" clip-path="url(#p1b837f8593)" style="fill: none; stroke: #4c4c4c; stroke-linecap: round"/>
   </g>
   <g id="line2d_121"/>
   <g id="patch_27">
    <path d="M 722.495286 382.812869 
L 744.585859 382.812869 
L 744.585859 365.146659 
L 722.495286 365.146659 
L 722.495286 382.812869 
z
" clip-path="url(#p1b837f8593)" style="fill: #5875a4; stroke: #4c4c4c; stroke-linejoin: miter"/>
   </g>
   <g id="line2d_122">
    <path d="M 733.540573 382.812869 
L 733.540573 390.979042 
" clip-path="url(#p1b837f8593)" style="fill: none; stroke: #4c4c4c"/>
   </g>
   <g id="line2d_123">
    <path d="M 733.540573 365.146659 
L 733.540573 341.242987 
" clip-path="url(#p1b837f8593)" style="fill: none; stroke: #4c4c4c"/>
   </g>
   <g id="line2d_124">
    <path d="M 728.017929 390.979042 
L 739.063216 390.979042 
" clip-path="url(#p1b837f8593)" style="fill: none; stroke: #4c4c4c; stroke-linecap: round"/>
   </g>
   <g id="line2d_125">
    <path d="M 728.017929 341.242987 
L 739.063216 341.242987 
" clip-path="url(#p1b837f8593)" style="fill: none; stroke: #4c4c4c; stroke-linecap: round"/>
   </g>
   <g id="line2d_126"/>
   <g id="patch_28">
    <path d="M 750.108502 290.229491 
L 772.199075 290.229491 
L 772.199075 216.681198 
L 750.108502 216.681198 
L 750.108502 290.229491 
z
" clip-path="url(#p1b837f8593)" style="fill: #5875a4; stroke: #4c4c4c; stroke-linejoin: miter"/>
   </g>
   <g id="line2d_127">
    <path d="M 761.153788 290.229491 
L 761.153788 341.624218 
" clip-path="url(#p1b837f8593)" style="fill: none; stroke: #4c4c4c"/>
   </g>
   <g id="line2d_128">
    <path d="M 761.153788 216.681198 
L 761.153788 185.364445 
" clip-path="url(#p1b837f8593)" style="fill: none; stroke: #4c4c4c"/>
   </g>
   <g id="line2d_129">
    <path d="M 755.631145 341.624218 
L 766.676432 341.624218 
" clip-path="url(#p1b837f8593)" style="fill: none; stroke: #4c4c4c; stroke-linecap: round"/>
   </g>
   <g id="line2d_130">
    <path d="M 755.631145 185.364445 
L 766.676432 185.364445 
" clip-path="url(#p1b837f8593)" style="fill: none; stroke: #4c4c4c; stroke-linecap: round"/>
   </g>
   <g id="line2d_131">
    <g clip-path="url(#p1b837f8593)">
     <use xlink:href="#m5f45fe8ab1" x="761.153788" y="58.867688" style="fill-opacity: 0; stroke: #4c4c4c"/>
    </g>
   </g>
   <g id="patch_29">
    <path d="M 777.721718 328.187142 
L 799.812291 328.187142 
L 799.812291 291.633607 
L 777.721718 291.633607 
L 777.721718 328.187142 
z
" clip-path="url(#p1b837f8593)" style="fill: #5875a4; stroke: #4c4c4c; stroke-linejoin: miter"/>
   </g>
   <g id="line2d_132">
    <path d="M 788.767004 328.187142 
L 788.767004 378.953617 
" clip-path="url(#p1b837f8593)" style="fill: none; stroke: #4c4c4c"/>
   </g>
   <g id="line2d_133">
    <path d="M 788.767004 291.633607 
L 788.767004 258.617142 
" clip-path="url(#p1b837f8593)" style="fill: none; stroke: #4c4c4c"/>
   </g>
   <g id="line2d_134">
    <path d="M 783.244361 378.953617 
L 794.289647 378.953617 
" clip-path="url(#p1b837f8593)" style="fill: none; stroke: #4c4c4c; stroke-linecap: round"/>
   </g>
   <g id="line2d_135">
    <path d="M 783.244361 258.617142 
L 794.289647 258.617142 
" clip-path="url(#p1b837f8593)" style="fill: none; stroke: #4c4c4c; stroke-linecap: round"/>
   </g>
   <g id="line2d_136">
    <g clip-path="url(#p1b837f8593)">
     <use xlink:href="#m5f45fe8ab1" x="788.767004" y="387.914196" style="fill-opacity: 0; stroke: #4c4c4c"/>
     <use xlink:href="#m5f45fe8ab1" x="788.767004" y="190.210953" style="fill-opacity: 0; stroke: #4c4c4c"/>
    </g>
   </g>
   <g id="patch_30">
    <path d="M 805.334934 410.745585 
L 827.425507 410.745585 
L 827.425507 400.825331 
L 805.334934 400.825331 
L 805.334934 410.745585 
z
" clip-path="url(#p1b837f8593)" style="fill: #5875a4; stroke: #4c4c4c; stroke-linejoin: miter"/>
   </g>
   <g id="line2d_137">
    <path d="M 816.38022 410.745585 
L 816.38022 412.549198 
" clip-path="url(#p1b837f8593)" style="fill: none; stroke: #4c4c4c"/>
   </g>
   <g id="line2d_138">
    <path d="M 816.38022 400.825331 
L 816.38022 388.856998 
" clip-path="url(#p1b837f8593)" style="fill: none; stroke: #4c4c4c"/>
   </g>
   <g id="line2d_139">
    <path d="M 810.857577 412.549198 
L 821.902863 412.549198 
" clip-path="url(#p1b837f8593)" style="fill: none; stroke: #4c4c4c; stroke-linecap: round"/>
   </g>
   <g id="line2d_140">
    <path d="M 810.857577 388.856998 
L 821.902863 388.856998 
" clip-path="url(#p1b837f8593)" style="fill: none; stroke: #4c4c4c; stroke-linecap: round"/>
   </g>
   <g id="line2d_141">
    <g clip-path="url(#p1b837f8593)">
     <use xlink:href="#m5f45fe8ab1" x="816.38022" y="464.064357" style="fill-opacity: 0; stroke: #4c4c4c"/>
    </g>
   </g>
   <g id="patch_31">
    <path d="M 832.94815 448.93158 
L 855.038722 448.93158 
L 855.038722 402.917177 
L 832.94815 402.917177 
L 832.94815 448.93158 
z
" clip-path="url(#p1b837f8593)" style="fill: #5875a4; stroke: #4c4c4c; stroke-linejoin: miter"/>
   </g>
   <g id="line2d_142">
    <path d="M 843.993436 448.93158 
L 843.993436 455.518866 
" clip-path="url(#p1b837f8593)" style="fill: none; stroke: #4c4c4c"/>
   </g>
   <g id="line2d_143">
    <path d="M 843.993436 402.917177 
L 843.993436 395.595337 
" clip-path="url(#p1b837f8593)" style="fill: none; stroke: #4c4c4c"/>
   </g>
   <g id="line2d_144">
    <path d="M 838.470793 455.518866 
L 849.516079 455.518866 
" clip-path="url(#p1b837f8593)" style="fill: none; stroke: #4c4c4c; stroke-linecap: round"/>
   </g>
   <g id="line2d_145">
    <path d="M 838.470793 395.595337 
L 849.516079 395.595337 
" clip-path="url(#p1b837f8593)" style="fill: none; stroke: #4c4c4c; stroke-linecap: round"/>
   </g>
   <g id="line2d_146"/>
   <g id="patch_32">
    <path d="M 860.561366 398.487376 
L 882.651938 398.487376 
L 882.651938 398.487376 
L 860.561366 398.487376 
L 860.561366 398.487376 
z
" clip-path="url(#p1b837f8593)" style="fill: #5875a4; stroke: #4c4c4c; stroke-linejoin: miter"/>
   </g>
   <g id="line2d_147">
    <path d="M 871.606652 398.487376 
L 871.606652 398.487376 
" clip-path="url(#p1b837f8593)" style="fill: none; stroke: #4c4c4c"/>
   </g>
   <g id="line2d_148">
    <path d="M 871.606652 398.487376 
L 871.606652 398.487376 
" clip-path="url(#p1b837f8593)" style="fill: none; stroke: #4c4c4c"/>
   </g>
   <g id="line2d_149">
    <path d="M 866.084009 398.487376 
L 877.129295 398.487376 
" clip-path="url(#p1b837f8593)" style="fill: none; stroke: #4c4c4c; stroke-linecap: round"/>
   </g>
   <g id="line2d_150">
    <path d="M 866.084009 398.487376 
L 877.129295 398.487376 
" clip-path="url(#p1b837f8593)" style="fill: none; stroke: #4c4c4c; stroke-linecap: round"/>
   </g>
   <g id="line2d_151"/>
   <g id="patch_33">
    <path d="M 888.174581 398.487376 
L 910.265154 398.487376 
L 910.265154 398.487376 
L 888.174581 398.487376 
L 888.174581 398.487376 
z
" clip-path="url(#p1b837f8593)" style="fill: #5875a4; stroke: #4c4c4c; stroke-linejoin: miter"/>
   </g>
   <g id="line2d_152">
    <path d="M 899.219868 398.487376 
L 899.219868 398.487376 
" clip-path="url(#p1b837f8593)" style="fill: none; stroke: #4c4c4c"/>
   </g>
   <g id="line2d_153">
    <path d="M 899.219868 398.487376 
L 899.219868 398.487376 
" clip-path="url(#p1b837f8593)" style="fill: none; stroke: #4c4c4c"/>
   </g>
   <g id="line2d_154">
    <path d="M 893.697225 398.487376 
L 904.742511 398.487376 
" clip-path="url(#p1b837f8593)" style="fill: none; stroke: #4c4c4c; stroke-linecap: round"/>
   </g>
   <g id="line2d_155">
    <path d="M 893.697225 398.487376 
L 904.742511 398.487376 
" clip-path="url(#p1b837f8593)" style="fill: none; stroke: #4c4c4c; stroke-linecap: round"/>
   </g>
   <g id="line2d_156"/>
   <g id="line2d_157">
    <path d="M 87.391322 162.745808 
L 109.481894 162.745808 
" clip-path="url(#p1b837f8593)" style="fill: none; stroke: #4c4c4c"/>
   </g>
   <g id="line2d_158">
    <path d="M 115.004537 213.295576 
L 137.09511 213.295576 
" clip-path="url(#p1b837f8593)" style="fill: none; stroke: #4c4c4c"/>
   </g>
   <g id="line2d_159">
    <path d="M 142.617753 395.713648 
L 164.708326 395.713648 
" clip-path="url(#p1b837f8593)" style="fill: none; stroke: #4c4c4c"/>
   </g>
   <g id="line2d_160">
    <path d="M 170.230969 393.431226 
L 192.321542 393.431226 
" clip-path="url(#p1b837f8593)" style="fill: none; stroke: #4c4c4c"/>
   </g>
   <g id="line2d_161">
    <path d="M 197.844185 400.025695 
L 219.934758 400.025695 
" clip-path="url(#p1b837f8593)" style="fill: none; stroke: #4c4c4c"/>
   </g>
   <g id="line2d_162">
    <path d="M 225.457401 396.828219 
L 247.547974 396.828219 
" clip-path="url(#p1b837f8593)" style="fill: none; stroke: #4c4c4c"/>
   </g>
   <g id="line2d_163">
    <path d="M 253.070617 318.358404 
L 275.161189 318.358404 
" clip-path="url(#p1b837f8593)" style="fill: none; stroke: #4c4c4c"/>
   </g>
   <g id="line2d_164">
    <path d="M 280.683833 328.177377 
L 302.774405 328.177377 
" clip-path="url(#p1b837f8593)" style="fill: none; stroke: #4c4c4c"/>
   </g>
   <g id="line2d_165">
    <path d="M 308.297048 376.047612 
L 330.387621 376.047612 
" clip-path="url(#p1b837f8593)" style="fill: none; stroke: #4c4c4c"/>
   </g>
   <g id="line2d_166">
    <path d="M 335.910264 390.736429 
L 358.000837 390.736429 
" clip-path="url(#p1b837f8593)" style="fill: none; stroke: #4c4c4c"/>
   </g>
   <g id="line2d_167">
    <path d="M 363.52348 391.567048 
L 385.614053 391.567048 
" clip-path="url(#p1b837f8593)" style="fill: none; stroke: #4c4c4c"/>
   </g>
   <g id="line2d_168">
    <path d="M 391.136696 402.418873 
L 413.227269 402.418873 
" clip-path="url(#p1b837f8593)" style="fill: none; stroke: #4c4c4c"/>
   </g>
   <g id="line2d_169">
    <path d="M 418.749912 335.73471 
L 440.840485 335.73471 
" clip-path="url(#p1b837f8593)" style="fill: none; stroke: #4c4c4c"/>
   </g>
   <g id="line2d_170">
    <path d="M 446.363128 393.877778 
L 468.4537 393.877778 
" clip-path="url(#p1b837f8593)" style="fill: none; stroke: #4c4c4c"/>
   </g>
   <g id="line2d_171">
    <path d="M 473.976344 372.268252 
L 496.066916 372.268252 
" clip-path="url(#p1b837f8593)" style="fill: none; stroke: #4c4c4c"/>
   </g>
   <g id="line2d_172">
    <path d="M 501.589559 366.145604 
L 523.680132 366.145604 
" clip-path="url(#p1b837f8593)" style="fill: none; stroke: #4c4c4c"/>
   </g>
   <g id="line2d_173">
    <path d="M 529.202775 375.302986 
L 551.293348 375.302986 
" clip-path="url(#p1b837f8593)" style="fill: none; stroke: #4c4c4c"/>
   </g>
   <g id="line2d_174">
    <path d="M 556.815991 400.650174 
L 578.906564 400.650174 
" clip-path="url(#p1b837f8593)" style="fill: none; stroke: #4c4c4c"/>
   </g>
   <g id="line2d_175">
    <path d="M 584.429207 398.487376 
L 606.51978 398.487376 
" clip-path="url(#p1b837f8593)" style="fill: none; stroke: #4c4c4c"/>
   </g>
   <g id="line2d_176">
    <path d="M 612.042423 398.487376 
L 634.132996 398.487376 
" clip-path="url(#p1b837f8593)" style="fill: none; stroke: #4c4c4c"/>
   </g>
   <g id="line2d_177">
    <path d="M 639.655639 395.683751 
L 661.746211 395.683751 
" clip-path="url(#p1b837f8593)" style="fill: none; stroke: #4c4c4c"/>
   </g>
   <g id="line2d_178">
    <path d="M 667.268855 401.18717 
L 689.359427 401.18717 
" clip-path="url(#p1b837f8593)" style="fill: none; stroke: #4c4c4c"/>
   </g>
   <g id="line2d_179">
    <path d="M 694.88207 366.863739 
L 716.972643 366.863739 
" clip-path="url(#p1b837f8593)" style="fill: none; stroke: #4c4c4c"/>
   </g>
   <g id="line2d_180">
    <path d="M 722.495286 371.554264 
L 744.585859 371.554264 
" clip-path="url(#p1b837f8593)" style="fill: none; stroke: #4c4c4c"/>
   </g>
   <g id="line2d_181">
    <path d="M 750.108502 260.317487 
L 772.199075 260.317487 
" clip-path="url(#p1b837f8593)" style="fill: none; stroke: #4c4c4c"/>
   </g>
   <g id="line2d_182">
    <path d="M 777.721718 306.93429 
L 799.812291 306.93429 
" clip-path="url(#p1b837f8593)" style="fill: none; stroke: #4c4c4c"/>
   </g>
   <g id="line2d_183">
    <path d="M 805.334934 406.126402 
L 827.425507 406.126402 
" clip-path="url(#p1b837f8593)" style="fill: none; stroke: #4c4c4c"/>
   </g>
   <g id="line2d_184">
    <path d="M 832.94815 411.977886 
L 855.038722 411.977886 
" clip-path="url(#p1b837f8593)" style="fill: none; stroke: #4c4c4c"/>
   </g>
   <g id="line2d_185">
    <path d="M 860.561366 398.487376 
L 882.651938 398.487376 
" clip-path="url(#p1b837f8593)" style="fill: none; stroke: #4c4c4c"/>
   </g>
   <g id="line2d_186">
    <path d="M 888.174581 398.487376 
L 910.265154 398.487376 
" clip-path="url(#p1b837f8593)" style="fill: none; stroke: #4c4c4c"/>
   </g>
   <g id="patch_34">
    <path d="M 84.63 488.689133 
L 84.63 38.4 
" style="fill: none; stroke: #ffffff; stroke-width: 1.875; stroke-linejoin: miter; stroke-linecap: square"/>
   </g>
   <g id="patch_35">
    <path d="M 913.026476 488.689133 
L 913.026476 38.4 
" style="fill: none; stroke: #ffffff; stroke-width: 1.875; stroke-linejoin: miter; stroke-linecap: square"/>
   </g>
   <g id="patch_36">
    <path d="M 84.63 488.689133 
L 913.026476 488.689133 
" style="fill: none; stroke: #ffffff; stroke-width: 1.875; stroke-linejoin: miter; stroke-linecap: square"/>
   </g>
   <g id="patch_37">
    <path d="M 84.63 38.4 
L 913.026476 38.4 
" style="fill: none; stroke: #ffffff; stroke-width: 1.875; stroke-linejoin: miter; stroke-linecap: square"/>
   </g>
   <g id="text_39">
    <!-- Change in Objective Cost by Instance -->
    <g style="fill: #262626" transform="translate(348.254019 32.4) scale(0.18 -0.18)">
     <defs>
      <path id="ArialMT-79" d="M 397 -1278 
L 334 -750 
Q 519 -800 656 -800 
Q 844 -800 956 -737 
Q 1069 -675 1141 -563 
Q 1194 -478 1313 -144 
Q 1328 -97 1363 -6 
L 103 3319 
L 709 3319 
L 1400 1397 
Q 1534 1031 1641 628 
Q 1738 1016 1872 1384 
L 2581 3319 
L 3144 3319 
L 1881 -56 
Q 1678 -603 1566 -809 
Q 1416 -1088 1222 -1217 
Q 1028 -1347 759 -1347 
Q 597 -1347 397 -1278 
z
" transform="scale(0.015625)"/>
     </defs>
     <use xlink:href="#ArialMT-43"/>
     <use xlink:href="#ArialMT-68" x="72.216797"/>
     <use xlink:href="#ArialMT-61" x="127.832031"/>
     <use xlink:href="#ArialMT-6e" x="183.447266"/>
     <use xlink:href="#ArialMT-67" x="239.0625"/>
     <use xlink:href="#ArialMT-65" x="294.677734"/>
     <use xlink:href="#ArialMT-20" x="350.292969"/>
     <use xlink:href="#ArialMT-69" x="378.076172"/>
     <use xlink:href="#ArialMT-6e" x="400.292969"/>
     <use xlink:href="#ArialMT-20" x="455.908203"/>
     <use xlink:href="#ArialMT-4f" x="483.691406"/>
     <use xlink:href="#ArialMT-62" x="561.474609"/>
     <use xlink:href="#ArialMT-6a" x="617.089844"/>
     <use xlink:href="#ArialMT-65" x="639.306641"/>
     <use xlink:href="#ArialMT-63" x="694.921875"/>
     <use xlink:href="#ArialMT-74" x="744.921875"/>
     <use xlink:href="#ArialMT-69" x="772.705078"/>
     <use xlink:href="#ArialMT-76" x="794.921875"/>
     <use xlink:href="#ArialMT-65" x="844.921875"/>
     <use xlink:href="#ArialMT-20" x="900.537109"/>
     <use xlink:href="#ArialMT-43" x="928.320312"/>
     <use xlink:href="#ArialMT-6f" x="1000.537109"/>
     <use xlink:href="#ArialMT-73" x="1056.152344"/>
     <use xlink:href="#ArialMT-74" x="1106.152344"/>
     <use xlink:href="#ArialMT-20" x="1133.935547"/>
     <use xlink:href="#ArialMT-62" x="1161.71875"/>
     <use xlink:href="#ArialMT-79" x="1217.333984"/>
     <use xlink:href="#ArialMT-20" x="1267.333984"/>
     <use xlink:href="#ArialMT-49" x="1295.117188"/>
     <use xlink:href="#ArialMT-6e" x="1322.900391"/>
     <use xlink:href="#ArialMT-73" x="1378.515625"/>
     <use xlink:href="#ArialMT-74" x="1428.515625"/>
     <use xlink:href="#ArialMT-61" x="1456.298828"/>
     <use xlink:href="#ArialMT-6e" x="1511.914062"/>
     <use xlink:href="#ArialMT-63" x="1567.529297"/>
     <use xlink:href="#ArialMT-65" x="1617.529297"/>
    </g>
   </g>
   <g id="legend_1">
    <g id="patch_38">
     <path d="M 777.427413 99.651328 
L 901.476476 99.651328 
Q 904.776476 99.651328 904.776476 96.351328 
L 904.776476 49.95 
Q 904.776476 46.65 901.476476 46.65 
L 777.427413 46.65 
Q 774.127413 46.65 774.127413 49.95 
L 774.127413 96.351328 
Q 774.127413 99.651328 777.427413 99.651328 
z
" style="fill: #eaeaf2; opacity: 0.8; stroke: #cccccc; stroke-width: 1.5; stroke-linejoin: miter"/>
    </g>
    <g id="text_40">
     <!-- Subset -->
     <g style="fill: #262626" transform="translate(811.433819 66.134062) scale(0.18 -0.18)">
      <defs>
       <path id="ArialMT-75" d="M 2597 0 
L 2597 488 
Q 2209 -75 1544 -75 
Q 1250 -75 995 37 
Q 741 150 617 320 
Q 494 491 444 738 
Q 409 903 409 1263 
L 409 3319 
L 972 3319 
L 972 1478 
Q 972 1038 1006 884 
Q 1059 663 1231 536 
Q 1403 409 1656 409 
Q 1909 409 2131 539 
Q 2353 669 2445 892 
Q 2538 1116 2538 1541 
L 2538 3319 
L 3100 3319 
L 3100 0 
L 2597 0 
z
" transform="scale(0.015625)"/>
      </defs>
      <use xlink:href="#ArialMT-53"/>
      <use xlink:href="#ArialMT-75" x="66.699219"/>
      <use xlink:href="#ArialMT-62" x="122.314453"/>
      <use xlink:href="#ArialMT-73" x="177.929688"/>
      <use xlink:href="#ArialMT-65" x="227.929688"/>
      <use xlink:href="#ArialMT-74" x="283.544922"/>
     </g>
    </g>
    <g id="patch_39">
     <path d="M 780.727413 89.771953 
L 813.727413 89.771953 
L 813.727413 78.221953 
L 780.727413 78.221953 
z
" style="fill: #5875a4; stroke: #4c4c4c; stroke-width: 1.5; stroke-linejoin: miter"/>
    </g>
    <g id="text_41">
     <!-- Validation -->
     <g style="fill: #262626" transform="translate(826.927413 89.771953) scale(0.165 -0.165)">
      <defs>
       <path id="ArialMT-6c" d="M 409 0 
L 409 4581 
L 972 4581 
L 972 0 
L 409 0 
z
" transform="scale(0.015625)"/>
       <path id="ArialMT-64" d="M 2575 0 
L 2575 419 
Q 2259 -75 1647 -75 
Q 1250 -75 917 144 
Q 584 363 401 755 
Q 219 1147 219 1656 
Q 219 2153 384 2558 
Q 550 2963 881 3178 
Q 1213 3394 1622 3394 
Q 1922 3394 2156 3267 
Q 2391 3141 2538 2938 
L 2538 4581 
L 3097 4581 
L 3097 0 
L 2575 0 
z
M 797 1656 
Q 797 1019 1065 703 
Q 1334 388 1700 388 
Q 2069 388 2326 689 
Q 2584 991 2584 1609 
Q 2584 2291 2321 2609 
Q 2059 2928 1675 2928 
Q 1300 2928 1048 2622 
Q 797 2316 797 1656 
z
" transform="scale(0.015625)"/>
      </defs>
      <use xlink:href="#ArialMT-56"/>
      <use xlink:href="#ArialMT-61" x="59.324219"/>
      <use xlink:href="#ArialMT-6c" x="114.939453"/>
      <use xlink:href="#ArialMT-69" x="137.15625"/>
      <use xlink:href="#ArialMT-64" x="159.373047"/>
      <use xlink:href="#ArialMT-61" x="214.988281"/>
      <use xlink:href="#ArialMT-74" x="270.603516"/>
      <use xlink:href="#ArialMT-69" x="298.386719"/>
      <use xlink:href="#ArialMT-6f" x="320.603516"/>
      <use xlink:href="#ArialMT-6e" x="376.21875"/>
     </g>
    </g>
   </g>
  </g>
 </g>
 <defs>
  <clipPath id="p1b837f8593">
   <rect x="84.63" y="38.4" width="828.396476" height="450.289133"/>
  </clipPath>
 </defs>
</svg>
